%TF.GenerationSoftware,KiCad,Pcbnew,6.0.11+dfsg-1*%
%TF.CreationDate,2023-11-07T11:39:56+00:00*%
%TF.ProjectId,bb2a,62623261-2e6b-4696-9361-645f70636258,rev?*%
%TF.SameCoordinates,Original*%
%TF.FileFunction,Legend,Top*%
%TF.FilePolarity,Positive*%
%FSLAX46Y46*%
G04 Gerber Fmt 4.6, Leading zero omitted, Abs format (unit mm)*
G04 Created by KiCad (PCBNEW 6.0.11+dfsg-1) date 2023-11-07 11:39:56*
%MOMM*%
%LPD*%
G01*
G04 APERTURE LIST*
%ADD10C,0.150000*%
%ADD11C,0.254000*%
%ADD12C,0.127000*%
%ADD13C,0.317500*%
%ADD14C,0.120000*%
%ADD15C,0.010000*%
G04 APERTURE END LIST*
D10*
X169000000Y-138750000D02*
X169150000Y-138600000D01*
D11*
X157650000Y-103400000D02*
X160300000Y-103400000D01*
D10*
X169000000Y-136150000D02*
X169150000Y-136000000D01*
X169000000Y-141200000D02*
X169150000Y-141050000D01*
X168550000Y-134900000D02*
X168850000Y-134900000D01*
X169000000Y-140900000D02*
X169150000Y-141050000D01*
X164450000Y-128200000D02*
X164250000Y-128000000D01*
X166950000Y-128200000D02*
X166750000Y-128000000D01*
X169500000Y-127650000D02*
X169150000Y-127650000D01*
X169500000Y-128200000D02*
X169300000Y-128000000D01*
X164650000Y-128000000D02*
X164450000Y-128200000D01*
X168850000Y-139600000D02*
X168850000Y-141050000D01*
X168850000Y-133500000D02*
X169150000Y-133500000D01*
X164250000Y-128000000D02*
X164450000Y-128200000D01*
D11*
X160300000Y-104750000D02*
X157650000Y-104750000D01*
D10*
X169000000Y-133650000D02*
X169150000Y-133500000D01*
X169000000Y-133350000D02*
X169150000Y-133500000D01*
X167600000Y-127300000D02*
X167600000Y-127650000D01*
X168850000Y-138600000D02*
X169150000Y-138600000D01*
X164450000Y-127650000D02*
X164450000Y-128200000D01*
X165950000Y-127650000D02*
X164450000Y-127650000D01*
D11*
X157650000Y-104750000D02*
X157650000Y-103400000D01*
D10*
X168550000Y-137250000D02*
X168850000Y-137250000D01*
X168550000Y-132800000D02*
X168850000Y-132800000D01*
X169000000Y-138450000D02*
X169150000Y-138600000D01*
X169150000Y-127650000D02*
X169150000Y-127300000D01*
X165950000Y-127300000D02*
X165950000Y-127650000D01*
X169150000Y-141050000D02*
X169000000Y-140900000D01*
X168850000Y-136000000D02*
X169150000Y-136000000D01*
X169000000Y-135850000D02*
X169150000Y-136000000D01*
X169700000Y-128000000D02*
X169500000Y-128200000D01*
X167600000Y-127650000D02*
X166950000Y-127650000D01*
X168850000Y-132800000D02*
X168850000Y-133500000D01*
X166950000Y-127650000D02*
X166950000Y-128200000D01*
X168850000Y-137250000D02*
X168850000Y-138600000D01*
X168850000Y-134900000D02*
X168850000Y-136000000D01*
D11*
X160300000Y-103400000D02*
X160300000Y-104750000D01*
D10*
X169500000Y-128200000D02*
X169500000Y-127650000D01*
X168550000Y-139600000D02*
X168850000Y-139600000D01*
X167150000Y-128000000D02*
X166950000Y-128200000D01*
X168850000Y-141050000D02*
X169150000Y-141050000D01*
D12*
X158103502Y-104329809D02*
X158103502Y-103991142D01*
X158103502Y-104087904D02*
X158127692Y-104039523D01*
X158151883Y-104015333D01*
X158200264Y-103991142D01*
X158248645Y-103991142D01*
X158611502Y-104305619D02*
X158563121Y-104329809D01*
X158466359Y-104329809D01*
X158417978Y-104305619D01*
X158393788Y-104257238D01*
X158393788Y-104063714D01*
X158417978Y-104015333D01*
X158466359Y-103991142D01*
X158563121Y-103991142D01*
X158611502Y-104015333D01*
X158635692Y-104063714D01*
X158635692Y-104112095D01*
X158393788Y-104160476D01*
X158805026Y-103991142D02*
X158925978Y-104329809D01*
X159046930Y-103991142D01*
X159724264Y-103821809D02*
X159772645Y-103821809D01*
X159821026Y-103846000D01*
X159845216Y-103870190D01*
X159869407Y-103918571D01*
X159893597Y-104015333D01*
X159893597Y-104136285D01*
X159869407Y-104233047D01*
X159845216Y-104281428D01*
X159821026Y-104305619D01*
X159772645Y-104329809D01*
X159724264Y-104329809D01*
X159675883Y-104305619D01*
X159651692Y-104281428D01*
X159627502Y-104233047D01*
X159603311Y-104136285D01*
X159603311Y-104015333D01*
X159627502Y-103918571D01*
X159651692Y-103870190D01*
X159675883Y-103846000D01*
X159724264Y-103821809D01*
X175719619Y-92635311D02*
X175743809Y-92562740D01*
X175743809Y-92441788D01*
X175719619Y-92393407D01*
X175695428Y-92369216D01*
X175647047Y-92345026D01*
X175598666Y-92345026D01*
X175550285Y-92369216D01*
X175526095Y-92393407D01*
X175501904Y-92441788D01*
X175477714Y-92538550D01*
X175453523Y-92586930D01*
X175429333Y-92611121D01*
X175380952Y-92635311D01*
X175332571Y-92635311D01*
X175284190Y-92611121D01*
X175260000Y-92586930D01*
X175235809Y-92538550D01*
X175235809Y-92417597D01*
X175260000Y-92345026D01*
X175235809Y-92199883D02*
X175235809Y-91909597D01*
X175743809Y-92054740D02*
X175235809Y-92054740D01*
X175235809Y-91812835D02*
X175235809Y-91522550D01*
X175743809Y-91667692D02*
X175235809Y-91667692D01*
X175743809Y-91353216D02*
X175235809Y-91353216D01*
X175477714Y-91353216D02*
X175477714Y-91062930D01*
X175743809Y-91062930D02*
X175235809Y-91062930D01*
X175284190Y-90845216D02*
X175260000Y-90821026D01*
X175235809Y-90772645D01*
X175235809Y-90651692D01*
X175260000Y-90603311D01*
X175284190Y-90579121D01*
X175332571Y-90554930D01*
X175380952Y-90554930D01*
X175453523Y-90579121D01*
X175743809Y-90869407D01*
X175743809Y-90554930D01*
X175743809Y-90046930D02*
X175501904Y-90216264D01*
X175743809Y-90337216D02*
X175235809Y-90337216D01*
X175235809Y-90143692D01*
X175260000Y-90095311D01*
X175284190Y-90071121D01*
X175332571Y-90046930D01*
X175405142Y-90046930D01*
X175453523Y-90071121D01*
X175477714Y-90095311D01*
X175501904Y-90143692D01*
X175501904Y-90337216D01*
X175235809Y-89732454D02*
X175235809Y-89684073D01*
X175260000Y-89635692D01*
X175284190Y-89611502D01*
X175332571Y-89587311D01*
X175429333Y-89563121D01*
X175550285Y-89563121D01*
X175647047Y-89587311D01*
X175695428Y-89611502D01*
X175719619Y-89635692D01*
X175743809Y-89684073D01*
X175743809Y-89732454D01*
X175719619Y-89780835D01*
X175695428Y-89805026D01*
X175647047Y-89829216D01*
X175550285Y-89853407D01*
X175429333Y-89853407D01*
X175332571Y-89829216D01*
X175284190Y-89805026D01*
X175260000Y-89780835D01*
X175235809Y-89732454D01*
X175235809Y-89127692D02*
X175235809Y-89224454D01*
X175260000Y-89272835D01*
X175284190Y-89297026D01*
X175356761Y-89345407D01*
X175453523Y-89369597D01*
X175647047Y-89369597D01*
X175695428Y-89345407D01*
X175719619Y-89321216D01*
X175743809Y-89272835D01*
X175743809Y-89176073D01*
X175719619Y-89127692D01*
X175695428Y-89103502D01*
X175647047Y-89079311D01*
X175526095Y-89079311D01*
X175477714Y-89103502D01*
X175453523Y-89127692D01*
X175429333Y-89176073D01*
X175429333Y-89272835D01*
X175453523Y-89321216D01*
X175477714Y-89345407D01*
X175526095Y-89369597D01*
X172034666Y-105167428D02*
X172034666Y-104925523D01*
X172179809Y-105215809D02*
X171671809Y-105046476D01*
X172179809Y-104877142D01*
X172179809Y-104707809D02*
X171841142Y-104707809D01*
X171937904Y-104707809D02*
X171889523Y-104683619D01*
X171865333Y-104659428D01*
X171841142Y-104611047D01*
X171841142Y-104562666D01*
X172179809Y-104175619D02*
X171671809Y-104175619D01*
X172155619Y-104175619D02*
X172179809Y-104224000D01*
X172179809Y-104320761D01*
X172155619Y-104369142D01*
X172131428Y-104393333D01*
X172083047Y-104417523D01*
X171937904Y-104417523D01*
X171889523Y-104393333D01*
X171865333Y-104369142D01*
X171841142Y-104320761D01*
X171841142Y-104224000D01*
X171865333Y-104175619D01*
X171841142Y-103716000D02*
X172179809Y-103716000D01*
X171841142Y-103933714D02*
X172107238Y-103933714D01*
X172155619Y-103909523D01*
X172179809Y-103861142D01*
X172179809Y-103788571D01*
X172155619Y-103740190D01*
X172131428Y-103716000D01*
X172179809Y-103474095D02*
X171841142Y-103474095D01*
X171671809Y-103474095D02*
X171696000Y-103498285D01*
X171720190Y-103474095D01*
X171696000Y-103449904D01*
X171671809Y-103474095D01*
X171720190Y-103474095D01*
X171841142Y-103232190D02*
X172179809Y-103232190D01*
X171889523Y-103232190D02*
X171865333Y-103208000D01*
X171841142Y-103159619D01*
X171841142Y-103087047D01*
X171865333Y-103038666D01*
X171913714Y-103014476D01*
X172179809Y-103014476D01*
X172179809Y-102700000D02*
X172155619Y-102748380D01*
X172131428Y-102772571D01*
X172083047Y-102796761D01*
X171937904Y-102796761D01*
X171889523Y-102772571D01*
X171865333Y-102748380D01*
X171841142Y-102700000D01*
X171841142Y-102627428D01*
X171865333Y-102579047D01*
X171889523Y-102554857D01*
X171937904Y-102530666D01*
X172083047Y-102530666D01*
X172131428Y-102554857D01*
X172155619Y-102579047D01*
X172179809Y-102627428D01*
X172179809Y-102700000D01*
X172179809Y-101925904D02*
X171671809Y-101925904D01*
X172179809Y-101635619D01*
X171671809Y-101635619D01*
X172179809Y-101176000D02*
X171913714Y-101176000D01*
X171865333Y-101200190D01*
X171841142Y-101248571D01*
X171841142Y-101345333D01*
X171865333Y-101393714D01*
X172155619Y-101176000D02*
X172179809Y-101224380D01*
X172179809Y-101345333D01*
X172155619Y-101393714D01*
X172107238Y-101417904D01*
X172058857Y-101417904D01*
X172010476Y-101393714D01*
X171986285Y-101345333D01*
X171986285Y-101224380D01*
X171962095Y-101176000D01*
X171841142Y-100934095D02*
X172179809Y-100934095D01*
X171889523Y-100934095D02*
X171865333Y-100909904D01*
X171841142Y-100861523D01*
X171841142Y-100788952D01*
X171865333Y-100740571D01*
X171913714Y-100716380D01*
X172179809Y-100716380D01*
X172179809Y-100401904D02*
X172155619Y-100450285D01*
X172131428Y-100474476D01*
X172083047Y-100498666D01*
X171937904Y-100498666D01*
X171889523Y-100474476D01*
X171865333Y-100450285D01*
X171841142Y-100401904D01*
X171841142Y-100329333D01*
X171865333Y-100280952D01*
X171889523Y-100256761D01*
X171937904Y-100232571D01*
X172083047Y-100232571D01*
X172131428Y-100256761D01*
X172155619Y-100280952D01*
X172179809Y-100329333D01*
X172179809Y-100401904D01*
X126268238Y-81382809D02*
X125977952Y-81382809D01*
X126123095Y-81382809D02*
X126123095Y-80874809D01*
X126074714Y-80947380D01*
X126026333Y-80995761D01*
X125977952Y-81019952D01*
X126485952Y-81382809D02*
X126485952Y-80874809D01*
X126534333Y-81189285D02*
X126679476Y-81382809D01*
X126679476Y-81044142D02*
X126485952Y-81237666D01*
X126873000Y-81382809D02*
X126993952Y-81382809D01*
X126993952Y-81286047D01*
X126945571Y-81261857D01*
X126897190Y-81213476D01*
X126873000Y-81140904D01*
X126873000Y-81019952D01*
X126897190Y-80947380D01*
X126945571Y-80899000D01*
X127018142Y-80874809D01*
X127114904Y-80874809D01*
X127187476Y-80899000D01*
X127235857Y-80947380D01*
X127260047Y-81019952D01*
X127260047Y-81140904D01*
X127235857Y-81213476D01*
X127187476Y-81261857D01*
X127139095Y-81286047D01*
X127139095Y-81382809D01*
X127260047Y-81382809D01*
X155097238Y-83033809D02*
X154806952Y-83033809D01*
X154952095Y-83033809D02*
X154952095Y-82525809D01*
X154903714Y-82598380D01*
X154855333Y-82646761D01*
X154806952Y-82670952D01*
X155314952Y-83033809D02*
X155314952Y-82525809D01*
X155363333Y-82840285D02*
X155508476Y-83033809D01*
X155508476Y-82695142D02*
X155314952Y-82888666D01*
X155702000Y-83033809D02*
X155822952Y-83033809D01*
X155822952Y-82937047D01*
X155774571Y-82912857D01*
X155726190Y-82864476D01*
X155702000Y-82791904D01*
X155702000Y-82670952D01*
X155726190Y-82598380D01*
X155774571Y-82550000D01*
X155847142Y-82525809D01*
X155943904Y-82525809D01*
X156016476Y-82550000D01*
X156064857Y-82598380D01*
X156089047Y-82670952D01*
X156089047Y-82791904D01*
X156064857Y-82864476D01*
X156016476Y-82912857D01*
X155968095Y-82937047D01*
X155968095Y-83033809D01*
X156089047Y-83033809D01*
X118279333Y-70079809D02*
X118279333Y-69571809D01*
X118472857Y-69571809D01*
X118521238Y-69596000D01*
X118545428Y-69620190D01*
X118569619Y-69668571D01*
X118569619Y-69741142D01*
X118545428Y-69789523D01*
X118521238Y-69813714D01*
X118472857Y-69837904D01*
X118279333Y-69837904D01*
X118787333Y-69571809D02*
X118787333Y-69983047D01*
X118811523Y-70031428D01*
X118835714Y-70055619D01*
X118884095Y-70079809D01*
X118980857Y-70079809D01*
X119029238Y-70055619D01*
X119053428Y-70031428D01*
X119077619Y-69983047D01*
X119077619Y-69571809D01*
X119561428Y-70079809D02*
X119319523Y-70079809D01*
X119319523Y-69571809D01*
X119972666Y-70079809D02*
X119730761Y-70079809D01*
X119730761Y-69571809D01*
X120529047Y-69571809D02*
X120529047Y-69983047D01*
X120553238Y-70031428D01*
X120577428Y-70055619D01*
X120625809Y-70079809D01*
X120722571Y-70079809D01*
X120770952Y-70055619D01*
X120795142Y-70031428D01*
X120819333Y-69983047D01*
X120819333Y-69571809D01*
X121448285Y-70079809D02*
X121448285Y-69571809D01*
X121448285Y-69813714D02*
X121738571Y-69813714D01*
X121738571Y-70079809D02*
X121738571Y-69571809D01*
X121980476Y-70079809D02*
X121980476Y-69571809D01*
X122488476Y-69596000D02*
X122440095Y-69571809D01*
X122367523Y-69571809D01*
X122294952Y-69596000D01*
X122246571Y-69644380D01*
X122222380Y-69692761D01*
X122198190Y-69789523D01*
X122198190Y-69862095D01*
X122222380Y-69958857D01*
X122246571Y-70007238D01*
X122294952Y-70055619D01*
X122367523Y-70079809D01*
X122415904Y-70079809D01*
X122488476Y-70055619D01*
X122512666Y-70031428D01*
X122512666Y-69862095D01*
X122415904Y-69862095D01*
X122730380Y-70079809D02*
X122730380Y-69571809D01*
X122730380Y-69813714D02*
X123020666Y-69813714D01*
X123020666Y-70079809D02*
X123020666Y-69571809D01*
X114007597Y-79858809D02*
X113717311Y-79858809D01*
X113862454Y-79858809D02*
X113862454Y-79350809D01*
X113814073Y-79423380D01*
X113765692Y-79471761D01*
X113717311Y-79495952D01*
X114322073Y-79350809D02*
X114370454Y-79350809D01*
X114418835Y-79375000D01*
X114443026Y-79399190D01*
X114467216Y-79447571D01*
X114491407Y-79544333D01*
X114491407Y-79665285D01*
X114467216Y-79762047D01*
X114443026Y-79810428D01*
X114418835Y-79834619D01*
X114370454Y-79858809D01*
X114322073Y-79858809D01*
X114273692Y-79834619D01*
X114249502Y-79810428D01*
X114225311Y-79762047D01*
X114201121Y-79665285D01*
X114201121Y-79544333D01*
X114225311Y-79447571D01*
X114249502Y-79399190D01*
X114273692Y-79375000D01*
X114322073Y-79350809D01*
X114805883Y-79350809D02*
X114854264Y-79350809D01*
X114902645Y-79375000D01*
X114926835Y-79399190D01*
X114951026Y-79447571D01*
X114975216Y-79544333D01*
X114975216Y-79665285D01*
X114951026Y-79762047D01*
X114926835Y-79810428D01*
X114902645Y-79834619D01*
X114854264Y-79858809D01*
X114805883Y-79858809D01*
X114757502Y-79834619D01*
X114733311Y-79810428D01*
X114709121Y-79762047D01*
X114684930Y-79665285D01*
X114684930Y-79544333D01*
X114709121Y-79447571D01*
X114733311Y-79399190D01*
X114757502Y-79375000D01*
X114805883Y-79350809D01*
X115289692Y-79350809D02*
X115338073Y-79350809D01*
X115386454Y-79375000D01*
X115410645Y-79399190D01*
X115434835Y-79447571D01*
X115459026Y-79544333D01*
X115459026Y-79665285D01*
X115434835Y-79762047D01*
X115410645Y-79810428D01*
X115386454Y-79834619D01*
X115338073Y-79858809D01*
X115289692Y-79858809D01*
X115241311Y-79834619D01*
X115217121Y-79810428D01*
X115192930Y-79762047D01*
X115168740Y-79665285D01*
X115168740Y-79544333D01*
X115192930Y-79447571D01*
X115217121Y-79399190D01*
X115241311Y-79375000D01*
X115289692Y-79350809D01*
X115894454Y-79520142D02*
X115894454Y-79858809D01*
X115676740Y-79520142D02*
X115676740Y-79786238D01*
X115700930Y-79834619D01*
X115749311Y-79858809D01*
X115821883Y-79858809D01*
X115870264Y-79834619D01*
X115894454Y-79810428D01*
X116305692Y-79592714D02*
X116136359Y-79592714D01*
X116136359Y-79858809D02*
X116136359Y-79350809D01*
X116378264Y-79350809D01*
X144526000Y-70055619D02*
X144598571Y-70079809D01*
X144719523Y-70079809D01*
X144767904Y-70055619D01*
X144792095Y-70031428D01*
X144816285Y-69983047D01*
X144816285Y-69934666D01*
X144792095Y-69886285D01*
X144767904Y-69862095D01*
X144719523Y-69837904D01*
X144622761Y-69813714D01*
X144574380Y-69789523D01*
X144550190Y-69765333D01*
X144526000Y-69716952D01*
X144526000Y-69668571D01*
X144550190Y-69620190D01*
X144574380Y-69596000D01*
X144622761Y-69571809D01*
X144743714Y-69571809D01*
X144816285Y-69596000D01*
X145034000Y-69813714D02*
X145203333Y-69813714D01*
X145275904Y-70079809D02*
X145034000Y-70079809D01*
X145034000Y-69571809D01*
X145275904Y-69571809D01*
X145493619Y-70079809D02*
X145493619Y-69571809D01*
X145783904Y-70079809D01*
X145783904Y-69571809D01*
X146001619Y-70055619D02*
X146074190Y-70079809D01*
X146195142Y-70079809D01*
X146243523Y-70055619D01*
X146267714Y-70031428D01*
X146291904Y-69983047D01*
X146291904Y-69934666D01*
X146267714Y-69886285D01*
X146243523Y-69862095D01*
X146195142Y-69837904D01*
X146098380Y-69813714D01*
X146050000Y-69789523D01*
X146025809Y-69765333D01*
X146001619Y-69716952D01*
X146001619Y-69668571D01*
X146025809Y-69620190D01*
X146050000Y-69596000D01*
X146098380Y-69571809D01*
X146219333Y-69571809D01*
X146291904Y-69596000D01*
X146509619Y-69813714D02*
X146678952Y-69813714D01*
X146751523Y-70079809D02*
X146509619Y-70079809D01*
X146509619Y-69571809D01*
X146751523Y-69571809D01*
X147283714Y-69571809D02*
X147453047Y-70079809D01*
X147622380Y-69571809D01*
X165379809Y-99746497D02*
X164871809Y-99746497D01*
X165379809Y-99214307D02*
X165137904Y-99383640D01*
X165379809Y-99504592D02*
X164871809Y-99504592D01*
X164871809Y-99311069D01*
X164896000Y-99262688D01*
X164920190Y-99238497D01*
X164968571Y-99214307D01*
X165041142Y-99214307D01*
X165089523Y-99238497D01*
X165113714Y-99262688D01*
X165137904Y-99311069D01*
X165137904Y-99504592D01*
X164920190Y-99020783D02*
X164896000Y-98996592D01*
X164871809Y-98948211D01*
X164871809Y-98827259D01*
X164896000Y-98778878D01*
X164920190Y-98754688D01*
X164968571Y-98730497D01*
X165016952Y-98730497D01*
X165089523Y-98754688D01*
X165379809Y-99044973D01*
X165379809Y-98730497D01*
X165379809Y-98246688D02*
X165379809Y-98536973D01*
X165379809Y-98391830D02*
X164871809Y-98391830D01*
X164944380Y-98440211D01*
X164992761Y-98488592D01*
X165016952Y-98536973D01*
X164871809Y-98077354D02*
X164871809Y-97762878D01*
X165065333Y-97932211D01*
X165065333Y-97859640D01*
X165089523Y-97811259D01*
X165113714Y-97787069D01*
X165162095Y-97762878D01*
X165283047Y-97762878D01*
X165331428Y-97787069D01*
X165355619Y-97811259D01*
X165379809Y-97859640D01*
X165379809Y-98004783D01*
X165355619Y-98053164D01*
X165331428Y-98077354D01*
X164871809Y-97448402D02*
X164871809Y-97400021D01*
X164896000Y-97351640D01*
X164920190Y-97327450D01*
X164968571Y-97303259D01*
X165065333Y-97279069D01*
X165186285Y-97279069D01*
X165283047Y-97303259D01*
X165331428Y-97327450D01*
X165355619Y-97351640D01*
X165379809Y-97400021D01*
X165379809Y-97448402D01*
X165355619Y-97496783D01*
X165331428Y-97520973D01*
X165283047Y-97545164D01*
X165186285Y-97569354D01*
X165065333Y-97569354D01*
X164968571Y-97545164D01*
X164920190Y-97520973D01*
X164896000Y-97496783D01*
X164871809Y-97448402D01*
X159679809Y-115897978D02*
X159679809Y-116139883D01*
X159171809Y-116139883D01*
X159679809Y-115728645D02*
X159171809Y-115728645D01*
X159534666Y-115559311D01*
X159171809Y-115389978D01*
X159679809Y-115389978D01*
X159220190Y-115172264D02*
X159196000Y-115148073D01*
X159171809Y-115099692D01*
X159171809Y-114978740D01*
X159196000Y-114930359D01*
X159220190Y-114906169D01*
X159268571Y-114881978D01*
X159316952Y-114881978D01*
X159389523Y-114906169D01*
X159679809Y-115196454D01*
X159679809Y-114881978D01*
X159171809Y-114422359D02*
X159171809Y-114664264D01*
X159413714Y-114688454D01*
X159389523Y-114664264D01*
X159365333Y-114615883D01*
X159365333Y-114494930D01*
X159389523Y-114446550D01*
X159413714Y-114422359D01*
X159462095Y-114398169D01*
X159583047Y-114398169D01*
X159631428Y-114422359D01*
X159655619Y-114446550D01*
X159679809Y-114494930D01*
X159679809Y-114615883D01*
X159655619Y-114664264D01*
X159631428Y-114688454D01*
X159171809Y-114228835D02*
X159171809Y-113890169D01*
X159679809Y-114107883D01*
X159171809Y-113478930D02*
X159171809Y-113575692D01*
X159196000Y-113624073D01*
X159220190Y-113648264D01*
X159292761Y-113696645D01*
X159389523Y-113720835D01*
X159583047Y-113720835D01*
X159631428Y-113696645D01*
X159655619Y-113672454D01*
X159679809Y-113624073D01*
X159679809Y-113527311D01*
X159655619Y-113478930D01*
X159631428Y-113454740D01*
X159583047Y-113430550D01*
X159462095Y-113430550D01*
X159413714Y-113454740D01*
X159389523Y-113478930D01*
X159365333Y-113527311D01*
X159365333Y-113624073D01*
X159389523Y-113672454D01*
X159413714Y-113696645D01*
X159462095Y-113720835D01*
X159679809Y-113212835D02*
X159171809Y-113212835D01*
X159413714Y-113212835D02*
X159413714Y-112922550D01*
X159679809Y-112922550D02*
X159171809Y-112922550D01*
X159171809Y-112753216D02*
X159679809Y-112583883D01*
X159171809Y-112414550D01*
X159171809Y-112317788D02*
X159171809Y-112027502D01*
X159679809Y-112172645D02*
X159171809Y-112172645D01*
X159486285Y-111858169D02*
X159486285Y-111471121D01*
X159679809Y-110963121D02*
X159679809Y-111253407D01*
X159679809Y-111108264D02*
X159171809Y-111108264D01*
X159244380Y-111156645D01*
X159292761Y-111205026D01*
X159316952Y-111253407D01*
X159220190Y-110769597D02*
X159196000Y-110745407D01*
X159171809Y-110697026D01*
X159171809Y-110576073D01*
X159196000Y-110527692D01*
X159220190Y-110503502D01*
X159268571Y-110479311D01*
X159316952Y-110479311D01*
X159389523Y-110503502D01*
X159679809Y-110793788D01*
X159679809Y-110479311D01*
X143614666Y-140229809D02*
X143614666Y-139721809D01*
X143614666Y-139963714D02*
X143904952Y-139963714D01*
X143904952Y-140229809D02*
X143904952Y-139721809D01*
X144122666Y-140084666D02*
X144364571Y-140084666D01*
X144074285Y-140229809D02*
X144243619Y-139721809D01*
X144412952Y-140229809D01*
X144824190Y-140229809D02*
X144582285Y-140229809D01*
X144582285Y-139721809D01*
X145235428Y-140229809D02*
X144993523Y-140229809D01*
X144993523Y-139721809D01*
X145719238Y-139721809D02*
X145888571Y-140229809D01*
X146057904Y-139721809D01*
X156355142Y-70079809D02*
X156355142Y-69571809D01*
X156548666Y-69571809D01*
X156597047Y-69596000D01*
X156621238Y-69620190D01*
X156645428Y-69668571D01*
X156645428Y-69741142D01*
X156621238Y-69789523D01*
X156597047Y-69813714D01*
X156548666Y-69837904D01*
X156355142Y-69837904D01*
X156863142Y-69571809D02*
X156863142Y-69983047D01*
X156887333Y-70031428D01*
X156911523Y-70055619D01*
X156959904Y-70079809D01*
X157056666Y-70079809D01*
X157105047Y-70055619D01*
X157129238Y-70031428D01*
X157153428Y-69983047D01*
X157153428Y-69571809D01*
X157637238Y-70079809D02*
X157395333Y-70079809D01*
X157395333Y-69571809D01*
X158048476Y-70079809D02*
X157806571Y-70079809D01*
X157806571Y-69571809D01*
X158556476Y-69571809D02*
X158677428Y-70079809D01*
X158774190Y-69716952D01*
X158870952Y-70079809D01*
X158991904Y-69571809D01*
X159572476Y-70079809D02*
X159572476Y-69571809D01*
X159572476Y-69813714D02*
X159862761Y-69813714D01*
X159862761Y-70079809D02*
X159862761Y-69571809D01*
X160104666Y-70079809D02*
X160104666Y-69571809D01*
X160612666Y-69596000D02*
X160564285Y-69571809D01*
X160491714Y-69571809D01*
X160419142Y-69596000D01*
X160370761Y-69644380D01*
X160346571Y-69692761D01*
X160322380Y-69789523D01*
X160322380Y-69862095D01*
X160346571Y-69958857D01*
X160370761Y-70007238D01*
X160419142Y-70055619D01*
X160491714Y-70079809D01*
X160540095Y-70079809D01*
X160612666Y-70055619D01*
X160636857Y-70031428D01*
X160636857Y-69862095D01*
X160540095Y-69862095D01*
X160854571Y-70079809D02*
X160854571Y-69571809D01*
X160854571Y-69813714D02*
X161144857Y-69813714D01*
X161144857Y-70079809D02*
X161144857Y-69571809D01*
X152293259Y-132436809D02*
X152051354Y-132436809D01*
X152051354Y-131928809D01*
X152462592Y-132436809D02*
X152462592Y-131928809D01*
X152631926Y-132291666D01*
X152801259Y-131928809D01*
X152801259Y-132436809D01*
X152994783Y-131928809D02*
X153333450Y-131928809D01*
X153115735Y-132436809D01*
X153599545Y-132146523D02*
X153551164Y-132122333D01*
X153526973Y-132098142D01*
X153502783Y-132049761D01*
X153502783Y-132025571D01*
X153526973Y-131977190D01*
X153551164Y-131953000D01*
X153599545Y-131928809D01*
X153696307Y-131928809D01*
X153744688Y-131953000D01*
X153768878Y-131977190D01*
X153793069Y-132025571D01*
X153793069Y-132049761D01*
X153768878Y-132098142D01*
X153744688Y-132122333D01*
X153696307Y-132146523D01*
X153599545Y-132146523D01*
X153551164Y-132170714D01*
X153526973Y-132194904D01*
X153502783Y-132243285D01*
X153502783Y-132340047D01*
X153526973Y-132388428D01*
X153551164Y-132412619D01*
X153599545Y-132436809D01*
X153696307Y-132436809D01*
X153744688Y-132412619D01*
X153768878Y-132388428D01*
X153793069Y-132340047D01*
X153793069Y-132243285D01*
X153768878Y-132194904D01*
X153744688Y-132170714D01*
X153696307Y-132146523D01*
X154107545Y-131928809D02*
X154155926Y-131928809D01*
X154204307Y-131953000D01*
X154228497Y-131977190D01*
X154252688Y-132025571D01*
X154276878Y-132122333D01*
X154276878Y-132243285D01*
X154252688Y-132340047D01*
X154228497Y-132388428D01*
X154204307Y-132412619D01*
X154155926Y-132436809D01*
X154107545Y-132436809D01*
X154059164Y-132412619D01*
X154034973Y-132388428D01*
X154010783Y-132340047D01*
X153986592Y-132243285D01*
X153986592Y-132122333D01*
X154010783Y-132025571D01*
X154034973Y-131977190D01*
X154059164Y-131953000D01*
X154107545Y-131928809D01*
X154736497Y-131928809D02*
X154494592Y-131928809D01*
X154470402Y-132170714D01*
X154494592Y-132146523D01*
X154542973Y-132122333D01*
X154663926Y-132122333D01*
X154712307Y-132146523D01*
X154736497Y-132170714D01*
X154760688Y-132219095D01*
X154760688Y-132340047D01*
X154736497Y-132388428D01*
X154712307Y-132412619D01*
X154663926Y-132436809D01*
X154542973Y-132436809D01*
X154494592Y-132412619D01*
X154470402Y-132388428D01*
D13*
X135832089Y-104059285D02*
X136013517Y-104119761D01*
X136073994Y-104180238D01*
X136134470Y-104301190D01*
X136134470Y-104482619D01*
X136073994Y-104603571D01*
X136013517Y-104664047D01*
X135892565Y-104724523D01*
X135408755Y-104724523D01*
X135408755Y-103454523D01*
X135832089Y-103454523D01*
X135953041Y-103515000D01*
X136013517Y-103575476D01*
X136073994Y-103696428D01*
X136073994Y-103817380D01*
X136013517Y-103938333D01*
X135953041Y-103998809D01*
X135832089Y-104059285D01*
X135408755Y-104059285D01*
X137283517Y-104724523D02*
X136678755Y-104724523D01*
X136678755Y-103454523D01*
X137706851Y-104724523D02*
X137706851Y-103454523D01*
X138009232Y-103454523D01*
X138190660Y-103515000D01*
X138311613Y-103635952D01*
X138372089Y-103756904D01*
X138432565Y-103998809D01*
X138432565Y-104180238D01*
X138372089Y-104422142D01*
X138311613Y-104543095D01*
X138190660Y-104664047D01*
X138009232Y-104724523D01*
X137706851Y-104724523D01*
X139702565Y-104603571D02*
X139642089Y-104664047D01*
X139460660Y-104724523D01*
X139339708Y-104724523D01*
X139158279Y-104664047D01*
X139037327Y-104543095D01*
X138976851Y-104422142D01*
X138916375Y-104180238D01*
X138916375Y-103998809D01*
X138976851Y-103756904D01*
X139037327Y-103635952D01*
X139158279Y-103515000D01*
X139339708Y-103454523D01*
X139460660Y-103454523D01*
X139642089Y-103515000D01*
X139702565Y-103575476D01*
X141214470Y-104724523D02*
X141214470Y-103454523D01*
X141637803Y-104361666D01*
X142061136Y-103454523D01*
X142061136Y-104724523D01*
X142847327Y-104724523D02*
X142726375Y-104664047D01*
X142665898Y-104603571D01*
X142605422Y-104482619D01*
X142605422Y-104119761D01*
X142665898Y-103998809D01*
X142726375Y-103938333D01*
X142847327Y-103877857D01*
X143028755Y-103877857D01*
X143149708Y-103938333D01*
X143210184Y-103998809D01*
X143270660Y-104119761D01*
X143270660Y-104482619D01*
X143210184Y-104603571D01*
X143149708Y-104664047D01*
X143028755Y-104724523D01*
X142847327Y-104724523D01*
X143633517Y-103877857D02*
X144117327Y-103877857D01*
X143814946Y-103454523D02*
X143814946Y-104543095D01*
X143875422Y-104664047D01*
X143996375Y-104724523D01*
X144117327Y-104724523D01*
X144722089Y-104724523D02*
X144601136Y-104664047D01*
X144540660Y-104603571D01*
X144480184Y-104482619D01*
X144480184Y-104119761D01*
X144540660Y-103998809D01*
X144601136Y-103938333D01*
X144722089Y-103877857D01*
X144903517Y-103877857D01*
X145024470Y-103938333D01*
X145084946Y-103998809D01*
X145145422Y-104119761D01*
X145145422Y-104482619D01*
X145084946Y-104603571D01*
X145024470Y-104664047D01*
X144903517Y-104724523D01*
X144722089Y-104724523D01*
X145689708Y-104724523D02*
X145689708Y-103877857D01*
X145689708Y-104119761D02*
X145750184Y-103998809D01*
X145810660Y-103938333D01*
X145931613Y-103877857D01*
X146052565Y-103877857D01*
X147443517Y-104724523D02*
X147443517Y-103454523D01*
X147745898Y-103454523D01*
X147927327Y-103515000D01*
X148048279Y-103635952D01*
X148108755Y-103756904D01*
X148169232Y-103998809D01*
X148169232Y-104180238D01*
X148108755Y-104422142D01*
X148048279Y-104543095D01*
X147927327Y-104664047D01*
X147745898Y-104724523D01*
X147443517Y-104724523D01*
X148713517Y-104724523D02*
X148713517Y-103877857D01*
X148713517Y-104119761D02*
X148773994Y-103998809D01*
X148834470Y-103938333D01*
X148955422Y-103877857D01*
X149076375Y-103877857D01*
X149499708Y-104724523D02*
X149499708Y-103877857D01*
X149499708Y-103454523D02*
X149439232Y-103515000D01*
X149499708Y-103575476D01*
X149560184Y-103515000D01*
X149499708Y-103454523D01*
X149499708Y-103575476D01*
X149983517Y-103877857D02*
X150285898Y-104724523D01*
X150588279Y-103877857D01*
X151555898Y-104664047D02*
X151434946Y-104724523D01*
X151193041Y-104724523D01*
X151072089Y-104664047D01*
X151011613Y-104543095D01*
X151011613Y-104059285D01*
X151072089Y-103938333D01*
X151193041Y-103877857D01*
X151434946Y-103877857D01*
X151555898Y-103938333D01*
X151616375Y-104059285D01*
X151616375Y-104180238D01*
X151011613Y-104301190D01*
X152160660Y-104724523D02*
X152160660Y-103877857D01*
X152160660Y-104119761D02*
X152221136Y-103998809D01*
X152281613Y-103938333D01*
X152402565Y-103877857D01*
X152523517Y-103877857D01*
X154337803Y-104059285D02*
X154519232Y-104119761D01*
X154579708Y-104180238D01*
X154640184Y-104301190D01*
X154640184Y-104482619D01*
X154579708Y-104603571D01*
X154519232Y-104664047D01*
X154398279Y-104724523D01*
X153914470Y-104724523D01*
X153914470Y-103454523D01*
X154337803Y-103454523D01*
X154458755Y-103515000D01*
X154519232Y-103575476D01*
X154579708Y-103696428D01*
X154579708Y-103817380D01*
X154519232Y-103938333D01*
X154458755Y-103998809D01*
X154337803Y-104059285D01*
X153914470Y-104059285D01*
X155607803Y-104059285D02*
X155789232Y-104119761D01*
X155849708Y-104180238D01*
X155910184Y-104301190D01*
X155910184Y-104482619D01*
X155849708Y-104603571D01*
X155789232Y-104664047D01*
X155668279Y-104724523D01*
X155184470Y-104724523D01*
X155184470Y-103454523D01*
X155607803Y-103454523D01*
X155728755Y-103515000D01*
X155789232Y-103575476D01*
X155849708Y-103696428D01*
X155849708Y-103817380D01*
X155789232Y-103938333D01*
X155728755Y-103998809D01*
X155607803Y-104059285D01*
X155184470Y-104059285D01*
X156393994Y-103575476D02*
X156454470Y-103515000D01*
X156575422Y-103454523D01*
X156877803Y-103454523D01*
X156998755Y-103515000D01*
X157059232Y-103575476D01*
X157119708Y-103696428D01*
X157119708Y-103817380D01*
X157059232Y-103998809D01*
X156333517Y-104724523D01*
X157119708Y-104724523D01*
D12*
X138012952Y-146046000D02*
X137964571Y-146021809D01*
X137892000Y-146021809D01*
X137819428Y-146046000D01*
X137771047Y-146094380D01*
X137746857Y-146142761D01*
X137722666Y-146239523D01*
X137722666Y-146312095D01*
X137746857Y-146408857D01*
X137771047Y-146457238D01*
X137819428Y-146505619D01*
X137892000Y-146529809D01*
X137940380Y-146529809D01*
X138012952Y-146505619D01*
X138037142Y-146481428D01*
X138037142Y-146312095D01*
X137940380Y-146312095D01*
X138254857Y-146529809D02*
X138254857Y-146021809D01*
X138545142Y-146529809D01*
X138545142Y-146021809D01*
X138787047Y-146529809D02*
X138787047Y-146021809D01*
X138908000Y-146021809D01*
X138980571Y-146046000D01*
X139028952Y-146094380D01*
X139053142Y-146142761D01*
X139077333Y-146239523D01*
X139077333Y-146312095D01*
X139053142Y-146408857D01*
X139028952Y-146457238D01*
X138980571Y-146505619D01*
X138908000Y-146529809D01*
X138787047Y-146529809D01*
X149835809Y-129092476D02*
X150198666Y-129092476D01*
X150271238Y-129116666D01*
X150319619Y-129165047D01*
X150343809Y-129237619D01*
X150343809Y-129286000D01*
X150343809Y-128608666D02*
X150343809Y-128850571D01*
X149835809Y-128850571D01*
X150295428Y-128149047D02*
X150319619Y-128173238D01*
X150343809Y-128245809D01*
X150343809Y-128294190D01*
X150319619Y-128366761D01*
X150271238Y-128415142D01*
X150222857Y-128439333D01*
X150126095Y-128463523D01*
X150053523Y-128463523D01*
X149956761Y-128439333D01*
X149908380Y-128415142D01*
X149860000Y-128366761D01*
X149835809Y-128294190D01*
X149835809Y-128245809D01*
X149860000Y-128173238D01*
X149884190Y-128149047D01*
X149835809Y-127786190D02*
X150198666Y-127786190D01*
X150271238Y-127810380D01*
X150319619Y-127858761D01*
X150343809Y-127931333D01*
X150343809Y-127979714D01*
X150343809Y-127302380D02*
X150343809Y-127544285D01*
X149835809Y-127544285D01*
X150295428Y-126842761D02*
X150319619Y-126866952D01*
X150343809Y-126939523D01*
X150343809Y-126987904D01*
X150319619Y-127060476D01*
X150271238Y-127108857D01*
X150222857Y-127133047D01*
X150126095Y-127157238D01*
X150053523Y-127157238D01*
X149956761Y-127133047D01*
X149908380Y-127108857D01*
X149860000Y-127060476D01*
X149835809Y-126987904D01*
X149835809Y-126939523D01*
X149860000Y-126866952D01*
X149884190Y-126842761D01*
X149835809Y-126479904D02*
X150198666Y-126479904D01*
X150271238Y-126504095D01*
X150319619Y-126552476D01*
X150343809Y-126625047D01*
X150343809Y-126673428D01*
X150343809Y-125996095D02*
X150343809Y-126238000D01*
X149835809Y-126238000D01*
X150295428Y-125536476D02*
X150319619Y-125560666D01*
X150343809Y-125633238D01*
X150343809Y-125681619D01*
X150319619Y-125754190D01*
X150271238Y-125802571D01*
X150222857Y-125826761D01*
X150126095Y-125850952D01*
X150053523Y-125850952D01*
X149956761Y-125826761D01*
X149908380Y-125802571D01*
X149860000Y-125754190D01*
X149835809Y-125681619D01*
X149835809Y-125633238D01*
X149860000Y-125560666D01*
X149884190Y-125536476D01*
X149835809Y-125173619D02*
X150198666Y-125173619D01*
X150271238Y-125197809D01*
X150319619Y-125246190D01*
X150343809Y-125318761D01*
X150343809Y-125367142D01*
X150343809Y-124689809D02*
X150343809Y-124931714D01*
X149835809Y-124931714D01*
X150295428Y-124230190D02*
X150319619Y-124254380D01*
X150343809Y-124326952D01*
X150343809Y-124375333D01*
X150319619Y-124447904D01*
X150271238Y-124496285D01*
X150222857Y-124520476D01*
X150126095Y-124544666D01*
X150053523Y-124544666D01*
X149956761Y-124520476D01*
X149908380Y-124496285D01*
X149860000Y-124447904D01*
X149835809Y-124375333D01*
X149835809Y-124326952D01*
X149860000Y-124254380D01*
X149884190Y-124230190D01*
X124534688Y-100535619D02*
X124607259Y-100559809D01*
X124728211Y-100559809D01*
X124776592Y-100535619D01*
X124800783Y-100511428D01*
X124824973Y-100463047D01*
X124824973Y-100414666D01*
X124800783Y-100366285D01*
X124776592Y-100342095D01*
X124728211Y-100317904D01*
X124631450Y-100293714D01*
X124583069Y-100269523D01*
X124558878Y-100245333D01*
X124534688Y-100196952D01*
X124534688Y-100148571D01*
X124558878Y-100100190D01*
X124583069Y-100076000D01*
X124631450Y-100051809D01*
X124752402Y-100051809D01*
X124824973Y-100076000D01*
X124970116Y-100051809D02*
X125260402Y-100051809D01*
X125115259Y-100559809D02*
X125115259Y-100051809D01*
X125357164Y-100051809D02*
X125647450Y-100051809D01*
X125502307Y-100559809D02*
X125502307Y-100051809D01*
X125816783Y-100559809D02*
X125816783Y-100051809D01*
X125816783Y-100293714D02*
X126107069Y-100293714D01*
X126107069Y-100559809D02*
X126107069Y-100051809D01*
X126324783Y-100100190D02*
X126348973Y-100076000D01*
X126397354Y-100051809D01*
X126518307Y-100051809D01*
X126566688Y-100076000D01*
X126590878Y-100100190D01*
X126615069Y-100148571D01*
X126615069Y-100196952D01*
X126590878Y-100269523D01*
X126300592Y-100559809D01*
X126615069Y-100559809D01*
X127123069Y-100559809D02*
X126953735Y-100317904D01*
X126832783Y-100559809D02*
X126832783Y-100051809D01*
X127026307Y-100051809D01*
X127074688Y-100076000D01*
X127098878Y-100100190D01*
X127123069Y-100148571D01*
X127123069Y-100221142D01*
X127098878Y-100269523D01*
X127074688Y-100293714D01*
X127026307Y-100317904D01*
X126832783Y-100317904D01*
X127437545Y-100051809D02*
X127485926Y-100051809D01*
X127534307Y-100076000D01*
X127558497Y-100100190D01*
X127582688Y-100148571D01*
X127606878Y-100245333D01*
X127606878Y-100366285D01*
X127582688Y-100463047D01*
X127558497Y-100511428D01*
X127534307Y-100535619D01*
X127485926Y-100559809D01*
X127437545Y-100559809D01*
X127389164Y-100535619D01*
X127364973Y-100511428D01*
X127340783Y-100463047D01*
X127316592Y-100366285D01*
X127316592Y-100245333D01*
X127340783Y-100148571D01*
X127364973Y-100100190D01*
X127389164Y-100076000D01*
X127437545Y-100051809D01*
X128042307Y-100051809D02*
X127945545Y-100051809D01*
X127897164Y-100076000D01*
X127872973Y-100100190D01*
X127824592Y-100172761D01*
X127800402Y-100269523D01*
X127800402Y-100463047D01*
X127824592Y-100511428D01*
X127848783Y-100535619D01*
X127897164Y-100559809D01*
X127993926Y-100559809D01*
X128042307Y-100535619D01*
X128066497Y-100511428D01*
X128090688Y-100463047D01*
X128090688Y-100342095D01*
X128066497Y-100293714D01*
X128042307Y-100269523D01*
X127993926Y-100245333D01*
X127897164Y-100245333D01*
X127848783Y-100269523D01*
X127824592Y-100293714D01*
X127800402Y-100342095D01*
X125427619Y-70055619D02*
X125500190Y-70079809D01*
X125621142Y-70079809D01*
X125669523Y-70055619D01*
X125693714Y-70031428D01*
X125717904Y-69983047D01*
X125717904Y-69934666D01*
X125693714Y-69886285D01*
X125669523Y-69862095D01*
X125621142Y-69837904D01*
X125524380Y-69813714D01*
X125476000Y-69789523D01*
X125451809Y-69765333D01*
X125427619Y-69716952D01*
X125427619Y-69668571D01*
X125451809Y-69620190D01*
X125476000Y-69596000D01*
X125524380Y-69571809D01*
X125645333Y-69571809D01*
X125717904Y-69596000D01*
X125935619Y-69813714D02*
X126104952Y-69813714D01*
X126177523Y-70079809D02*
X125935619Y-70079809D01*
X125935619Y-69571809D01*
X126177523Y-69571809D01*
X126395238Y-70079809D02*
X126395238Y-69571809D01*
X126685523Y-70079809D01*
X126685523Y-69571809D01*
X126903238Y-70055619D02*
X126975809Y-70079809D01*
X127096761Y-70079809D01*
X127145142Y-70055619D01*
X127169333Y-70031428D01*
X127193523Y-69983047D01*
X127193523Y-69934666D01*
X127169333Y-69886285D01*
X127145142Y-69862095D01*
X127096761Y-69837904D01*
X127000000Y-69813714D01*
X126951619Y-69789523D01*
X126927428Y-69765333D01*
X126903238Y-69716952D01*
X126903238Y-69668571D01*
X126927428Y-69620190D01*
X126951619Y-69596000D01*
X127000000Y-69571809D01*
X127120952Y-69571809D01*
X127193523Y-69596000D01*
X127411238Y-69813714D02*
X127580571Y-69813714D01*
X127653142Y-70079809D02*
X127411238Y-70079809D01*
X127411238Y-69571809D01*
X127653142Y-69571809D01*
X128257904Y-69571809D02*
X128257904Y-69983047D01*
X128282095Y-70031428D01*
X128306285Y-70055619D01*
X128354666Y-70079809D01*
X128451428Y-70079809D01*
X128499809Y-70055619D01*
X128524000Y-70031428D01*
X128548190Y-69983047D01*
X128548190Y-69571809D01*
X163503428Y-70055619D02*
X163576000Y-70079809D01*
X163696952Y-70079809D01*
X163745333Y-70055619D01*
X163769523Y-70031428D01*
X163793714Y-69983047D01*
X163793714Y-69934666D01*
X163769523Y-69886285D01*
X163745333Y-69862095D01*
X163696952Y-69837904D01*
X163600190Y-69813714D01*
X163551809Y-69789523D01*
X163527619Y-69765333D01*
X163503428Y-69716952D01*
X163503428Y-69668571D01*
X163527619Y-69620190D01*
X163551809Y-69596000D01*
X163600190Y-69571809D01*
X163721142Y-69571809D01*
X163793714Y-69596000D01*
X164011428Y-69813714D02*
X164180761Y-69813714D01*
X164253333Y-70079809D02*
X164011428Y-70079809D01*
X164011428Y-69571809D01*
X164253333Y-69571809D01*
X164471047Y-70079809D02*
X164471047Y-69571809D01*
X164761333Y-70079809D01*
X164761333Y-69571809D01*
X164979047Y-70055619D02*
X165051619Y-70079809D01*
X165172571Y-70079809D01*
X165220952Y-70055619D01*
X165245142Y-70031428D01*
X165269333Y-69983047D01*
X165269333Y-69934666D01*
X165245142Y-69886285D01*
X165220952Y-69862095D01*
X165172571Y-69837904D01*
X165075809Y-69813714D01*
X165027428Y-69789523D01*
X165003238Y-69765333D01*
X164979047Y-69716952D01*
X164979047Y-69668571D01*
X165003238Y-69620190D01*
X165027428Y-69596000D01*
X165075809Y-69571809D01*
X165196761Y-69571809D01*
X165269333Y-69596000D01*
X165487047Y-69813714D02*
X165656380Y-69813714D01*
X165728952Y-70079809D02*
X165487047Y-70079809D01*
X165487047Y-69571809D01*
X165728952Y-69571809D01*
X166285333Y-69571809D02*
X166406285Y-70079809D01*
X166503047Y-69716952D01*
X166599809Y-70079809D01*
X166720761Y-69571809D01*
X177122666Y-69571809D02*
X177292000Y-70079809D01*
X177461333Y-69571809D01*
X177920952Y-70031428D02*
X177896761Y-70055619D01*
X177824190Y-70079809D01*
X177775809Y-70079809D01*
X177703238Y-70055619D01*
X177654857Y-70007238D01*
X177630666Y-69958857D01*
X177606476Y-69862095D01*
X177606476Y-69789523D01*
X177630666Y-69692761D01*
X177654857Y-69644380D01*
X177703238Y-69596000D01*
X177775809Y-69571809D01*
X177824190Y-69571809D01*
X177896761Y-69596000D01*
X177920952Y-69620190D01*
X178428952Y-70031428D02*
X178404761Y-70055619D01*
X178332190Y-70079809D01*
X178283809Y-70079809D01*
X178211238Y-70055619D01*
X178162857Y-70007238D01*
X178138666Y-69958857D01*
X178114476Y-69862095D01*
X178114476Y-69789523D01*
X178138666Y-69692761D01*
X178162857Y-69644380D01*
X178211238Y-69596000D01*
X178283809Y-69571809D01*
X178332190Y-69571809D01*
X178404761Y-69596000D01*
X178428952Y-69620190D01*
X181317597Y-97003809D02*
X181027311Y-97003809D01*
X181172454Y-97003809D02*
X181172454Y-96495809D01*
X181124073Y-96568380D01*
X181075692Y-96616761D01*
X181027311Y-96640952D01*
X181632073Y-96495809D02*
X181680454Y-96495809D01*
X181728835Y-96520000D01*
X181753026Y-96544190D01*
X181777216Y-96592571D01*
X181801407Y-96689333D01*
X181801407Y-96810285D01*
X181777216Y-96907047D01*
X181753026Y-96955428D01*
X181728835Y-96979619D01*
X181680454Y-97003809D01*
X181632073Y-97003809D01*
X181583692Y-96979619D01*
X181559502Y-96955428D01*
X181535311Y-96907047D01*
X181511121Y-96810285D01*
X181511121Y-96689333D01*
X181535311Y-96592571D01*
X181559502Y-96544190D01*
X181583692Y-96520000D01*
X181632073Y-96495809D01*
X182236835Y-96665142D02*
X182236835Y-97003809D01*
X182019121Y-96665142D02*
X182019121Y-96931238D01*
X182043311Y-96979619D01*
X182091692Y-97003809D01*
X182164264Y-97003809D01*
X182212645Y-96979619D01*
X182236835Y-96955428D01*
X182648073Y-96737714D02*
X182478740Y-96737714D01*
X182478740Y-97003809D02*
X182478740Y-96495809D01*
X182720645Y-96495809D01*
X164903238Y-142421809D02*
X164661333Y-142421809D01*
X164637142Y-142663714D01*
X164661333Y-142639523D01*
X164709714Y-142615333D01*
X164830666Y-142615333D01*
X164879047Y-142639523D01*
X164903238Y-142663714D01*
X164927428Y-142712095D01*
X164927428Y-142833047D01*
X164903238Y-142881428D01*
X164879047Y-142905619D01*
X164830666Y-142929809D01*
X164709714Y-142929809D01*
X164661333Y-142905619D01*
X164637142Y-142881428D01*
X165072571Y-142421809D02*
X165241904Y-142929809D01*
X165411238Y-142421809D01*
X188683597Y-85319809D02*
X188393311Y-85319809D01*
X188538454Y-85319809D02*
X188538454Y-84811809D01*
X188490073Y-84884380D01*
X188441692Y-84932761D01*
X188393311Y-84956952D01*
X188998073Y-84811809D02*
X189046454Y-84811809D01*
X189094835Y-84836000D01*
X189119026Y-84860190D01*
X189143216Y-84908571D01*
X189167407Y-85005333D01*
X189167407Y-85126285D01*
X189143216Y-85223047D01*
X189119026Y-85271428D01*
X189094835Y-85295619D01*
X189046454Y-85319809D01*
X188998073Y-85319809D01*
X188949692Y-85295619D01*
X188925502Y-85271428D01*
X188901311Y-85223047D01*
X188877121Y-85126285D01*
X188877121Y-85005333D01*
X188901311Y-84908571D01*
X188925502Y-84860190D01*
X188949692Y-84836000D01*
X188998073Y-84811809D01*
X189602835Y-84981142D02*
X189602835Y-85319809D01*
X189385121Y-84981142D02*
X189385121Y-85247238D01*
X189409311Y-85295619D01*
X189457692Y-85319809D01*
X189530264Y-85319809D01*
X189578645Y-85295619D01*
X189602835Y-85271428D01*
X190014073Y-85053714D02*
X189844740Y-85053714D01*
X189844740Y-85319809D02*
X189844740Y-84811809D01*
X190086645Y-84811809D01*
X163369597Y-126496000D02*
X163321216Y-126471809D01*
X163248645Y-126471809D01*
X163176073Y-126496000D01*
X163127692Y-126544380D01*
X163103502Y-126592761D01*
X163079311Y-126689523D01*
X163079311Y-126762095D01*
X163103502Y-126858857D01*
X163127692Y-126907238D01*
X163176073Y-126955619D01*
X163248645Y-126979809D01*
X163297026Y-126979809D01*
X163369597Y-126955619D01*
X163393788Y-126931428D01*
X163393788Y-126762095D01*
X163297026Y-126762095D01*
X163611502Y-126979809D02*
X163611502Y-126471809D01*
X163805026Y-126471809D01*
X163853407Y-126496000D01*
X163877597Y-126520190D01*
X163901788Y-126568571D01*
X163901788Y-126641142D01*
X163877597Y-126689523D01*
X163853407Y-126713714D01*
X163805026Y-126737904D01*
X163611502Y-126737904D01*
X164119502Y-126979809D02*
X164119502Y-126471809D01*
X164458169Y-126471809D02*
X164554930Y-126471809D01*
X164603311Y-126496000D01*
X164651692Y-126544380D01*
X164675883Y-126641142D01*
X164675883Y-126810476D01*
X164651692Y-126907238D01*
X164603311Y-126955619D01*
X164554930Y-126979809D01*
X164458169Y-126979809D01*
X164409788Y-126955619D01*
X164361407Y-126907238D01*
X164337216Y-126810476D01*
X164337216Y-126641142D01*
X164361407Y-126544380D01*
X164409788Y-126496000D01*
X164458169Y-126471809D01*
X165425788Y-127149142D02*
X165304835Y-127149142D01*
X165304835Y-126423428D01*
X165425788Y-126423428D01*
X165619311Y-126979809D02*
X165619311Y-126471809D01*
X165740264Y-126471809D01*
X165812835Y-126496000D01*
X165861216Y-126544380D01*
X165885407Y-126592761D01*
X165909597Y-126689523D01*
X165909597Y-126762095D01*
X165885407Y-126858857D01*
X165861216Y-126907238D01*
X165812835Y-126955619D01*
X165740264Y-126979809D01*
X165619311Y-126979809D01*
X166078930Y-126471809D02*
X166393407Y-126471809D01*
X166224073Y-126665333D01*
X166296645Y-126665333D01*
X166345026Y-126689523D01*
X166369216Y-126713714D01*
X166393407Y-126762095D01*
X166393407Y-126883047D01*
X166369216Y-126931428D01*
X166345026Y-126955619D01*
X166296645Y-126979809D01*
X166151502Y-126979809D01*
X166103121Y-126955619D01*
X166078930Y-126931428D01*
X166635311Y-126955619D02*
X166635311Y-126979809D01*
X166611121Y-127028190D01*
X166586930Y-127052380D01*
X167215883Y-126834666D02*
X167457788Y-126834666D01*
X167167502Y-126979809D02*
X167336835Y-126471809D01*
X167506169Y-126979809D01*
X167893216Y-126641142D02*
X167893216Y-126979809D01*
X167772264Y-126447619D02*
X167651311Y-126810476D01*
X167965788Y-126810476D01*
X168183502Y-126955619D02*
X168183502Y-126979809D01*
X168159311Y-127028190D01*
X168135121Y-127052380D01*
X168764073Y-126834666D02*
X169005978Y-126834666D01*
X168715692Y-126979809D02*
X168885026Y-126471809D01*
X169054359Y-126979809D01*
X169175311Y-126471809D02*
X169489788Y-126471809D01*
X169320454Y-126665333D01*
X169393026Y-126665333D01*
X169441407Y-126689523D01*
X169465597Y-126713714D01*
X169489788Y-126762095D01*
X169489788Y-126883047D01*
X169465597Y-126931428D01*
X169441407Y-126955619D01*
X169393026Y-126979809D01*
X169247883Y-126979809D01*
X169199502Y-126955619D01*
X169175311Y-126931428D01*
X169659121Y-127149142D02*
X169780073Y-127149142D01*
X169780073Y-126423428D01*
X169659121Y-126423428D01*
X149842095Y-146529809D02*
X149842095Y-146021809D01*
X149842095Y-146263714D02*
X150132380Y-146263714D01*
X150132380Y-146529809D02*
X150132380Y-146021809D01*
X150350095Y-146384666D02*
X150592000Y-146384666D01*
X150301714Y-146529809D02*
X150471047Y-146021809D01*
X150640380Y-146529809D01*
X151051619Y-146529809D02*
X150809714Y-146529809D01*
X150809714Y-146021809D01*
X151462857Y-146529809D02*
X151220952Y-146529809D01*
X151220952Y-146021809D01*
X151970857Y-146021809D02*
X152091809Y-146529809D01*
X152188571Y-146166952D01*
X152285333Y-146529809D01*
X152406285Y-146021809D01*
X144703238Y-146021809D02*
X144461333Y-146021809D01*
X144437142Y-146263714D01*
X144461333Y-146239523D01*
X144509714Y-146215333D01*
X144630666Y-146215333D01*
X144679047Y-146239523D01*
X144703238Y-146263714D01*
X144727428Y-146312095D01*
X144727428Y-146433047D01*
X144703238Y-146481428D01*
X144679047Y-146505619D01*
X144630666Y-146529809D01*
X144509714Y-146529809D01*
X144461333Y-146505619D01*
X144437142Y-146481428D01*
X144872571Y-146021809D02*
X145041904Y-146529809D01*
X145211238Y-146021809D01*
X123786597Y-109195809D02*
X123496311Y-109195809D01*
X123641454Y-109195809D02*
X123641454Y-108687809D01*
X123593073Y-108760380D01*
X123544692Y-108808761D01*
X123496311Y-108832952D01*
X124222026Y-108857142D02*
X124222026Y-109195809D01*
X124004311Y-108857142D02*
X124004311Y-109123238D01*
X124028502Y-109171619D01*
X124076883Y-109195809D01*
X124149454Y-109195809D01*
X124197835Y-109171619D01*
X124222026Y-109147428D01*
X124633264Y-108929714D02*
X124463930Y-108929714D01*
X124463930Y-109195809D02*
X124463930Y-108687809D01*
X124705835Y-108687809D01*
X135593788Y-105772488D02*
X135569597Y-105796679D01*
X135497026Y-105820869D01*
X135448645Y-105820869D01*
X135376073Y-105796679D01*
X135327692Y-105748298D01*
X135303502Y-105699917D01*
X135279311Y-105603155D01*
X135279311Y-105530583D01*
X135303502Y-105433821D01*
X135327692Y-105385440D01*
X135376073Y-105337060D01*
X135448645Y-105312869D01*
X135497026Y-105312869D01*
X135569597Y-105337060D01*
X135593788Y-105361250D01*
X135884073Y-105820869D02*
X135835692Y-105796679D01*
X135811502Y-105772488D01*
X135787311Y-105724107D01*
X135787311Y-105578964D01*
X135811502Y-105530583D01*
X135835692Y-105506393D01*
X135884073Y-105482202D01*
X135956645Y-105482202D01*
X136005026Y-105506393D01*
X136029216Y-105530583D01*
X136053407Y-105578964D01*
X136053407Y-105724107D01*
X136029216Y-105772488D01*
X136005026Y-105796679D01*
X135956645Y-105820869D01*
X135884073Y-105820869D01*
X136271121Y-105482202D02*
X136271121Y-105990202D01*
X136271121Y-105506393D02*
X136319502Y-105482202D01*
X136416264Y-105482202D01*
X136464645Y-105506393D01*
X136488835Y-105530583D01*
X136513026Y-105578964D01*
X136513026Y-105724107D01*
X136488835Y-105772488D01*
X136464645Y-105796679D01*
X136416264Y-105820869D01*
X136319502Y-105820869D01*
X136271121Y-105796679D01*
X136682359Y-105482202D02*
X136803311Y-105820869D01*
X136924264Y-105482202D02*
X136803311Y-105820869D01*
X136754930Y-105941821D01*
X136730740Y-105966012D01*
X136682359Y-105990202D01*
X137117788Y-105820869D02*
X137117788Y-105482202D01*
X137117788Y-105578964D02*
X137141978Y-105530583D01*
X137166169Y-105506393D01*
X137214550Y-105482202D01*
X137262930Y-105482202D01*
X137432264Y-105820869D02*
X137432264Y-105482202D01*
X137432264Y-105312869D02*
X137408073Y-105337060D01*
X137432264Y-105361250D01*
X137456454Y-105337060D01*
X137432264Y-105312869D01*
X137432264Y-105361250D01*
X137891883Y-105482202D02*
X137891883Y-105893440D01*
X137867692Y-105941821D01*
X137843502Y-105966012D01*
X137795121Y-105990202D01*
X137722550Y-105990202D01*
X137674169Y-105966012D01*
X137891883Y-105796679D02*
X137843502Y-105820869D01*
X137746740Y-105820869D01*
X137698359Y-105796679D01*
X137674169Y-105772488D01*
X137649978Y-105724107D01*
X137649978Y-105578964D01*
X137674169Y-105530583D01*
X137698359Y-105506393D01*
X137746740Y-105482202D01*
X137843502Y-105482202D01*
X137891883Y-105506393D01*
X138133788Y-105820869D02*
X138133788Y-105312869D01*
X138351502Y-105820869D02*
X138351502Y-105554774D01*
X138327311Y-105506393D01*
X138278930Y-105482202D01*
X138206359Y-105482202D01*
X138157978Y-105506393D01*
X138133788Y-105530583D01*
X138520835Y-105482202D02*
X138714359Y-105482202D01*
X138593407Y-105312869D02*
X138593407Y-105748298D01*
X138617597Y-105796679D01*
X138665978Y-105820869D01*
X138714359Y-105820869D01*
X139681978Y-105433821D02*
X139633597Y-105409631D01*
X139536835Y-105409631D01*
X139488454Y-105433821D01*
X139440073Y-105482202D01*
X139415883Y-105530583D01*
X139415883Y-105627345D01*
X139440073Y-105675726D01*
X139488454Y-105724107D01*
X139536835Y-105748298D01*
X139633597Y-105748298D01*
X139681978Y-105724107D01*
X139585216Y-105240298D02*
X139464264Y-105264488D01*
X139343311Y-105337060D01*
X139270740Y-105458012D01*
X139246550Y-105578964D01*
X139270740Y-105699917D01*
X139343311Y-105820869D01*
X139464264Y-105893440D01*
X139585216Y-105917631D01*
X139706169Y-105893440D01*
X139827121Y-105820869D01*
X139899692Y-105699917D01*
X139923883Y-105578964D01*
X139899692Y-105458012D01*
X139827121Y-105337060D01*
X139706169Y-105264488D01*
X139585216Y-105240298D01*
X140528645Y-105820869D02*
X140528645Y-105312869D01*
X140818930Y-105820869D01*
X140818930Y-105312869D01*
X141133407Y-105820869D02*
X141085026Y-105796679D01*
X141060835Y-105772488D01*
X141036645Y-105724107D01*
X141036645Y-105578964D01*
X141060835Y-105530583D01*
X141085026Y-105506393D01*
X141133407Y-105482202D01*
X141205978Y-105482202D01*
X141254359Y-105506393D01*
X141278550Y-105530583D01*
X141302740Y-105578964D01*
X141302740Y-105724107D01*
X141278550Y-105772488D01*
X141254359Y-105796679D01*
X141205978Y-105820869D01*
X141133407Y-105820869D01*
X141472073Y-105482202D02*
X141593026Y-105820869D01*
X141713978Y-105482202D01*
X142270359Y-105361250D02*
X142294550Y-105337060D01*
X142342930Y-105312869D01*
X142463883Y-105312869D01*
X142512264Y-105337060D01*
X142536454Y-105361250D01*
X142560645Y-105409631D01*
X142560645Y-105458012D01*
X142536454Y-105530583D01*
X142246169Y-105820869D01*
X142560645Y-105820869D01*
X142875121Y-105312869D02*
X142923502Y-105312869D01*
X142971883Y-105337060D01*
X142996073Y-105361250D01*
X143020264Y-105409631D01*
X143044454Y-105506393D01*
X143044454Y-105627345D01*
X143020264Y-105724107D01*
X142996073Y-105772488D01*
X142971883Y-105796679D01*
X142923502Y-105820869D01*
X142875121Y-105820869D01*
X142826740Y-105796679D01*
X142802550Y-105772488D01*
X142778359Y-105724107D01*
X142754169Y-105627345D01*
X142754169Y-105506393D01*
X142778359Y-105409631D01*
X142802550Y-105361250D01*
X142826740Y-105337060D01*
X142875121Y-105312869D01*
X143237978Y-105361250D02*
X143262169Y-105337060D01*
X143310550Y-105312869D01*
X143431502Y-105312869D01*
X143479883Y-105337060D01*
X143504073Y-105361250D01*
X143528264Y-105409631D01*
X143528264Y-105458012D01*
X143504073Y-105530583D01*
X143213788Y-105820869D01*
X143528264Y-105820869D01*
X143697597Y-105312869D02*
X144012073Y-105312869D01*
X143842740Y-105506393D01*
X143915311Y-105506393D01*
X143963692Y-105530583D01*
X143987883Y-105554774D01*
X144012073Y-105603155D01*
X144012073Y-105724107D01*
X143987883Y-105772488D01*
X143963692Y-105796679D01*
X143915311Y-105820869D01*
X143770169Y-105820869D01*
X143721788Y-105796679D01*
X143697597Y-105772488D01*
X144592645Y-105675726D02*
X144834550Y-105675726D01*
X144544264Y-105820869D02*
X144713597Y-105312869D01*
X144882930Y-105820869D01*
X145124835Y-105820869D02*
X145076454Y-105796679D01*
X145052264Y-105748298D01*
X145052264Y-105312869D01*
X145511883Y-105796679D02*
X145463502Y-105820869D01*
X145366740Y-105820869D01*
X145318359Y-105796679D01*
X145294169Y-105748298D01*
X145294169Y-105554774D01*
X145318359Y-105506393D01*
X145366740Y-105482202D01*
X145463502Y-105482202D01*
X145511883Y-105506393D01*
X145536073Y-105554774D01*
X145536073Y-105603155D01*
X145294169Y-105651536D01*
X145705407Y-105820869D02*
X145971502Y-105482202D01*
X145705407Y-105482202D02*
X145971502Y-105820869D01*
X146721407Y-105554774D02*
X146793978Y-105578964D01*
X146818169Y-105603155D01*
X146842359Y-105651536D01*
X146842359Y-105724107D01*
X146818169Y-105772488D01*
X146793978Y-105796679D01*
X146745597Y-105820869D01*
X146552073Y-105820869D01*
X146552073Y-105312869D01*
X146721407Y-105312869D01*
X146769788Y-105337060D01*
X146793978Y-105361250D01*
X146818169Y-105409631D01*
X146818169Y-105458012D01*
X146793978Y-105506393D01*
X146769788Y-105530583D01*
X146721407Y-105554774D01*
X146552073Y-105554774D01*
X147277788Y-105820869D02*
X147277788Y-105554774D01*
X147253597Y-105506393D01*
X147205216Y-105482202D01*
X147108454Y-105482202D01*
X147060073Y-105506393D01*
X147277788Y-105796679D02*
X147229407Y-105820869D01*
X147108454Y-105820869D01*
X147060073Y-105796679D01*
X147035883Y-105748298D01*
X147035883Y-105699917D01*
X147060073Y-105651536D01*
X147108454Y-105627345D01*
X147229407Y-105627345D01*
X147277788Y-105603155D01*
X147592264Y-105820869D02*
X147543883Y-105796679D01*
X147519692Y-105748298D01*
X147519692Y-105312869D01*
X148003502Y-105820869D02*
X148003502Y-105312869D01*
X148003502Y-105796679D02*
X147955121Y-105820869D01*
X147858359Y-105820869D01*
X147809978Y-105796679D01*
X147785788Y-105772488D01*
X147761597Y-105724107D01*
X147761597Y-105578964D01*
X147785788Y-105530583D01*
X147809978Y-105506393D01*
X147858359Y-105482202D01*
X147955121Y-105482202D01*
X148003502Y-105506393D01*
X148197026Y-105482202D02*
X148293788Y-105820869D01*
X148390550Y-105578964D01*
X148487311Y-105820869D01*
X148584073Y-105482202D01*
X148777597Y-105820869D02*
X148777597Y-105482202D01*
X148777597Y-105312869D02*
X148753407Y-105337060D01*
X148777597Y-105361250D01*
X148801788Y-105337060D01*
X148777597Y-105312869D01*
X148777597Y-105361250D01*
X149019502Y-105482202D02*
X149019502Y-105820869D01*
X149019502Y-105530583D02*
X149043692Y-105506393D01*
X149092073Y-105482202D01*
X149164645Y-105482202D01*
X149213026Y-105506393D01*
X149237216Y-105554774D01*
X149237216Y-105820869D01*
X149503311Y-105796679D02*
X149503311Y-105820869D01*
X149479121Y-105869250D01*
X149454930Y-105893440D01*
X150180645Y-105820869D02*
X150132264Y-105796679D01*
X150108073Y-105748298D01*
X150108073Y-105312869D01*
X150374169Y-105820869D02*
X150374169Y-105482202D01*
X150374169Y-105312869D02*
X150349978Y-105337060D01*
X150374169Y-105361250D01*
X150398359Y-105337060D01*
X150374169Y-105312869D01*
X150374169Y-105361250D01*
X150833788Y-105796679D02*
X150785407Y-105820869D01*
X150688645Y-105820869D01*
X150640264Y-105796679D01*
X150616073Y-105772488D01*
X150591883Y-105724107D01*
X150591883Y-105578964D01*
X150616073Y-105530583D01*
X150640264Y-105506393D01*
X150688645Y-105482202D01*
X150785407Y-105482202D01*
X150833788Y-105506393D01*
X151245026Y-105796679D02*
X151196645Y-105820869D01*
X151099883Y-105820869D01*
X151051502Y-105796679D01*
X151027311Y-105748298D01*
X151027311Y-105554774D01*
X151051502Y-105506393D01*
X151099883Y-105482202D01*
X151196645Y-105482202D01*
X151245026Y-105506393D01*
X151269216Y-105554774D01*
X151269216Y-105603155D01*
X151027311Y-105651536D01*
X151486930Y-105482202D02*
X151486930Y-105820869D01*
X151486930Y-105530583D02*
X151511121Y-105506393D01*
X151559502Y-105482202D01*
X151632073Y-105482202D01*
X151680454Y-105506393D01*
X151704645Y-105554774D01*
X151704645Y-105820869D01*
X152164264Y-105796679D02*
X152115883Y-105820869D01*
X152019121Y-105820869D01*
X151970740Y-105796679D01*
X151946550Y-105772488D01*
X151922359Y-105724107D01*
X151922359Y-105578964D01*
X151946550Y-105530583D01*
X151970740Y-105506393D01*
X152019121Y-105482202D01*
X152115883Y-105482202D01*
X152164264Y-105506393D01*
X152575502Y-105796679D02*
X152527121Y-105820869D01*
X152430359Y-105820869D01*
X152381978Y-105796679D01*
X152357788Y-105748298D01*
X152357788Y-105554774D01*
X152381978Y-105506393D01*
X152430359Y-105482202D01*
X152527121Y-105482202D01*
X152575502Y-105506393D01*
X152599692Y-105554774D01*
X152599692Y-105603155D01*
X152357788Y-105651536D01*
X153035121Y-105820869D02*
X153035121Y-105312869D01*
X153035121Y-105796679D02*
X152986740Y-105820869D01*
X152889978Y-105820869D01*
X152841597Y-105796679D01*
X152817407Y-105772488D01*
X152793216Y-105724107D01*
X152793216Y-105578964D01*
X152817407Y-105530583D01*
X152841597Y-105506393D01*
X152889978Y-105482202D01*
X152986740Y-105482202D01*
X153035121Y-105506393D01*
X153881788Y-105482202D02*
X153881788Y-105820869D01*
X153664073Y-105482202D02*
X153664073Y-105748298D01*
X153688264Y-105796679D01*
X153736645Y-105820869D01*
X153809216Y-105820869D01*
X153857597Y-105796679D01*
X153881788Y-105772488D01*
X154123692Y-105482202D02*
X154123692Y-105820869D01*
X154123692Y-105530583D02*
X154147883Y-105506393D01*
X154196264Y-105482202D01*
X154268835Y-105482202D01*
X154317216Y-105506393D01*
X154341407Y-105554774D01*
X154341407Y-105820869D01*
X154801026Y-105820869D02*
X154801026Y-105312869D01*
X154801026Y-105796679D02*
X154752645Y-105820869D01*
X154655883Y-105820869D01*
X154607502Y-105796679D01*
X154583311Y-105772488D01*
X154559121Y-105724107D01*
X154559121Y-105578964D01*
X154583311Y-105530583D01*
X154607502Y-105506393D01*
X154655883Y-105482202D01*
X154752645Y-105482202D01*
X154801026Y-105506393D01*
X155236454Y-105796679D02*
X155188073Y-105820869D01*
X155091311Y-105820869D01*
X155042930Y-105796679D01*
X155018740Y-105748298D01*
X155018740Y-105554774D01*
X155042930Y-105506393D01*
X155091311Y-105482202D01*
X155188073Y-105482202D01*
X155236454Y-105506393D01*
X155260645Y-105554774D01*
X155260645Y-105603155D01*
X155018740Y-105651536D01*
X155478359Y-105820869D02*
X155478359Y-105482202D01*
X155478359Y-105578964D02*
X155502550Y-105530583D01*
X155526740Y-105506393D01*
X155575121Y-105482202D01*
X155623502Y-105482202D01*
X135593788Y-106590368D02*
X135569597Y-106614559D01*
X135497026Y-106638749D01*
X135448645Y-106638749D01*
X135376073Y-106614559D01*
X135327692Y-106566178D01*
X135303502Y-106517797D01*
X135279311Y-106421035D01*
X135279311Y-106348463D01*
X135303502Y-106251701D01*
X135327692Y-106203320D01*
X135376073Y-106154940D01*
X135448645Y-106130749D01*
X135497026Y-106130749D01*
X135569597Y-106154940D01*
X135593788Y-106179130D01*
X135811502Y-106638749D02*
X135811502Y-106300082D01*
X135811502Y-106396844D02*
X135835692Y-106348463D01*
X135859883Y-106324273D01*
X135908264Y-106300082D01*
X135956645Y-106300082D01*
X136319502Y-106614559D02*
X136271121Y-106638749D01*
X136174359Y-106638749D01*
X136125978Y-106614559D01*
X136101788Y-106566178D01*
X136101788Y-106372654D01*
X136125978Y-106324273D01*
X136174359Y-106300082D01*
X136271121Y-106300082D01*
X136319502Y-106324273D01*
X136343692Y-106372654D01*
X136343692Y-106421035D01*
X136101788Y-106469416D01*
X136779121Y-106638749D02*
X136779121Y-106372654D01*
X136754930Y-106324273D01*
X136706550Y-106300082D01*
X136609788Y-106300082D01*
X136561407Y-106324273D01*
X136779121Y-106614559D02*
X136730740Y-106638749D01*
X136609788Y-106638749D01*
X136561407Y-106614559D01*
X136537216Y-106566178D01*
X136537216Y-106517797D01*
X136561407Y-106469416D01*
X136609788Y-106445225D01*
X136730740Y-106445225D01*
X136779121Y-106421035D01*
X136948454Y-106300082D02*
X137141978Y-106300082D01*
X137021026Y-106130749D02*
X137021026Y-106566178D01*
X137045216Y-106614559D01*
X137093597Y-106638749D01*
X137141978Y-106638749D01*
X137311311Y-106638749D02*
X137311311Y-106300082D01*
X137311311Y-106130749D02*
X137287121Y-106154940D01*
X137311311Y-106179130D01*
X137335502Y-106154940D01*
X137311311Y-106130749D01*
X137311311Y-106179130D01*
X137504835Y-106300082D02*
X137625788Y-106638749D01*
X137746740Y-106300082D01*
X138133788Y-106614559D02*
X138085407Y-106638749D01*
X137988645Y-106638749D01*
X137940264Y-106614559D01*
X137916073Y-106566178D01*
X137916073Y-106372654D01*
X137940264Y-106324273D01*
X137988645Y-106300082D01*
X138085407Y-106300082D01*
X138133788Y-106324273D01*
X138157978Y-106372654D01*
X138157978Y-106421035D01*
X137916073Y-106469416D01*
X139053026Y-106590368D02*
X139028835Y-106614559D01*
X138956264Y-106638749D01*
X138907883Y-106638749D01*
X138835311Y-106614559D01*
X138786930Y-106566178D01*
X138762740Y-106517797D01*
X138738550Y-106421035D01*
X138738550Y-106348463D01*
X138762740Y-106251701D01*
X138786930Y-106203320D01*
X138835311Y-106154940D01*
X138907883Y-106130749D01*
X138956264Y-106130749D01*
X139028835Y-106154940D01*
X139053026Y-106179130D01*
X139343311Y-106638749D02*
X139294930Y-106614559D01*
X139270740Y-106590368D01*
X139246550Y-106541987D01*
X139246550Y-106396844D01*
X139270740Y-106348463D01*
X139294930Y-106324273D01*
X139343311Y-106300082D01*
X139415883Y-106300082D01*
X139464264Y-106324273D01*
X139488454Y-106348463D01*
X139512645Y-106396844D01*
X139512645Y-106541987D01*
X139488454Y-106590368D01*
X139464264Y-106614559D01*
X139415883Y-106638749D01*
X139343311Y-106638749D01*
X139730359Y-106638749D02*
X139730359Y-106300082D01*
X139730359Y-106348463D02*
X139754550Y-106324273D01*
X139802930Y-106300082D01*
X139875502Y-106300082D01*
X139923883Y-106324273D01*
X139948073Y-106372654D01*
X139948073Y-106638749D01*
X139948073Y-106372654D02*
X139972264Y-106324273D01*
X140020645Y-106300082D01*
X140093216Y-106300082D01*
X140141597Y-106324273D01*
X140165788Y-106372654D01*
X140165788Y-106638749D01*
X140407692Y-106638749D02*
X140407692Y-106300082D01*
X140407692Y-106348463D02*
X140431883Y-106324273D01*
X140480264Y-106300082D01*
X140552835Y-106300082D01*
X140601216Y-106324273D01*
X140625407Y-106372654D01*
X140625407Y-106638749D01*
X140625407Y-106372654D02*
X140649597Y-106324273D01*
X140697978Y-106300082D01*
X140770550Y-106300082D01*
X140818930Y-106324273D01*
X140843121Y-106372654D01*
X140843121Y-106638749D01*
X141157597Y-106638749D02*
X141109216Y-106614559D01*
X141085026Y-106590368D01*
X141060835Y-106541987D01*
X141060835Y-106396844D01*
X141085026Y-106348463D01*
X141109216Y-106324273D01*
X141157597Y-106300082D01*
X141230169Y-106300082D01*
X141278550Y-106324273D01*
X141302740Y-106348463D01*
X141326930Y-106396844D01*
X141326930Y-106541987D01*
X141302740Y-106590368D01*
X141278550Y-106614559D01*
X141230169Y-106638749D01*
X141157597Y-106638749D01*
X141544645Y-106300082D02*
X141544645Y-106638749D01*
X141544645Y-106348463D02*
X141568835Y-106324273D01*
X141617216Y-106300082D01*
X141689788Y-106300082D01*
X141738169Y-106324273D01*
X141762359Y-106372654D01*
X141762359Y-106638749D01*
X141980073Y-106614559D02*
X142028454Y-106638749D01*
X142125216Y-106638749D01*
X142173597Y-106614559D01*
X142197788Y-106566178D01*
X142197788Y-106541987D01*
X142173597Y-106493606D01*
X142125216Y-106469416D01*
X142052645Y-106469416D01*
X142004264Y-106445225D01*
X141980073Y-106396844D01*
X141980073Y-106372654D01*
X142004264Y-106324273D01*
X142052645Y-106300082D01*
X142125216Y-106300082D01*
X142173597Y-106324273D01*
X142778359Y-106493606D02*
X143020264Y-106493606D01*
X142729978Y-106638749D02*
X142899311Y-106130749D01*
X143068645Y-106638749D01*
X143165407Y-106300082D02*
X143358930Y-106300082D01*
X143237978Y-106130749D02*
X143237978Y-106566178D01*
X143262169Y-106614559D01*
X143310550Y-106638749D01*
X143358930Y-106638749D01*
X143455692Y-106300082D02*
X143649216Y-106300082D01*
X143528264Y-106130749D02*
X143528264Y-106566178D01*
X143552454Y-106614559D01*
X143600835Y-106638749D01*
X143649216Y-106638749D01*
X143818550Y-106638749D02*
X143818550Y-106300082D01*
X143818550Y-106396844D02*
X143842740Y-106348463D01*
X143866930Y-106324273D01*
X143915311Y-106300082D01*
X143963692Y-106300082D01*
X144133026Y-106638749D02*
X144133026Y-106300082D01*
X144133026Y-106130749D02*
X144108835Y-106154940D01*
X144133026Y-106179130D01*
X144157216Y-106154940D01*
X144133026Y-106130749D01*
X144133026Y-106179130D01*
X144374930Y-106638749D02*
X144374930Y-106130749D01*
X144374930Y-106324273D02*
X144423311Y-106300082D01*
X144520073Y-106300082D01*
X144568454Y-106324273D01*
X144592645Y-106348463D01*
X144616835Y-106396844D01*
X144616835Y-106541987D01*
X144592645Y-106590368D01*
X144568454Y-106614559D01*
X144520073Y-106638749D01*
X144423311Y-106638749D01*
X144374930Y-106614559D01*
X145052264Y-106300082D02*
X145052264Y-106638749D01*
X144834550Y-106300082D02*
X144834550Y-106566178D01*
X144858740Y-106614559D01*
X144907121Y-106638749D01*
X144979692Y-106638749D01*
X145028073Y-106614559D01*
X145052264Y-106590368D01*
X145221597Y-106300082D02*
X145415121Y-106300082D01*
X145294169Y-106130749D02*
X145294169Y-106566178D01*
X145318359Y-106614559D01*
X145366740Y-106638749D01*
X145415121Y-106638749D01*
X145584454Y-106638749D02*
X145584454Y-106300082D01*
X145584454Y-106130749D02*
X145560264Y-106154940D01*
X145584454Y-106179130D01*
X145608645Y-106154940D01*
X145584454Y-106130749D01*
X145584454Y-106179130D01*
X145898930Y-106638749D02*
X145850550Y-106614559D01*
X145826359Y-106590368D01*
X145802169Y-106541987D01*
X145802169Y-106396844D01*
X145826359Y-106348463D01*
X145850550Y-106324273D01*
X145898930Y-106300082D01*
X145971502Y-106300082D01*
X146019883Y-106324273D01*
X146044073Y-106348463D01*
X146068264Y-106396844D01*
X146068264Y-106541987D01*
X146044073Y-106590368D01*
X146019883Y-106614559D01*
X145971502Y-106638749D01*
X145898930Y-106638749D01*
X146285978Y-106300082D02*
X146285978Y-106638749D01*
X146285978Y-106348463D02*
X146310169Y-106324273D01*
X146358550Y-106300082D01*
X146431121Y-106300082D01*
X146479502Y-106324273D01*
X146503692Y-106372654D01*
X146503692Y-106638749D01*
X146745597Y-106445225D02*
X147132645Y-106445225D01*
X147350359Y-106614559D02*
X147422930Y-106638749D01*
X147543883Y-106638749D01*
X147592264Y-106614559D01*
X147616454Y-106590368D01*
X147640645Y-106541987D01*
X147640645Y-106493606D01*
X147616454Y-106445225D01*
X147592264Y-106421035D01*
X147543883Y-106396844D01*
X147447121Y-106372654D01*
X147398740Y-106348463D01*
X147374550Y-106324273D01*
X147350359Y-106275892D01*
X147350359Y-106227511D01*
X147374550Y-106179130D01*
X147398740Y-106154940D01*
X147447121Y-106130749D01*
X147568073Y-106130749D01*
X147640645Y-106154940D01*
X147858359Y-106638749D02*
X147858359Y-106130749D01*
X148076073Y-106638749D02*
X148076073Y-106372654D01*
X148051883Y-106324273D01*
X148003502Y-106300082D01*
X147930930Y-106300082D01*
X147882550Y-106324273D01*
X147858359Y-106348463D01*
X148535692Y-106638749D02*
X148535692Y-106372654D01*
X148511502Y-106324273D01*
X148463121Y-106300082D01*
X148366359Y-106300082D01*
X148317978Y-106324273D01*
X148535692Y-106614559D02*
X148487311Y-106638749D01*
X148366359Y-106638749D01*
X148317978Y-106614559D01*
X148293788Y-106566178D01*
X148293788Y-106517797D01*
X148317978Y-106469416D01*
X148366359Y-106445225D01*
X148487311Y-106445225D01*
X148535692Y-106421035D01*
X148777597Y-106638749D02*
X148777597Y-106300082D01*
X148777597Y-106396844D02*
X148801788Y-106348463D01*
X148825978Y-106324273D01*
X148874359Y-106300082D01*
X148922740Y-106300082D01*
X149285597Y-106614559D02*
X149237216Y-106638749D01*
X149140454Y-106638749D01*
X149092073Y-106614559D01*
X149067883Y-106566178D01*
X149067883Y-106372654D01*
X149092073Y-106324273D01*
X149140454Y-106300082D01*
X149237216Y-106300082D01*
X149285597Y-106324273D01*
X149309788Y-106372654D01*
X149309788Y-106421035D01*
X149067883Y-106469416D01*
X149503311Y-106493606D02*
X149745216Y-106493606D01*
X149454930Y-106638749D02*
X149624264Y-106130749D01*
X149793597Y-106638749D01*
X150035502Y-106638749D02*
X149987121Y-106614559D01*
X149962930Y-106566178D01*
X149962930Y-106130749D01*
X150229026Y-106638749D02*
X150229026Y-106300082D01*
X150229026Y-106130749D02*
X150204835Y-106154940D01*
X150229026Y-106179130D01*
X150253216Y-106154940D01*
X150229026Y-106130749D01*
X150229026Y-106179130D01*
X150470930Y-106638749D02*
X150470930Y-106130749D01*
X150519311Y-106445225D02*
X150664454Y-106638749D01*
X150664454Y-106300082D02*
X150470930Y-106493606D01*
X151075692Y-106614559D02*
X151027311Y-106638749D01*
X150930550Y-106638749D01*
X150882169Y-106614559D01*
X150857978Y-106566178D01*
X150857978Y-106372654D01*
X150882169Y-106324273D01*
X150930550Y-106300082D01*
X151027311Y-106300082D01*
X151075692Y-106324273D01*
X151099883Y-106372654D01*
X151099883Y-106421035D01*
X150857978Y-106469416D01*
X151922359Y-106300082D02*
X151922359Y-106638749D01*
X151801407Y-106106559D02*
X151680454Y-106469416D01*
X151994930Y-106469416D01*
X152188454Y-106590368D02*
X152212645Y-106614559D01*
X152188454Y-106638749D01*
X152164264Y-106614559D01*
X152188454Y-106590368D01*
X152188454Y-106638749D01*
X152527121Y-106130749D02*
X152575502Y-106130749D01*
X152623883Y-106154940D01*
X152648073Y-106179130D01*
X152672264Y-106227511D01*
X152696454Y-106324273D01*
X152696454Y-106445225D01*
X152672264Y-106541987D01*
X152648073Y-106590368D01*
X152623883Y-106614559D01*
X152575502Y-106638749D01*
X152527121Y-106638749D01*
X152478740Y-106614559D01*
X152454550Y-106590368D01*
X152430359Y-106541987D01*
X152406169Y-106445225D01*
X152406169Y-106324273D01*
X152430359Y-106227511D01*
X152454550Y-106179130D01*
X152478740Y-106154940D01*
X152527121Y-106130749D01*
X153301216Y-106638749D02*
X153301216Y-106130749D01*
X153543121Y-106300082D02*
X153543121Y-106638749D01*
X153543121Y-106348463D02*
X153567311Y-106324273D01*
X153615692Y-106300082D01*
X153688264Y-106300082D01*
X153736645Y-106324273D01*
X153760835Y-106372654D01*
X153760835Y-106638749D01*
X153930169Y-106300082D02*
X154123692Y-106300082D01*
X154002740Y-106130749D02*
X154002740Y-106566178D01*
X154026930Y-106614559D01*
X154075311Y-106638749D01*
X154123692Y-106638749D01*
X154486550Y-106614559D02*
X154438169Y-106638749D01*
X154341407Y-106638749D01*
X154293026Y-106614559D01*
X154268835Y-106566178D01*
X154268835Y-106372654D01*
X154293026Y-106324273D01*
X154341407Y-106300082D01*
X154438169Y-106300082D01*
X154486550Y-106324273D01*
X154510740Y-106372654D01*
X154510740Y-106421035D01*
X154268835Y-106469416D01*
X154728454Y-106638749D02*
X154728454Y-106300082D01*
X154728454Y-106396844D02*
X154752645Y-106348463D01*
X154776835Y-106324273D01*
X154825216Y-106300082D01*
X154873597Y-106300082D01*
X155042930Y-106300082D02*
X155042930Y-106638749D01*
X155042930Y-106348463D02*
X155067121Y-106324273D01*
X155115502Y-106300082D01*
X155188073Y-106300082D01*
X155236454Y-106324273D01*
X155260645Y-106372654D01*
X155260645Y-106638749D01*
X155720264Y-106638749D02*
X155720264Y-106372654D01*
X155696073Y-106324273D01*
X155647692Y-106300082D01*
X155550930Y-106300082D01*
X155502550Y-106324273D01*
X155720264Y-106614559D02*
X155671883Y-106638749D01*
X155550930Y-106638749D01*
X155502550Y-106614559D01*
X155478359Y-106566178D01*
X155478359Y-106517797D01*
X155502550Y-106469416D01*
X155550930Y-106445225D01*
X155671883Y-106445225D01*
X155720264Y-106421035D01*
X155889597Y-106300082D02*
X156083121Y-106300082D01*
X155962169Y-106130749D02*
X155962169Y-106566178D01*
X155986359Y-106614559D01*
X156034740Y-106638749D01*
X156083121Y-106638749D01*
X156252454Y-106638749D02*
X156252454Y-106300082D01*
X156252454Y-106130749D02*
X156228264Y-106154940D01*
X156252454Y-106179130D01*
X156276645Y-106154940D01*
X156252454Y-106130749D01*
X156252454Y-106179130D01*
X156566930Y-106638749D02*
X156518550Y-106614559D01*
X156494359Y-106590368D01*
X156470169Y-106541987D01*
X156470169Y-106396844D01*
X156494359Y-106348463D01*
X156518550Y-106324273D01*
X156566930Y-106300082D01*
X156639502Y-106300082D01*
X156687883Y-106324273D01*
X156712073Y-106348463D01*
X156736264Y-106396844D01*
X156736264Y-106541987D01*
X156712073Y-106590368D01*
X156687883Y-106614559D01*
X156639502Y-106638749D01*
X156566930Y-106638749D01*
X156953978Y-106300082D02*
X156953978Y-106638749D01*
X156953978Y-106348463D02*
X156978169Y-106324273D01*
X157026550Y-106300082D01*
X157099121Y-106300082D01*
X157147502Y-106324273D01*
X157171692Y-106372654D01*
X157171692Y-106638749D01*
X157631311Y-106638749D02*
X157631311Y-106372654D01*
X157607121Y-106324273D01*
X157558740Y-106300082D01*
X157461978Y-106300082D01*
X157413597Y-106324273D01*
X157631311Y-106614559D02*
X157582930Y-106638749D01*
X157461978Y-106638749D01*
X157413597Y-106614559D01*
X157389407Y-106566178D01*
X157389407Y-106517797D01*
X157413597Y-106469416D01*
X157461978Y-106445225D01*
X157582930Y-106445225D01*
X157631311Y-106421035D01*
X157945788Y-106638749D02*
X157897407Y-106614559D01*
X157873216Y-106566178D01*
X157873216Y-106130749D01*
X167845619Y-92635311D02*
X167869809Y-92562740D01*
X167869809Y-92441788D01*
X167845619Y-92393407D01*
X167821428Y-92369216D01*
X167773047Y-92345026D01*
X167724666Y-92345026D01*
X167676285Y-92369216D01*
X167652095Y-92393407D01*
X167627904Y-92441788D01*
X167603714Y-92538550D01*
X167579523Y-92586930D01*
X167555333Y-92611121D01*
X167506952Y-92635311D01*
X167458571Y-92635311D01*
X167410190Y-92611121D01*
X167386000Y-92586930D01*
X167361809Y-92538550D01*
X167361809Y-92417597D01*
X167386000Y-92345026D01*
X167361809Y-92199883D02*
X167361809Y-91909597D01*
X167869809Y-92054740D02*
X167361809Y-92054740D01*
X167361809Y-91812835D02*
X167361809Y-91522550D01*
X167869809Y-91667692D02*
X167361809Y-91667692D01*
X167869809Y-91353216D02*
X167361809Y-91353216D01*
X167603714Y-91353216D02*
X167603714Y-91062930D01*
X167869809Y-91062930D02*
X167361809Y-91062930D01*
X167410190Y-90845216D02*
X167386000Y-90821026D01*
X167361809Y-90772645D01*
X167361809Y-90651692D01*
X167386000Y-90603311D01*
X167410190Y-90579121D01*
X167458571Y-90554930D01*
X167506952Y-90554930D01*
X167579523Y-90579121D01*
X167869809Y-90869407D01*
X167869809Y-90554930D01*
X167869809Y-90046930D02*
X167627904Y-90216264D01*
X167869809Y-90337216D02*
X167361809Y-90337216D01*
X167361809Y-90143692D01*
X167386000Y-90095311D01*
X167410190Y-90071121D01*
X167458571Y-90046930D01*
X167531142Y-90046930D01*
X167579523Y-90071121D01*
X167603714Y-90095311D01*
X167627904Y-90143692D01*
X167627904Y-90337216D01*
X167361809Y-89732454D02*
X167361809Y-89684073D01*
X167386000Y-89635692D01*
X167410190Y-89611502D01*
X167458571Y-89587311D01*
X167555333Y-89563121D01*
X167676285Y-89563121D01*
X167773047Y-89587311D01*
X167821428Y-89611502D01*
X167845619Y-89635692D01*
X167869809Y-89684073D01*
X167869809Y-89732454D01*
X167845619Y-89780835D01*
X167821428Y-89805026D01*
X167773047Y-89829216D01*
X167676285Y-89853407D01*
X167555333Y-89853407D01*
X167458571Y-89829216D01*
X167410190Y-89805026D01*
X167386000Y-89780835D01*
X167361809Y-89732454D01*
X167361809Y-89127692D02*
X167361809Y-89224454D01*
X167386000Y-89272835D01*
X167410190Y-89297026D01*
X167482761Y-89345407D01*
X167579523Y-89369597D01*
X167773047Y-89369597D01*
X167821428Y-89345407D01*
X167845619Y-89321216D01*
X167869809Y-89272835D01*
X167869809Y-89176073D01*
X167845619Y-89127692D01*
X167821428Y-89103502D01*
X167773047Y-89079311D01*
X167652095Y-89079311D01*
X167603714Y-89103502D01*
X167579523Y-89127692D01*
X167555333Y-89176073D01*
X167555333Y-89272835D01*
X167579523Y-89321216D01*
X167603714Y-89345407D01*
X167652095Y-89369597D01*
X119712619Y-118587761D02*
X119736809Y-118515190D01*
X119736809Y-118394238D01*
X119712619Y-118345857D01*
X119688428Y-118321666D01*
X119640047Y-118297476D01*
X119591666Y-118297476D01*
X119543285Y-118321666D01*
X119519095Y-118345857D01*
X119494904Y-118394238D01*
X119470714Y-118491000D01*
X119446523Y-118539380D01*
X119422333Y-118563571D01*
X119373952Y-118587761D01*
X119325571Y-118587761D01*
X119277190Y-118563571D01*
X119253000Y-118539380D01*
X119228809Y-118491000D01*
X119228809Y-118370047D01*
X119253000Y-118297476D01*
X119470714Y-117910428D02*
X119494904Y-117837857D01*
X119519095Y-117813666D01*
X119567476Y-117789476D01*
X119640047Y-117789476D01*
X119688428Y-117813666D01*
X119712619Y-117837857D01*
X119736809Y-117886238D01*
X119736809Y-118079761D01*
X119228809Y-118079761D01*
X119228809Y-117910428D01*
X119253000Y-117862047D01*
X119277190Y-117837857D01*
X119325571Y-117813666D01*
X119373952Y-117813666D01*
X119422333Y-117837857D01*
X119446523Y-117862047D01*
X119470714Y-117910428D01*
X119470714Y-118079761D01*
X119228809Y-117329857D02*
X119228809Y-117571761D01*
X119470714Y-117595952D01*
X119446523Y-117571761D01*
X119422333Y-117523380D01*
X119422333Y-117402428D01*
X119446523Y-117354047D01*
X119470714Y-117329857D01*
X119519095Y-117305666D01*
X119640047Y-117305666D01*
X119688428Y-117329857D01*
X119712619Y-117354047D01*
X119736809Y-117402428D01*
X119736809Y-117523380D01*
X119712619Y-117571761D01*
X119688428Y-117595952D01*
X119736809Y-116821857D02*
X119736809Y-117112142D01*
X119736809Y-116967000D02*
X119228809Y-116967000D01*
X119301380Y-117015380D01*
X119349761Y-117063761D01*
X119373952Y-117112142D01*
X119228809Y-116507380D02*
X119228809Y-116459000D01*
X119253000Y-116410619D01*
X119277190Y-116386428D01*
X119325571Y-116362238D01*
X119422333Y-116338047D01*
X119543285Y-116338047D01*
X119640047Y-116362238D01*
X119688428Y-116386428D01*
X119712619Y-116410619D01*
X119736809Y-116459000D01*
X119736809Y-116507380D01*
X119712619Y-116555761D01*
X119688428Y-116579952D01*
X119640047Y-116604142D01*
X119543285Y-116628333D01*
X119422333Y-116628333D01*
X119325571Y-116604142D01*
X119277190Y-116579952D01*
X119253000Y-116555761D01*
X119228809Y-116507380D01*
X119228809Y-116023571D02*
X119228809Y-115975190D01*
X119253000Y-115926809D01*
X119277190Y-115902619D01*
X119325571Y-115878428D01*
X119422333Y-115854238D01*
X119543285Y-115854238D01*
X119640047Y-115878428D01*
X119688428Y-115902619D01*
X119712619Y-115926809D01*
X119736809Y-115975190D01*
X119736809Y-116023571D01*
X119712619Y-116071952D01*
X119688428Y-116096142D01*
X119640047Y-116120333D01*
X119543285Y-116144523D01*
X119422333Y-116144523D01*
X119325571Y-116120333D01*
X119277190Y-116096142D01*
X119253000Y-116071952D01*
X119228809Y-116023571D01*
X119543285Y-115636523D02*
X119543285Y-115249476D01*
X119228809Y-115080142D02*
X119228809Y-114789857D01*
X119736809Y-114935000D02*
X119228809Y-114935000D01*
X137377714Y-70079809D02*
X137377714Y-69571809D01*
X137571238Y-69571809D01*
X137619619Y-69596000D01*
X137643809Y-69620190D01*
X137668000Y-69668571D01*
X137668000Y-69741142D01*
X137643809Y-69789523D01*
X137619619Y-69813714D01*
X137571238Y-69837904D01*
X137377714Y-69837904D01*
X137885714Y-69571809D02*
X137885714Y-69983047D01*
X137909904Y-70031428D01*
X137934095Y-70055619D01*
X137982476Y-70079809D01*
X138079238Y-70079809D01*
X138127619Y-70055619D01*
X138151809Y-70031428D01*
X138176000Y-69983047D01*
X138176000Y-69571809D01*
X138659809Y-70079809D02*
X138417904Y-70079809D01*
X138417904Y-69571809D01*
X139071047Y-70079809D02*
X138829142Y-70079809D01*
X138829142Y-69571809D01*
X139554857Y-69571809D02*
X139724190Y-70079809D01*
X139893523Y-69571809D01*
X140449904Y-70079809D02*
X140449904Y-69571809D01*
X140449904Y-69813714D02*
X140740190Y-69813714D01*
X140740190Y-70079809D02*
X140740190Y-69571809D01*
X140982095Y-70079809D02*
X140982095Y-69571809D01*
X141490095Y-69596000D02*
X141441714Y-69571809D01*
X141369142Y-69571809D01*
X141296571Y-69596000D01*
X141248190Y-69644380D01*
X141224000Y-69692761D01*
X141199809Y-69789523D01*
X141199809Y-69862095D01*
X141224000Y-69958857D01*
X141248190Y-70007238D01*
X141296571Y-70055619D01*
X141369142Y-70079809D01*
X141417523Y-70079809D01*
X141490095Y-70055619D01*
X141514285Y-70031428D01*
X141514285Y-69862095D01*
X141417523Y-69862095D01*
X141732000Y-70079809D02*
X141732000Y-69571809D01*
X141732000Y-69813714D02*
X142022285Y-69813714D01*
X142022285Y-70079809D02*
X142022285Y-69571809D01*
X169200285Y-70079809D02*
X169200285Y-69571809D01*
X169393809Y-69571809D01*
X169442190Y-69596000D01*
X169466380Y-69620190D01*
X169490571Y-69668571D01*
X169490571Y-69741142D01*
X169466380Y-69789523D01*
X169442190Y-69813714D01*
X169393809Y-69837904D01*
X169200285Y-69837904D01*
X169708285Y-69571809D02*
X169708285Y-69983047D01*
X169732476Y-70031428D01*
X169756666Y-70055619D01*
X169805047Y-70079809D01*
X169901809Y-70079809D01*
X169950190Y-70055619D01*
X169974380Y-70031428D01*
X169998571Y-69983047D01*
X169998571Y-69571809D01*
X170482380Y-70079809D02*
X170240476Y-70079809D01*
X170240476Y-69571809D01*
X170893619Y-70079809D02*
X170651714Y-70079809D01*
X170651714Y-69571809D01*
X171401619Y-69571809D02*
X171522571Y-70079809D01*
X171619333Y-69716952D01*
X171716095Y-70079809D01*
X171837047Y-69571809D01*
X172659523Y-70079809D02*
X172417619Y-70079809D01*
X172417619Y-69571809D01*
X172925619Y-69571809D02*
X173022380Y-69571809D01*
X173070761Y-69596000D01*
X173119142Y-69644380D01*
X173143333Y-69741142D01*
X173143333Y-69910476D01*
X173119142Y-70007238D01*
X173070761Y-70055619D01*
X173022380Y-70079809D01*
X172925619Y-70079809D01*
X172877238Y-70055619D01*
X172828857Y-70007238D01*
X172804666Y-69910476D01*
X172804666Y-69741142D01*
X172828857Y-69644380D01*
X172877238Y-69596000D01*
X172925619Y-69571809D01*
X173312666Y-69571809D02*
X173433619Y-70079809D01*
X173530380Y-69716952D01*
X173627142Y-70079809D01*
X173748095Y-69571809D01*
X168205619Y-142215121D02*
X168229809Y-142142550D01*
X168229809Y-142021597D01*
X168205619Y-141973216D01*
X168181428Y-141949026D01*
X168133047Y-141924835D01*
X168084666Y-141924835D01*
X168036285Y-141949026D01*
X168012095Y-141973216D01*
X167987904Y-142021597D01*
X167963714Y-142118359D01*
X167939523Y-142166740D01*
X167915333Y-142190930D01*
X167866952Y-142215121D01*
X167818571Y-142215121D01*
X167770190Y-142190930D01*
X167746000Y-142166740D01*
X167721809Y-142118359D01*
X167721809Y-141997407D01*
X167746000Y-141924835D01*
X168229809Y-141707121D02*
X167721809Y-141707121D01*
X167721809Y-141513597D01*
X167746000Y-141465216D01*
X167770190Y-141441026D01*
X167818571Y-141416835D01*
X167891142Y-141416835D01*
X167939523Y-141441026D01*
X167963714Y-141465216D01*
X167987904Y-141513597D01*
X167987904Y-141707121D01*
X168229809Y-141199121D02*
X167721809Y-141199121D01*
X168399142Y-140425026D02*
X168399142Y-140545978D01*
X167673428Y-140545978D01*
X167673428Y-140425026D01*
X168205619Y-140255692D02*
X168229809Y-140183121D01*
X168229809Y-140062169D01*
X168205619Y-140013788D01*
X168181428Y-139989597D01*
X168133047Y-139965407D01*
X168084666Y-139965407D01*
X168036285Y-139989597D01*
X168012095Y-140013788D01*
X167987904Y-140062169D01*
X167963714Y-140158930D01*
X167939523Y-140207311D01*
X167915333Y-140231502D01*
X167866952Y-140255692D01*
X167818571Y-140255692D01*
X167770190Y-140231502D01*
X167746000Y-140207311D01*
X167721809Y-140158930D01*
X167721809Y-140037978D01*
X167746000Y-139965407D01*
X168181428Y-139457407D02*
X168205619Y-139481597D01*
X168229809Y-139554169D01*
X168229809Y-139602550D01*
X168205619Y-139675121D01*
X168157238Y-139723502D01*
X168108857Y-139747692D01*
X168012095Y-139771883D01*
X167939523Y-139771883D01*
X167842761Y-139747692D01*
X167794380Y-139723502D01*
X167746000Y-139675121D01*
X167721809Y-139602550D01*
X167721809Y-139554169D01*
X167746000Y-139481597D01*
X167770190Y-139457407D01*
X168229809Y-139239692D02*
X167721809Y-139239692D01*
X168229809Y-138949407D02*
X167939523Y-139167121D01*
X167721809Y-138949407D02*
X168012095Y-139239692D01*
X168205619Y-138707502D02*
X168229809Y-138707502D01*
X168278190Y-138731692D01*
X168302380Y-138755883D01*
X168229809Y-138102740D02*
X167721809Y-138102740D01*
X168084666Y-137933407D01*
X167721809Y-137764073D01*
X168229809Y-137764073D01*
X168229809Y-137522169D02*
X167721809Y-137522169D01*
X168205619Y-137304454D02*
X168229809Y-137231883D01*
X168229809Y-137110930D01*
X168205619Y-137062550D01*
X168181428Y-137038359D01*
X168133047Y-137014169D01*
X168084666Y-137014169D01*
X168036285Y-137038359D01*
X168012095Y-137062550D01*
X167987904Y-137110930D01*
X167963714Y-137207692D01*
X167939523Y-137256073D01*
X167915333Y-137280264D01*
X167866952Y-137304454D01*
X167818571Y-137304454D01*
X167770190Y-137280264D01*
X167746000Y-137256073D01*
X167721809Y-137207692D01*
X167721809Y-137086740D01*
X167746000Y-137014169D01*
X167721809Y-136699692D02*
X167721809Y-136602930D01*
X167746000Y-136554550D01*
X167794380Y-136506169D01*
X167891142Y-136481978D01*
X168060476Y-136481978D01*
X168157238Y-136506169D01*
X168205619Y-136554550D01*
X168229809Y-136602930D01*
X168229809Y-136699692D01*
X168205619Y-136748073D01*
X168157238Y-136796454D01*
X168060476Y-136820645D01*
X167891142Y-136820645D01*
X167794380Y-136796454D01*
X167746000Y-136748073D01*
X167721809Y-136699692D01*
X168205619Y-136240073D02*
X168229809Y-136240073D01*
X168278190Y-136264264D01*
X168302380Y-136288454D01*
X168229809Y-135635311D02*
X167721809Y-135635311D01*
X168084666Y-135465978D01*
X167721809Y-135296645D01*
X168229809Y-135296645D01*
X167721809Y-134957978D02*
X167721809Y-134861216D01*
X167746000Y-134812835D01*
X167794380Y-134764454D01*
X167891142Y-134740264D01*
X168060476Y-134740264D01*
X168157238Y-134764454D01*
X168205619Y-134812835D01*
X168229809Y-134861216D01*
X168229809Y-134957978D01*
X168205619Y-135006359D01*
X168157238Y-135054740D01*
X168060476Y-135078930D01*
X167891142Y-135078930D01*
X167794380Y-135054740D01*
X167746000Y-135006359D01*
X167721809Y-134957978D01*
X168205619Y-134546740D02*
X168229809Y-134474169D01*
X168229809Y-134353216D01*
X168205619Y-134304835D01*
X168181428Y-134280645D01*
X168133047Y-134256454D01*
X168084666Y-134256454D01*
X168036285Y-134280645D01*
X168012095Y-134304835D01*
X167987904Y-134353216D01*
X167963714Y-134449978D01*
X167939523Y-134498359D01*
X167915333Y-134522550D01*
X167866952Y-134546740D01*
X167818571Y-134546740D01*
X167770190Y-134522550D01*
X167746000Y-134498359D01*
X167721809Y-134449978D01*
X167721809Y-134329026D01*
X167746000Y-134256454D01*
X168229809Y-134038740D02*
X167721809Y-134038740D01*
X168205619Y-133772645D02*
X168229809Y-133772645D01*
X168278190Y-133796835D01*
X168302380Y-133821026D01*
X168205619Y-133192073D02*
X168229809Y-133119502D01*
X168229809Y-132998550D01*
X168205619Y-132950169D01*
X168181428Y-132925978D01*
X168133047Y-132901788D01*
X168084666Y-132901788D01*
X168036285Y-132925978D01*
X168012095Y-132950169D01*
X167987904Y-132998550D01*
X167963714Y-133095311D01*
X167939523Y-133143692D01*
X167915333Y-133167883D01*
X167866952Y-133192073D01*
X167818571Y-133192073D01*
X167770190Y-133167883D01*
X167746000Y-133143692D01*
X167721809Y-133095311D01*
X167721809Y-132974359D01*
X167746000Y-132901788D01*
X168205619Y-132708264D02*
X168229809Y-132635692D01*
X168229809Y-132514740D01*
X168205619Y-132466359D01*
X168181428Y-132442169D01*
X168133047Y-132417978D01*
X168084666Y-132417978D01*
X168036285Y-132442169D01*
X168012095Y-132466359D01*
X167987904Y-132514740D01*
X167963714Y-132611502D01*
X167939523Y-132659883D01*
X167915333Y-132684073D01*
X167866952Y-132708264D01*
X167818571Y-132708264D01*
X167770190Y-132684073D01*
X167746000Y-132659883D01*
X167721809Y-132611502D01*
X167721809Y-132490550D01*
X167746000Y-132417978D01*
X168399142Y-132248645D02*
X168399142Y-132127692D01*
X167673428Y-132127692D01*
X167673428Y-132248645D01*
D10*
X135328928Y-107781304D02*
X135328928Y-107019304D01*
X135510357Y-107019304D01*
X135619214Y-107055590D01*
X135691785Y-107128161D01*
X135728071Y-107200732D01*
X135764357Y-107345875D01*
X135764357Y-107454732D01*
X135728071Y-107599875D01*
X135691785Y-107672447D01*
X135619214Y-107745018D01*
X135510357Y-107781304D01*
X135328928Y-107781304D01*
X136199785Y-107781304D02*
X136127214Y-107745018D01*
X136090928Y-107708732D01*
X136054642Y-107636161D01*
X136054642Y-107418447D01*
X136090928Y-107345875D01*
X136127214Y-107309590D01*
X136199785Y-107273304D01*
X136308642Y-107273304D01*
X136381214Y-107309590D01*
X136417500Y-107345875D01*
X136453785Y-107418447D01*
X136453785Y-107636161D01*
X136417500Y-107708732D01*
X136381214Y-107745018D01*
X136308642Y-107781304D01*
X136199785Y-107781304D01*
X137106928Y-107745018D02*
X137034357Y-107781304D01*
X136889214Y-107781304D01*
X136816642Y-107745018D01*
X136780357Y-107708732D01*
X136744071Y-107636161D01*
X136744071Y-107418447D01*
X136780357Y-107345875D01*
X136816642Y-107309590D01*
X136889214Y-107273304D01*
X137034357Y-107273304D01*
X137106928Y-107309590D01*
X137760071Y-107273304D02*
X137760071Y-107781304D01*
X137433500Y-107273304D02*
X137433500Y-107672447D01*
X137469785Y-107745018D01*
X137542357Y-107781304D01*
X137651214Y-107781304D01*
X137723785Y-107745018D01*
X137760071Y-107708732D01*
X138122928Y-107781304D02*
X138122928Y-107273304D01*
X138122928Y-107345875D02*
X138159214Y-107309590D01*
X138231785Y-107273304D01*
X138340642Y-107273304D01*
X138413214Y-107309590D01*
X138449500Y-107382161D01*
X138449500Y-107781304D01*
X138449500Y-107382161D02*
X138485785Y-107309590D01*
X138558357Y-107273304D01*
X138667214Y-107273304D01*
X138739785Y-107309590D01*
X138776071Y-107382161D01*
X138776071Y-107781304D01*
X139429214Y-107745018D02*
X139356642Y-107781304D01*
X139211500Y-107781304D01*
X139138928Y-107745018D01*
X139102642Y-107672447D01*
X139102642Y-107382161D01*
X139138928Y-107309590D01*
X139211500Y-107273304D01*
X139356642Y-107273304D01*
X139429214Y-107309590D01*
X139465500Y-107382161D01*
X139465500Y-107454732D01*
X139102642Y-107527304D01*
X139792071Y-107273304D02*
X139792071Y-107781304D01*
X139792071Y-107345875D02*
X139828357Y-107309590D01*
X139900928Y-107273304D01*
X140009785Y-107273304D01*
X140082357Y-107309590D01*
X140118642Y-107382161D01*
X140118642Y-107781304D01*
X140372642Y-107273304D02*
X140662928Y-107273304D01*
X140481500Y-107019304D02*
X140481500Y-107672447D01*
X140517785Y-107745018D01*
X140590357Y-107781304D01*
X140662928Y-107781304D01*
X141243500Y-107781304D02*
X141243500Y-107382161D01*
X141207214Y-107309590D01*
X141134642Y-107273304D01*
X140989500Y-107273304D01*
X140916928Y-107309590D01*
X141243500Y-107745018D02*
X141170928Y-107781304D01*
X140989500Y-107781304D01*
X140916928Y-107745018D01*
X140880642Y-107672447D01*
X140880642Y-107599875D01*
X140916928Y-107527304D01*
X140989500Y-107491018D01*
X141170928Y-107491018D01*
X141243500Y-107454732D01*
X141497500Y-107273304D02*
X141787785Y-107273304D01*
X141606357Y-107019304D02*
X141606357Y-107672447D01*
X141642642Y-107745018D01*
X141715214Y-107781304D01*
X141787785Y-107781304D01*
X142041785Y-107781304D02*
X142041785Y-107273304D01*
X142041785Y-107019304D02*
X142005500Y-107055590D01*
X142041785Y-107091875D01*
X142078071Y-107055590D01*
X142041785Y-107019304D01*
X142041785Y-107091875D01*
X142513500Y-107781304D02*
X142440928Y-107745018D01*
X142404642Y-107708732D01*
X142368357Y-107636161D01*
X142368357Y-107418447D01*
X142404642Y-107345875D01*
X142440928Y-107309590D01*
X142513500Y-107273304D01*
X142622357Y-107273304D01*
X142694928Y-107309590D01*
X142731214Y-107345875D01*
X142767500Y-107418447D01*
X142767500Y-107636161D01*
X142731214Y-107708732D01*
X142694928Y-107745018D01*
X142622357Y-107781304D01*
X142513500Y-107781304D01*
X143094071Y-107273304D02*
X143094071Y-107781304D01*
X143094071Y-107345875D02*
X143130357Y-107309590D01*
X143202928Y-107273304D01*
X143311785Y-107273304D01*
X143384357Y-107309590D01*
X143420642Y-107382161D01*
X143420642Y-107781304D01*
X144690642Y-107781304D02*
X144690642Y-107382161D01*
X144654357Y-107309590D01*
X144581785Y-107273304D01*
X144436642Y-107273304D01*
X144364071Y-107309590D01*
X144690642Y-107745018D02*
X144618071Y-107781304D01*
X144436642Y-107781304D01*
X144364071Y-107745018D01*
X144327785Y-107672447D01*
X144327785Y-107599875D01*
X144364071Y-107527304D01*
X144436642Y-107491018D01*
X144618071Y-107491018D01*
X144690642Y-107454732D01*
X145053500Y-107273304D02*
X145053500Y-107781304D01*
X145053500Y-107345875D02*
X145089785Y-107309590D01*
X145162357Y-107273304D01*
X145271214Y-107273304D01*
X145343785Y-107309590D01*
X145380071Y-107382161D01*
X145380071Y-107781304D01*
X146069500Y-107781304D02*
X146069500Y-107019304D01*
X146069500Y-107745018D02*
X145996928Y-107781304D01*
X145851785Y-107781304D01*
X145779214Y-107745018D01*
X145742928Y-107708732D01*
X145706642Y-107636161D01*
X145706642Y-107418447D01*
X145742928Y-107345875D01*
X145779214Y-107309590D01*
X145851785Y-107273304D01*
X145996928Y-107273304D01*
X146069500Y-107309590D01*
X147339500Y-107781304D02*
X147339500Y-107019304D01*
X147339500Y-107745018D02*
X147266928Y-107781304D01*
X147121785Y-107781304D01*
X147049214Y-107745018D01*
X147012928Y-107708732D01*
X146976642Y-107636161D01*
X146976642Y-107418447D01*
X147012928Y-107345875D01*
X147049214Y-107309590D01*
X147121785Y-107273304D01*
X147266928Y-107273304D01*
X147339500Y-107309590D01*
X147992642Y-107745018D02*
X147920071Y-107781304D01*
X147774928Y-107781304D01*
X147702357Y-107745018D01*
X147666071Y-107672447D01*
X147666071Y-107382161D01*
X147702357Y-107309590D01*
X147774928Y-107273304D01*
X147920071Y-107273304D01*
X147992642Y-107309590D01*
X148028928Y-107382161D01*
X148028928Y-107454732D01*
X147666071Y-107527304D01*
X148319214Y-107745018D02*
X148391785Y-107781304D01*
X148536928Y-107781304D01*
X148609500Y-107745018D01*
X148645785Y-107672447D01*
X148645785Y-107636161D01*
X148609500Y-107563590D01*
X148536928Y-107527304D01*
X148428071Y-107527304D01*
X148355500Y-107491018D01*
X148319214Y-107418447D01*
X148319214Y-107382161D01*
X148355500Y-107309590D01*
X148428071Y-107273304D01*
X148536928Y-107273304D01*
X148609500Y-107309590D01*
X148972357Y-107781304D02*
X148972357Y-107273304D01*
X148972357Y-107019304D02*
X148936071Y-107055590D01*
X148972357Y-107091875D01*
X149008642Y-107055590D01*
X148972357Y-107019304D01*
X148972357Y-107091875D01*
X149661785Y-107273304D02*
X149661785Y-107890161D01*
X149625500Y-107962732D01*
X149589214Y-107999018D01*
X149516642Y-108035304D01*
X149407785Y-108035304D01*
X149335214Y-107999018D01*
X149661785Y-107745018D02*
X149589214Y-107781304D01*
X149444071Y-107781304D01*
X149371500Y-107745018D01*
X149335214Y-107708732D01*
X149298928Y-107636161D01*
X149298928Y-107418447D01*
X149335214Y-107345875D01*
X149371500Y-107309590D01*
X149444071Y-107273304D01*
X149589214Y-107273304D01*
X149661785Y-107309590D01*
X150024642Y-107273304D02*
X150024642Y-107781304D01*
X150024642Y-107345875D02*
X150060928Y-107309590D01*
X150133500Y-107273304D01*
X150242357Y-107273304D01*
X150314928Y-107309590D01*
X150351214Y-107382161D01*
X150351214Y-107781304D01*
X151621214Y-107781304D02*
X151621214Y-107382161D01*
X151584928Y-107309590D01*
X151512357Y-107273304D01*
X151367214Y-107273304D01*
X151294642Y-107309590D01*
X151621214Y-107745018D02*
X151548642Y-107781304D01*
X151367214Y-107781304D01*
X151294642Y-107745018D01*
X151258357Y-107672447D01*
X151258357Y-107599875D01*
X151294642Y-107527304D01*
X151367214Y-107491018D01*
X151548642Y-107491018D01*
X151621214Y-107454732D01*
X151875214Y-107273304D02*
X152165500Y-107273304D01*
X151984071Y-107019304D02*
X151984071Y-107672447D01*
X152020357Y-107745018D01*
X152092928Y-107781304D01*
X152165500Y-107781304D01*
X135328928Y-109008124D02*
X135328928Y-108246124D01*
X135655500Y-109008124D02*
X135655500Y-108608981D01*
X135619214Y-108536410D01*
X135546642Y-108500124D01*
X135437785Y-108500124D01*
X135365214Y-108536410D01*
X135328928Y-108572695D01*
X135909500Y-108500124D02*
X136199785Y-108500124D01*
X136018357Y-108246124D02*
X136018357Y-108899267D01*
X136054642Y-108971838D01*
X136127214Y-109008124D01*
X136199785Y-109008124D01*
X136344928Y-108500124D02*
X136635214Y-108500124D01*
X136453785Y-108246124D02*
X136453785Y-108899267D01*
X136490071Y-108971838D01*
X136562642Y-109008124D01*
X136635214Y-109008124D01*
X136889214Y-108500124D02*
X136889214Y-109262124D01*
X136889214Y-108536410D02*
X136961785Y-108500124D01*
X137106928Y-108500124D01*
X137179500Y-108536410D01*
X137215785Y-108572695D01*
X137252071Y-108645267D01*
X137252071Y-108862981D01*
X137215785Y-108935552D01*
X137179500Y-108971838D01*
X137106928Y-109008124D01*
X136961785Y-109008124D01*
X136889214Y-108971838D01*
X137542357Y-108971838D02*
X137614928Y-109008124D01*
X137760071Y-109008124D01*
X137832642Y-108971838D01*
X137868928Y-108899267D01*
X137868928Y-108862981D01*
X137832642Y-108790410D01*
X137760071Y-108754124D01*
X137651214Y-108754124D01*
X137578642Y-108717838D01*
X137542357Y-108645267D01*
X137542357Y-108608981D01*
X137578642Y-108536410D01*
X137651214Y-108500124D01*
X137760071Y-108500124D01*
X137832642Y-108536410D01*
X138195500Y-108935552D02*
X138231785Y-108971838D01*
X138195500Y-109008124D01*
X138159214Y-108971838D01*
X138195500Y-108935552D01*
X138195500Y-109008124D01*
X138195500Y-108536410D02*
X138231785Y-108572695D01*
X138195500Y-108608981D01*
X138159214Y-108572695D01*
X138195500Y-108536410D01*
X138195500Y-108608981D01*
X139102642Y-108209838D02*
X138449500Y-109189552D01*
X139900928Y-108209838D02*
X139247785Y-109189552D01*
X140481500Y-109008124D02*
X140481500Y-108608981D01*
X140445214Y-108536410D01*
X140372642Y-108500124D01*
X140227500Y-108500124D01*
X140154928Y-108536410D01*
X140481500Y-108971838D02*
X140408928Y-109008124D01*
X140227500Y-109008124D01*
X140154928Y-108971838D01*
X140118642Y-108899267D01*
X140118642Y-108826695D01*
X140154928Y-108754124D01*
X140227500Y-108717838D01*
X140408928Y-108717838D01*
X140481500Y-108681552D01*
X140953214Y-109008124D02*
X140880642Y-108971838D01*
X140844357Y-108899267D01*
X140844357Y-108246124D01*
X141533785Y-108971838D02*
X141461214Y-109008124D01*
X141316071Y-109008124D01*
X141243500Y-108971838D01*
X141207214Y-108899267D01*
X141207214Y-108608981D01*
X141243500Y-108536410D01*
X141316071Y-108500124D01*
X141461214Y-108500124D01*
X141533785Y-108536410D01*
X141570071Y-108608981D01*
X141570071Y-108681552D01*
X141207214Y-108754124D01*
X141824071Y-109008124D02*
X142223214Y-108500124D01*
X141824071Y-108500124D02*
X142223214Y-109008124D01*
X142513500Y-109008124D02*
X142513500Y-108246124D01*
X142513500Y-108536410D02*
X142586071Y-108500124D01*
X142731214Y-108500124D01*
X142803785Y-108536410D01*
X142840071Y-108572695D01*
X142876357Y-108645267D01*
X142876357Y-108862981D01*
X142840071Y-108935552D01*
X142803785Y-108971838D01*
X142731214Y-109008124D01*
X142586071Y-109008124D01*
X142513500Y-108971838D01*
X143529500Y-109008124D02*
X143529500Y-108608981D01*
X143493214Y-108536410D01*
X143420642Y-108500124D01*
X143275500Y-108500124D01*
X143202928Y-108536410D01*
X143529500Y-108971838D02*
X143456928Y-109008124D01*
X143275500Y-109008124D01*
X143202928Y-108971838D01*
X143166642Y-108899267D01*
X143166642Y-108826695D01*
X143202928Y-108754124D01*
X143275500Y-108717838D01*
X143456928Y-108717838D01*
X143529500Y-108681552D01*
X144001214Y-109008124D02*
X143928642Y-108971838D01*
X143892357Y-108899267D01*
X143892357Y-108246124D01*
X144618071Y-109008124D02*
X144618071Y-108246124D01*
X144618071Y-108971838D02*
X144545500Y-109008124D01*
X144400357Y-109008124D01*
X144327785Y-108971838D01*
X144291500Y-108935552D01*
X144255214Y-108862981D01*
X144255214Y-108645267D01*
X144291500Y-108572695D01*
X144327785Y-108536410D01*
X144400357Y-108500124D01*
X144545500Y-108500124D01*
X144618071Y-108536410D01*
X144908357Y-108500124D02*
X145053500Y-109008124D01*
X145198642Y-108645267D01*
X145343785Y-109008124D01*
X145488928Y-108500124D01*
X145779214Y-109008124D02*
X145779214Y-108500124D01*
X145779214Y-108246124D02*
X145742928Y-108282410D01*
X145779214Y-108318695D01*
X145815500Y-108282410D01*
X145779214Y-108246124D01*
X145779214Y-108318695D01*
X146142071Y-108500124D02*
X146142071Y-109008124D01*
X146142071Y-108572695D02*
X146178357Y-108536410D01*
X146250928Y-108500124D01*
X146359785Y-108500124D01*
X146432357Y-108536410D01*
X146468642Y-108608981D01*
X146468642Y-109008124D01*
X146831500Y-108935552D02*
X146867785Y-108971838D01*
X146831500Y-109008124D01*
X146795214Y-108971838D01*
X146831500Y-108935552D01*
X146831500Y-109008124D01*
X147520928Y-109008124D02*
X147520928Y-108246124D01*
X147520928Y-108971838D02*
X147448357Y-109008124D01*
X147303214Y-109008124D01*
X147230642Y-108971838D01*
X147194357Y-108935552D01*
X147158071Y-108862981D01*
X147158071Y-108645267D01*
X147194357Y-108572695D01*
X147230642Y-108536410D01*
X147303214Y-108500124D01*
X147448357Y-108500124D01*
X147520928Y-108536410D01*
X148174071Y-108971838D02*
X148101500Y-109008124D01*
X147956357Y-109008124D01*
X147883785Y-108971838D01*
X147847500Y-108899267D01*
X147847500Y-108608981D01*
X147883785Y-108536410D01*
X147956357Y-108500124D01*
X148101500Y-108500124D01*
X148174071Y-108536410D01*
X148210357Y-108608981D01*
X148210357Y-108681552D01*
X147847500Y-108754124D01*
X148464357Y-108500124D02*
X148645785Y-109008124D01*
X148827214Y-108500124D01*
X149661785Y-108209838D02*
X149008642Y-109189552D01*
X149915785Y-109008124D02*
X149915785Y-108246124D01*
X150242357Y-109008124D02*
X150242357Y-108608981D01*
X150206071Y-108536410D01*
X150133500Y-108500124D01*
X150024642Y-108500124D01*
X149952071Y-108536410D01*
X149915785Y-108572695D01*
X150931785Y-109008124D02*
X150931785Y-108608981D01*
X150895500Y-108536410D01*
X150822928Y-108500124D01*
X150677785Y-108500124D01*
X150605214Y-108536410D01*
X150931785Y-108971838D02*
X150859214Y-109008124D01*
X150677785Y-109008124D01*
X150605214Y-108971838D01*
X150568928Y-108899267D01*
X150568928Y-108826695D01*
X150605214Y-108754124D01*
X150677785Y-108717838D01*
X150859214Y-108717838D01*
X150931785Y-108681552D01*
X151294642Y-109008124D02*
X151294642Y-108500124D01*
X151294642Y-108645267D02*
X151330928Y-108572695D01*
X151367214Y-108536410D01*
X151439785Y-108500124D01*
X151512357Y-108500124D01*
X152092928Y-109008124D02*
X152092928Y-108246124D01*
X152092928Y-108971838D02*
X152020357Y-109008124D01*
X151875214Y-109008124D01*
X151802642Y-108971838D01*
X151766357Y-108935552D01*
X151730071Y-108862981D01*
X151730071Y-108645267D01*
X151766357Y-108572695D01*
X151802642Y-108536410D01*
X151875214Y-108500124D01*
X152020357Y-108500124D01*
X152092928Y-108536410D01*
X152383214Y-108500124D02*
X152528357Y-109008124D01*
X152673500Y-108645267D01*
X152818642Y-109008124D01*
X152963785Y-108500124D01*
X153580642Y-109008124D02*
X153580642Y-108608981D01*
X153544357Y-108536410D01*
X153471785Y-108500124D01*
X153326642Y-108500124D01*
X153254071Y-108536410D01*
X153580642Y-108971838D02*
X153508071Y-109008124D01*
X153326642Y-109008124D01*
X153254071Y-108971838D01*
X153217785Y-108899267D01*
X153217785Y-108826695D01*
X153254071Y-108754124D01*
X153326642Y-108717838D01*
X153508071Y-108717838D01*
X153580642Y-108681552D01*
X153943500Y-109008124D02*
X153943500Y-108500124D01*
X153943500Y-108645267D02*
X153979785Y-108572695D01*
X154016071Y-108536410D01*
X154088642Y-108500124D01*
X154161214Y-108500124D01*
X154705500Y-108971838D02*
X154632928Y-109008124D01*
X154487785Y-109008124D01*
X154415214Y-108971838D01*
X154378928Y-108899267D01*
X154378928Y-108608981D01*
X154415214Y-108536410D01*
X154487785Y-108500124D01*
X154632928Y-108500124D01*
X154705500Y-108536410D01*
X154741785Y-108608981D01*
X154741785Y-108681552D01*
X154378928Y-108754124D01*
D12*
X182976761Y-69596000D02*
X182928380Y-69571809D01*
X182855809Y-69571809D01*
X182783238Y-69596000D01*
X182734857Y-69644380D01*
X182710666Y-69692761D01*
X182686476Y-69789523D01*
X182686476Y-69862095D01*
X182710666Y-69958857D01*
X182734857Y-70007238D01*
X182783238Y-70055619D01*
X182855809Y-70079809D01*
X182904190Y-70079809D01*
X182976761Y-70055619D01*
X183000952Y-70031428D01*
X183000952Y-69862095D01*
X182904190Y-69862095D01*
X183508952Y-70079809D02*
X183339619Y-69837904D01*
X183218666Y-70079809D02*
X183218666Y-69571809D01*
X183412190Y-69571809D01*
X183460571Y-69596000D01*
X183484761Y-69620190D01*
X183508952Y-69668571D01*
X183508952Y-69741142D01*
X183484761Y-69789523D01*
X183460571Y-69813714D01*
X183412190Y-69837904D01*
X183218666Y-69837904D01*
X183823428Y-69571809D02*
X183920190Y-69571809D01*
X183968571Y-69596000D01*
X184016952Y-69644380D01*
X184041142Y-69741142D01*
X184041142Y-69910476D01*
X184016952Y-70007238D01*
X183968571Y-70055619D01*
X183920190Y-70079809D01*
X183823428Y-70079809D01*
X183775047Y-70055619D01*
X183726666Y-70007238D01*
X183702476Y-69910476D01*
X183702476Y-69741142D01*
X183726666Y-69644380D01*
X183775047Y-69596000D01*
X183823428Y-69571809D01*
X184258857Y-69571809D02*
X184258857Y-69983047D01*
X184283047Y-70031428D01*
X184307238Y-70055619D01*
X184355619Y-70079809D01*
X184452380Y-70079809D01*
X184500761Y-70055619D01*
X184524952Y-70031428D01*
X184549142Y-69983047D01*
X184549142Y-69571809D01*
X184791047Y-70079809D02*
X184791047Y-69571809D01*
X185081333Y-70079809D01*
X185081333Y-69571809D01*
X185323238Y-70079809D02*
X185323238Y-69571809D01*
X185444190Y-69571809D01*
X185516761Y-69596000D01*
X185565142Y-69644380D01*
X185589333Y-69692761D01*
X185613523Y-69789523D01*
X185613523Y-69862095D01*
X185589333Y-69958857D01*
X185565142Y-70007238D01*
X185516761Y-70055619D01*
X185444190Y-70079809D01*
X185323238Y-70079809D01*
X130390597Y-120117809D02*
X130100311Y-120117809D01*
X130245454Y-120117809D02*
X130245454Y-119609809D01*
X130197073Y-119682380D01*
X130148692Y-119730761D01*
X130100311Y-119754952D01*
X130705073Y-119609809D02*
X130753454Y-119609809D01*
X130801835Y-119634000D01*
X130826026Y-119658190D01*
X130850216Y-119706571D01*
X130874407Y-119803333D01*
X130874407Y-119924285D01*
X130850216Y-120021047D01*
X130826026Y-120069428D01*
X130801835Y-120093619D01*
X130753454Y-120117809D01*
X130705073Y-120117809D01*
X130656692Y-120093619D01*
X130632502Y-120069428D01*
X130608311Y-120021047D01*
X130584121Y-119924285D01*
X130584121Y-119803333D01*
X130608311Y-119706571D01*
X130632502Y-119658190D01*
X130656692Y-119634000D01*
X130705073Y-119609809D01*
X131188883Y-119609809D02*
X131237264Y-119609809D01*
X131285645Y-119634000D01*
X131309835Y-119658190D01*
X131334026Y-119706571D01*
X131358216Y-119803333D01*
X131358216Y-119924285D01*
X131334026Y-120021047D01*
X131309835Y-120069428D01*
X131285645Y-120093619D01*
X131237264Y-120117809D01*
X131188883Y-120117809D01*
X131140502Y-120093619D01*
X131116311Y-120069428D01*
X131092121Y-120021047D01*
X131067930Y-119924285D01*
X131067930Y-119803333D01*
X131092121Y-119706571D01*
X131116311Y-119658190D01*
X131140502Y-119634000D01*
X131188883Y-119609809D01*
X131793645Y-119779142D02*
X131793645Y-120117809D01*
X131575930Y-119779142D02*
X131575930Y-120045238D01*
X131600121Y-120093619D01*
X131648502Y-120117809D01*
X131721073Y-120117809D01*
X131769454Y-120093619D01*
X131793645Y-120069428D01*
X132204883Y-119851714D02*
X132035550Y-119851714D01*
X132035550Y-120117809D02*
X132035550Y-119609809D01*
X132277454Y-119609809D01*
X131124476Y-70079809D02*
X131124476Y-69571809D01*
X131318000Y-69571809D01*
X131366380Y-69596000D01*
X131390571Y-69620190D01*
X131414761Y-69668571D01*
X131414761Y-69741142D01*
X131390571Y-69789523D01*
X131366380Y-69813714D01*
X131318000Y-69837904D01*
X131124476Y-69837904D01*
X131632476Y-69571809D02*
X131632476Y-69983047D01*
X131656666Y-70031428D01*
X131680857Y-70055619D01*
X131729238Y-70079809D01*
X131826000Y-70079809D01*
X131874380Y-70055619D01*
X131898571Y-70031428D01*
X131922761Y-69983047D01*
X131922761Y-69571809D01*
X132406571Y-70079809D02*
X132164666Y-70079809D01*
X132164666Y-69571809D01*
X132817809Y-70079809D02*
X132575904Y-70079809D01*
X132575904Y-69571809D01*
X133374190Y-69571809D02*
X133374190Y-69983047D01*
X133398380Y-70031428D01*
X133422571Y-70055619D01*
X133470952Y-70079809D01*
X133567714Y-70079809D01*
X133616095Y-70055619D01*
X133640285Y-70031428D01*
X133664476Y-69983047D01*
X133664476Y-69571809D01*
X134535333Y-70079809D02*
X134293428Y-70079809D01*
X134293428Y-69571809D01*
X134801428Y-69571809D02*
X134898190Y-69571809D01*
X134946571Y-69596000D01*
X134994952Y-69644380D01*
X135019142Y-69741142D01*
X135019142Y-69910476D01*
X134994952Y-70007238D01*
X134946571Y-70055619D01*
X134898190Y-70079809D01*
X134801428Y-70079809D01*
X134753047Y-70055619D01*
X134704666Y-70007238D01*
X134680476Y-69910476D01*
X134680476Y-69741142D01*
X134704666Y-69644380D01*
X134753047Y-69596000D01*
X134801428Y-69571809D01*
X135188476Y-69571809D02*
X135309428Y-70079809D01*
X135406190Y-69716952D01*
X135502952Y-70079809D01*
X135623904Y-69571809D01*
X161685523Y-137829809D02*
X161395238Y-137829809D01*
X161540380Y-137829809D02*
X161540380Y-137321809D01*
X161492000Y-137394380D01*
X161443619Y-137442761D01*
X161395238Y-137466952D01*
X161879047Y-137370190D02*
X161903238Y-137346000D01*
X161951619Y-137321809D01*
X162072571Y-137321809D01*
X162120952Y-137346000D01*
X162145142Y-137370190D01*
X162169333Y-137418571D01*
X162169333Y-137466952D01*
X162145142Y-137539523D01*
X161854857Y-137829809D01*
X162169333Y-137829809D01*
X162314476Y-137321809D02*
X162483809Y-137829809D01*
X162653142Y-137321809D01*
X158612952Y-142346000D02*
X158564571Y-142321809D01*
X158492000Y-142321809D01*
X158419428Y-142346000D01*
X158371047Y-142394380D01*
X158346857Y-142442761D01*
X158322666Y-142539523D01*
X158322666Y-142612095D01*
X158346857Y-142708857D01*
X158371047Y-142757238D01*
X158419428Y-142805619D01*
X158492000Y-142829809D01*
X158540380Y-142829809D01*
X158612952Y-142805619D01*
X158637142Y-142781428D01*
X158637142Y-142612095D01*
X158540380Y-142612095D01*
X158854857Y-142829809D02*
X158854857Y-142321809D01*
X159145142Y-142829809D01*
X159145142Y-142321809D01*
X159387047Y-142829809D02*
X159387047Y-142321809D01*
X159508000Y-142321809D01*
X159580571Y-142346000D01*
X159628952Y-142394380D01*
X159653142Y-142442761D01*
X159677333Y-142539523D01*
X159677333Y-142612095D01*
X159653142Y-142708857D01*
X159628952Y-142757238D01*
X159580571Y-142805619D01*
X159508000Y-142829809D01*
X159387047Y-142829809D01*
X149866285Y-140229809D02*
X149866285Y-139721809D01*
X149866285Y-139963714D02*
X150156571Y-139963714D01*
X150156571Y-140229809D02*
X150156571Y-139721809D01*
X150374285Y-140084666D02*
X150616190Y-140084666D01*
X150325904Y-140229809D02*
X150495238Y-139721809D01*
X150664571Y-140229809D01*
X151075809Y-140229809D02*
X150833904Y-140229809D01*
X150833904Y-139721809D01*
X151487047Y-140229809D02*
X151245142Y-140229809D01*
X151245142Y-139721809D01*
X152043428Y-139721809D02*
X152043428Y-140133047D01*
X152067619Y-140181428D01*
X152091809Y-140205619D01*
X152140190Y-140229809D01*
X152236952Y-140229809D01*
X152285333Y-140205619D01*
X152309523Y-140181428D01*
X152333714Y-140133047D01*
X152333714Y-139721809D01*
X150222857Y-70079809D02*
X150222857Y-69571809D01*
X150416380Y-69571809D01*
X150464761Y-69596000D01*
X150488952Y-69620190D01*
X150513142Y-69668571D01*
X150513142Y-69741142D01*
X150488952Y-69789523D01*
X150464761Y-69813714D01*
X150416380Y-69837904D01*
X150222857Y-69837904D01*
X150730857Y-69571809D02*
X150730857Y-69983047D01*
X150755047Y-70031428D01*
X150779238Y-70055619D01*
X150827619Y-70079809D01*
X150924380Y-70079809D01*
X150972761Y-70055619D01*
X150996952Y-70031428D01*
X151021142Y-69983047D01*
X151021142Y-69571809D01*
X151504952Y-70079809D02*
X151263047Y-70079809D01*
X151263047Y-69571809D01*
X151916190Y-70079809D02*
X151674285Y-70079809D01*
X151674285Y-69571809D01*
X152400000Y-69571809D02*
X152569333Y-70079809D01*
X152738666Y-69571809D01*
X153536952Y-70079809D02*
X153295047Y-70079809D01*
X153295047Y-69571809D01*
X153803047Y-69571809D02*
X153899809Y-69571809D01*
X153948190Y-69596000D01*
X153996571Y-69644380D01*
X154020761Y-69741142D01*
X154020761Y-69910476D01*
X153996571Y-70007238D01*
X153948190Y-70055619D01*
X153899809Y-70079809D01*
X153803047Y-70079809D01*
X153754666Y-70055619D01*
X153706285Y-70007238D01*
X153682095Y-69910476D01*
X153682095Y-69741142D01*
X153706285Y-69644380D01*
X153754666Y-69596000D01*
X153803047Y-69571809D01*
X154190095Y-69571809D02*
X154311047Y-70079809D01*
X154407809Y-69716952D01*
X154504571Y-70079809D01*
X154625523Y-69571809D01*
X124895428Y-134341809D02*
X124605142Y-134341809D01*
X124750285Y-134341809D02*
X124750285Y-133833809D01*
X124701904Y-133906380D01*
X124653523Y-133954761D01*
X124605142Y-133978952D01*
X125209904Y-133833809D02*
X125258285Y-133833809D01*
X125306666Y-133858000D01*
X125330857Y-133882190D01*
X125355047Y-133930571D01*
X125379238Y-134027333D01*
X125379238Y-134148285D01*
X125355047Y-134245047D01*
X125330857Y-134293428D01*
X125306666Y-134317619D01*
X125258285Y-134341809D01*
X125209904Y-134341809D01*
X125161523Y-134317619D01*
X125137333Y-134293428D01*
X125113142Y-134245047D01*
X125088952Y-134148285D01*
X125088952Y-134027333D01*
X125113142Y-133930571D01*
X125137333Y-133882190D01*
X125161523Y-133858000D01*
X125209904Y-133833809D01*
X125693714Y-133833809D02*
X125742095Y-133833809D01*
X125790476Y-133858000D01*
X125814666Y-133882190D01*
X125838857Y-133930571D01*
X125863047Y-134027333D01*
X125863047Y-134148285D01*
X125838857Y-134245047D01*
X125814666Y-134293428D01*
X125790476Y-134317619D01*
X125742095Y-134341809D01*
X125693714Y-134341809D01*
X125645333Y-134317619D01*
X125621142Y-134293428D01*
X125596952Y-134245047D01*
X125572761Y-134148285D01*
X125572761Y-134027333D01*
X125596952Y-133930571D01*
X125621142Y-133882190D01*
X125645333Y-133858000D01*
X125693714Y-133833809D01*
X126298476Y-134003142D02*
X126298476Y-134341809D01*
X126080761Y-134003142D02*
X126080761Y-134269238D01*
X126104952Y-134317619D01*
X126153333Y-134341809D01*
X126225904Y-134341809D01*
X126274285Y-134317619D01*
X126298476Y-134293428D01*
X126540380Y-134341809D02*
X126540380Y-133833809D01*
X126540380Y-134075714D02*
X126830666Y-134075714D01*
X126830666Y-134341809D02*
X126830666Y-133833809D01*
X178777597Y-84049809D02*
X178487311Y-84049809D01*
X178632454Y-84049809D02*
X178632454Y-83541809D01*
X178584073Y-83614380D01*
X178535692Y-83662761D01*
X178487311Y-83686952D01*
X179092073Y-83541809D02*
X179140454Y-83541809D01*
X179188835Y-83566000D01*
X179213026Y-83590190D01*
X179237216Y-83638571D01*
X179261407Y-83735333D01*
X179261407Y-83856285D01*
X179237216Y-83953047D01*
X179213026Y-84001428D01*
X179188835Y-84025619D01*
X179140454Y-84049809D01*
X179092073Y-84049809D01*
X179043692Y-84025619D01*
X179019502Y-84001428D01*
X178995311Y-83953047D01*
X178971121Y-83856285D01*
X178971121Y-83735333D01*
X178995311Y-83638571D01*
X179019502Y-83590190D01*
X179043692Y-83566000D01*
X179092073Y-83541809D01*
X179696835Y-83711142D02*
X179696835Y-84049809D01*
X179479121Y-83711142D02*
X179479121Y-83977238D01*
X179503311Y-84025619D01*
X179551692Y-84049809D01*
X179624264Y-84049809D01*
X179672645Y-84025619D01*
X179696835Y-84001428D01*
X180108073Y-83783714D02*
X179938740Y-83783714D01*
X179938740Y-84049809D02*
X179938740Y-83541809D01*
X180180645Y-83541809D01*
X141762238Y-83033809D02*
X141471952Y-83033809D01*
X141617095Y-83033809D02*
X141617095Y-82525809D01*
X141568714Y-82598380D01*
X141520333Y-82646761D01*
X141471952Y-82670952D01*
X141979952Y-83033809D02*
X141979952Y-82525809D01*
X142028333Y-82840285D02*
X142173476Y-83033809D01*
X142173476Y-82695142D02*
X141979952Y-82888666D01*
X142367000Y-83033809D02*
X142487952Y-83033809D01*
X142487952Y-82937047D01*
X142439571Y-82912857D01*
X142391190Y-82864476D01*
X142367000Y-82791904D01*
X142367000Y-82670952D01*
X142391190Y-82598380D01*
X142439571Y-82550000D01*
X142512142Y-82525809D01*
X142608904Y-82525809D01*
X142681476Y-82550000D01*
X142729857Y-82598380D01*
X142754047Y-82670952D01*
X142754047Y-82791904D01*
X142729857Y-82864476D01*
X142681476Y-82912857D01*
X142633095Y-82937047D01*
X142633095Y-83033809D01*
X142754047Y-83033809D01*
D10*
%TO.C,U3*%
X165702380Y-99714404D02*
X166511904Y-99714404D01*
X166607142Y-99666785D01*
X166654761Y-99619166D01*
X166702380Y-99523928D01*
X166702380Y-99333452D01*
X166654761Y-99238214D01*
X166607142Y-99190595D01*
X166511904Y-99142976D01*
X165702380Y-99142976D01*
X165702380Y-98762023D02*
X165702380Y-98142976D01*
X166083333Y-98476309D01*
X166083333Y-98333452D01*
X166130952Y-98238214D01*
X166178571Y-98190595D01*
X166273809Y-98142976D01*
X166511904Y-98142976D01*
X166607142Y-98190595D01*
X166654761Y-98238214D01*
X166702380Y-98333452D01*
X166702380Y-98619166D01*
X166654761Y-98714404D01*
X166607142Y-98762023D01*
%TO.C,C5*%
X179215023Y-83161142D02*
X179167404Y-83208761D01*
X179024547Y-83256380D01*
X178929309Y-83256380D01*
X178786452Y-83208761D01*
X178691214Y-83113523D01*
X178643595Y-83018285D01*
X178595976Y-82827809D01*
X178595976Y-82684952D01*
X178643595Y-82494476D01*
X178691214Y-82399238D01*
X178786452Y-82304000D01*
X178929309Y-82256380D01*
X179024547Y-82256380D01*
X179167404Y-82304000D01*
X179215023Y-82351619D01*
X180119785Y-82256380D02*
X179643595Y-82256380D01*
X179595976Y-82732571D01*
X179643595Y-82684952D01*
X179738833Y-82637333D01*
X179976928Y-82637333D01*
X180072166Y-82684952D01*
X180119785Y-82732571D01*
X180167404Y-82827809D01*
X180167404Y-83065904D01*
X180119785Y-83161142D01*
X180072166Y-83208761D01*
X179976928Y-83256380D01*
X179738833Y-83256380D01*
X179643595Y-83208761D01*
X179595976Y-83161142D01*
%TO.C,C4*%
X181755023Y-96115142D02*
X181707404Y-96162761D01*
X181564547Y-96210380D01*
X181469309Y-96210380D01*
X181326452Y-96162761D01*
X181231214Y-96067523D01*
X181183595Y-95972285D01*
X181135976Y-95781809D01*
X181135976Y-95638952D01*
X181183595Y-95448476D01*
X181231214Y-95353238D01*
X181326452Y-95258000D01*
X181469309Y-95210380D01*
X181564547Y-95210380D01*
X181707404Y-95258000D01*
X181755023Y-95305619D01*
X182612166Y-95543714D02*
X182612166Y-96210380D01*
X182374071Y-95162761D02*
X182135976Y-95877047D01*
X182755023Y-95877047D01*
%TO.C,C6*%
X189121023Y-84431142D02*
X189073404Y-84478761D01*
X188930547Y-84526380D01*
X188835309Y-84526380D01*
X188692452Y-84478761D01*
X188597214Y-84383523D01*
X188549595Y-84288285D01*
X188501976Y-84097809D01*
X188501976Y-83954952D01*
X188549595Y-83764476D01*
X188597214Y-83669238D01*
X188692452Y-83574000D01*
X188835309Y-83526380D01*
X188930547Y-83526380D01*
X189073404Y-83574000D01*
X189121023Y-83621619D01*
X189978166Y-83526380D02*
X189787690Y-83526380D01*
X189692452Y-83574000D01*
X189644833Y-83621619D01*
X189549595Y-83764476D01*
X189501976Y-83954952D01*
X189501976Y-84335904D01*
X189549595Y-84431142D01*
X189597214Y-84478761D01*
X189692452Y-84526380D01*
X189882928Y-84526380D01*
X189978166Y-84478761D01*
X190025785Y-84431142D01*
X190073404Y-84335904D01*
X190073404Y-84097809D01*
X190025785Y-84002571D01*
X189978166Y-83954952D01*
X189882928Y-83907333D01*
X189692452Y-83907333D01*
X189597214Y-83954952D01*
X189549595Y-84002571D01*
X189501976Y-84097809D01*
%TO.C,D3*%
X177109380Y-92628404D02*
X176109380Y-92628404D01*
X176109380Y-92390309D01*
X176157000Y-92247452D01*
X176252238Y-92152214D01*
X176347476Y-92104595D01*
X176537952Y-92056976D01*
X176680809Y-92056976D01*
X176871285Y-92104595D01*
X176966523Y-92152214D01*
X177061761Y-92247452D01*
X177109380Y-92390309D01*
X177109380Y-92628404D01*
X176109380Y-91723642D02*
X176109380Y-91104595D01*
X176490333Y-91437928D01*
X176490333Y-91295071D01*
X176537952Y-91199833D01*
X176585571Y-91152214D01*
X176680809Y-91104595D01*
X176918904Y-91104595D01*
X177014142Y-91152214D01*
X177061761Y-91199833D01*
X177109380Y-91295071D01*
X177109380Y-91580785D01*
X177061761Y-91676023D01*
X177014142Y-91723642D01*
X173807380Y-84081904D02*
X172807380Y-84081904D01*
X173807380Y-83510476D02*
X173235952Y-83939047D01*
X172807380Y-83510476D02*
X173378809Y-84081904D01*
%TO.C,C2*%
X114258833Y-78857142D02*
X114211214Y-78904761D01*
X114068357Y-78952380D01*
X113973119Y-78952380D01*
X113830261Y-78904761D01*
X113735023Y-78809523D01*
X113687404Y-78714285D01*
X113639785Y-78523809D01*
X113639785Y-78380952D01*
X113687404Y-78190476D01*
X113735023Y-78095238D01*
X113830261Y-78000000D01*
X113973119Y-77952380D01*
X114068357Y-77952380D01*
X114211214Y-78000000D01*
X114258833Y-78047619D01*
X114639785Y-78047619D02*
X114687404Y-78000000D01*
X114782642Y-77952380D01*
X115020738Y-77952380D01*
X115115976Y-78000000D01*
X115163595Y-78047619D01*
X115211214Y-78142857D01*
X115211214Y-78238095D01*
X115163595Y-78380952D01*
X114592166Y-78952380D01*
X115211214Y-78952380D01*
%TO.C,U1*%
X159952380Y-112059404D02*
X160761904Y-112059404D01*
X160857142Y-112011785D01*
X160904761Y-111964166D01*
X160952380Y-111868928D01*
X160952380Y-111678452D01*
X160904761Y-111583214D01*
X160857142Y-111535595D01*
X160761904Y-111487976D01*
X159952380Y-111487976D01*
X160952380Y-110487976D02*
X160952380Y-111059404D01*
X160952380Y-110773690D02*
X159952380Y-110773690D01*
X160095238Y-110868928D01*
X160190476Y-110964166D01*
X160238095Y-111059404D01*
%TO.C,R2*%
X142073333Y-82240380D02*
X141740000Y-81764190D01*
X141501904Y-82240380D02*
X141501904Y-81240380D01*
X141882857Y-81240380D01*
X141978095Y-81288000D01*
X142025714Y-81335619D01*
X142073333Y-81430857D01*
X142073333Y-81573714D01*
X142025714Y-81668952D01*
X141978095Y-81716571D01*
X141882857Y-81764190D01*
X141501904Y-81764190D01*
X142454285Y-81335619D02*
X142501904Y-81288000D01*
X142597142Y-81240380D01*
X142835238Y-81240380D01*
X142930476Y-81288000D01*
X142978095Y-81335619D01*
X143025714Y-81430857D01*
X143025714Y-81526095D01*
X142978095Y-81668952D01*
X142406666Y-82240380D01*
X143025714Y-82240380D01*
%TO.C,A1*%
X171066666Y-101614285D02*
X171066666Y-101138095D01*
X171352380Y-101709523D02*
X170352380Y-101376190D01*
X171352380Y-101042857D01*
X171352380Y-100185714D02*
X171352380Y-100757142D01*
X171352380Y-100471428D02*
X170352380Y-100471428D01*
X170495238Y-100566666D01*
X170590476Y-100661904D01*
X170638095Y-100757142D01*
%TO.C,R3*%
X155408333Y-82240380D02*
X155075000Y-81764190D01*
X154836904Y-82240380D02*
X154836904Y-81240380D01*
X155217857Y-81240380D01*
X155313095Y-81288000D01*
X155360714Y-81335619D01*
X155408333Y-81430857D01*
X155408333Y-81573714D01*
X155360714Y-81668952D01*
X155313095Y-81716571D01*
X155217857Y-81764190D01*
X154836904Y-81764190D01*
X155741666Y-81240380D02*
X156360714Y-81240380D01*
X156027380Y-81621333D01*
X156170238Y-81621333D01*
X156265476Y-81668952D01*
X156313095Y-81716571D01*
X156360714Y-81811809D01*
X156360714Y-82049904D01*
X156313095Y-82145142D01*
X156265476Y-82192761D01*
X156170238Y-82240380D01*
X155884523Y-82240380D01*
X155789285Y-82192761D01*
X155741666Y-82145142D01*
%TO.C,L1*%
X125563333Y-133294380D02*
X125087142Y-133294380D01*
X125087142Y-132294380D01*
X126420476Y-133294380D02*
X125849047Y-133294380D01*
X126134761Y-133294380D02*
X126134761Y-132294380D01*
X126039523Y-132437238D01*
X125944285Y-132532476D01*
X125849047Y-132580095D01*
%TO.C,J2*%
X166452380Y-133133333D02*
X167166666Y-133133333D01*
X167309523Y-133180952D01*
X167404761Y-133276190D01*
X167452380Y-133419047D01*
X167452380Y-133514285D01*
X166547619Y-132704761D02*
X166500000Y-132657142D01*
X166452380Y-132561904D01*
X166452380Y-132323809D01*
X166500000Y-132228571D01*
X166547619Y-132180952D01*
X166642857Y-132133333D01*
X166738095Y-132133333D01*
X166880952Y-132180952D01*
X167452380Y-132752380D01*
X167452380Y-132133333D01*
%TO.C,J1*%
X163416666Y-125202380D02*
X163416666Y-125916666D01*
X163369047Y-126059523D01*
X163273809Y-126154761D01*
X163130952Y-126202380D01*
X163035714Y-126202380D01*
X164416666Y-126202380D02*
X163845238Y-126202380D01*
X164130952Y-126202380D02*
X164130952Y-125202380D01*
X164035714Y-125345238D01*
X163940476Y-125440476D01*
X163845238Y-125488095D01*
%TO.C,D4*%
X167076380Y-90584785D02*
X166076380Y-90584785D01*
X166076380Y-90346690D01*
X166124000Y-90203833D01*
X166219238Y-90108595D01*
X166314476Y-90060976D01*
X166504952Y-90013357D01*
X166647809Y-90013357D01*
X166838285Y-90060976D01*
X166933523Y-90108595D01*
X167028761Y-90203833D01*
X167076380Y-90346690D01*
X167076380Y-90584785D01*
X166409714Y-89156214D02*
X167076380Y-89156214D01*
X166028761Y-89394309D02*
X166743047Y-89632404D01*
X166743047Y-89013357D01*
X170124380Y-84081904D02*
X169124380Y-84081904D01*
X170124380Y-83510476D02*
X169552952Y-83939047D01*
X169124380Y-83510476D02*
X169695809Y-84081904D01*
%TO.C,C1*%
X130701023Y-119229142D02*
X130653404Y-119276761D01*
X130510547Y-119324380D01*
X130415309Y-119324380D01*
X130272452Y-119276761D01*
X130177214Y-119181523D01*
X130129595Y-119086285D01*
X130081976Y-118895809D01*
X130081976Y-118752952D01*
X130129595Y-118562476D01*
X130177214Y-118467238D01*
X130272452Y-118372000D01*
X130415309Y-118324380D01*
X130510547Y-118324380D01*
X130653404Y-118372000D01*
X130701023Y-118419619D01*
X131653404Y-119324380D02*
X131081976Y-119324380D01*
X131367690Y-119324380D02*
X131367690Y-118324380D01*
X131272452Y-118467238D01*
X131177214Y-118562476D01*
X131081976Y-118610095D01*
%TO.C,D2*%
X125569214Y-101925380D02*
X125569214Y-100925380D01*
X125807309Y-100925380D01*
X125950166Y-100973000D01*
X126045404Y-101068238D01*
X126093023Y-101163476D01*
X126140642Y-101353952D01*
X126140642Y-101496809D01*
X126093023Y-101687285D01*
X126045404Y-101782523D01*
X125950166Y-101877761D01*
X125807309Y-101925380D01*
X125569214Y-101925380D01*
X126521595Y-101020619D02*
X126569214Y-100973000D01*
X126664452Y-100925380D01*
X126902547Y-100925380D01*
X126997785Y-100973000D01*
X127045404Y-101020619D01*
X127093023Y-101115857D01*
X127093023Y-101211095D01*
X127045404Y-101353952D01*
X126473976Y-101925380D01*
X127093023Y-101925380D01*
X126817380Y-86621904D02*
X125817380Y-86621904D01*
X126817380Y-86050476D02*
X126245952Y-86479047D01*
X125817380Y-86050476D02*
X126388809Y-86621904D01*
%TO.C,D1*%
X120975380Y-118594095D02*
X119975380Y-118594095D01*
X119975380Y-118356000D01*
X120023000Y-118213142D01*
X120118238Y-118117904D01*
X120213476Y-118070285D01*
X120403952Y-118022666D01*
X120546809Y-118022666D01*
X120737285Y-118070285D01*
X120832523Y-118117904D01*
X120927761Y-118213142D01*
X120975380Y-118356000D01*
X120975380Y-118594095D01*
X120975380Y-117070285D02*
X120975380Y-117641714D01*
X120975380Y-117356000D02*
X119975380Y-117356000D01*
X120118238Y-117451238D01*
X120213476Y-117546476D01*
X120261095Y-117641714D01*
X119451380Y-106306904D02*
X118451380Y-106306904D01*
X119451380Y-105735476D02*
X118879952Y-106164047D01*
X118451380Y-105735476D02*
X119022809Y-106306904D01*
%TO.C,R1*%
X126579333Y-80589380D02*
X126246000Y-80113190D01*
X126007904Y-80589380D02*
X126007904Y-79589380D01*
X126388857Y-79589380D01*
X126484095Y-79637000D01*
X126531714Y-79684619D01*
X126579333Y-79779857D01*
X126579333Y-79922714D01*
X126531714Y-80017952D01*
X126484095Y-80065571D01*
X126388857Y-80113190D01*
X126007904Y-80113190D01*
X127531714Y-80589380D02*
X126960285Y-80589380D01*
X127246000Y-80589380D02*
X127246000Y-79589380D01*
X127150761Y-79732238D01*
X127055523Y-79827476D01*
X126960285Y-79875095D01*
%TO.C,C3*%
X124097023Y-108307142D02*
X124049404Y-108354761D01*
X123906547Y-108402380D01*
X123811309Y-108402380D01*
X123668452Y-108354761D01*
X123573214Y-108259523D01*
X123525595Y-108164285D01*
X123477976Y-107973809D01*
X123477976Y-107830952D01*
X123525595Y-107640476D01*
X123573214Y-107545238D01*
X123668452Y-107450000D01*
X123811309Y-107402380D01*
X123906547Y-107402380D01*
X124049404Y-107450000D01*
X124097023Y-107497619D01*
X124430357Y-107402380D02*
X125049404Y-107402380D01*
X124716071Y-107783333D01*
X124858928Y-107783333D01*
X124954166Y-107830952D01*
X125001785Y-107878571D01*
X125049404Y-107973809D01*
X125049404Y-108211904D01*
X125001785Y-108307142D01*
X124954166Y-108354761D01*
X124858928Y-108402380D01*
X124573214Y-108402380D01*
X124477976Y-108354761D01*
X124430357Y-108307142D01*
%TO.C,U2*%
X153207595Y-132675380D02*
X153207595Y-133484904D01*
X153255214Y-133580142D01*
X153302833Y-133627761D01*
X153398071Y-133675380D01*
X153588547Y-133675380D01*
X153683785Y-133627761D01*
X153731404Y-133580142D01*
X153779023Y-133484904D01*
X153779023Y-132675380D01*
X154207595Y-132770619D02*
X154255214Y-132723000D01*
X154350452Y-132675380D01*
X154588547Y-132675380D01*
X154683785Y-132723000D01*
X154731404Y-132770619D01*
X154779023Y-132865857D01*
X154779023Y-132961095D01*
X154731404Y-133103952D01*
X154159976Y-133675380D01*
X154779023Y-133675380D01*
D14*
%TO.C,U3*%
X128855000Y-86890000D02*
X128855000Y-92350000D01*
X164535000Y-99810000D02*
X164535000Y-86890000D01*
X128855000Y-99810000D02*
X164535000Y-99810000D01*
X128855000Y-94350000D02*
X128855000Y-99810000D01*
X164535000Y-86890000D02*
X128855000Y-86890000D01*
X128855000Y-94350000D02*
G75*
G03*
X128855000Y-92350000I0J1000000D01*
G01*
%TO.C,C5*%
X183285000Y-85623280D02*
X185057000Y-85623280D01*
X183285000Y-86103280D02*
X185278000Y-86103280D01*
X179503000Y-85503280D02*
X181205000Y-85503280D01*
X183285000Y-85663280D02*
X185079000Y-85663280D01*
X183285000Y-86143280D02*
X185292000Y-86143280D01*
X183285000Y-86824280D02*
X185451000Y-86824280D01*
X179135000Y-86343280D02*
X181205000Y-86343280D01*
X179015000Y-87184280D02*
X185475000Y-87184280D01*
X179529000Y-85463280D02*
X181205000Y-85463280D01*
X179124000Y-86383280D02*
X181205000Y-86383280D01*
X179086000Y-86544280D02*
X181205000Y-86544280D01*
X179609000Y-85343280D02*
X181205000Y-85343280D01*
X180021000Y-84863280D02*
X184469000Y-84863280D01*
X180108000Y-84783280D02*
X184382000Y-84783280D01*
X179015000Y-87224280D02*
X185475000Y-87224280D01*
X183285000Y-85103280D02*
X184695000Y-85103280D01*
X179369000Y-85743280D02*
X181205000Y-85743280D01*
X183285000Y-86343280D02*
X185355000Y-86343280D01*
X180063000Y-84823280D02*
X184427000Y-84823280D01*
X183285000Y-85143280D02*
X184729000Y-85143280D01*
X179095000Y-86503280D02*
X181205000Y-86503280D01*
X183285000Y-86303280D02*
X185343000Y-86303280D01*
X183285000Y-85463280D02*
X184961000Y-85463280D01*
X183285000Y-85223280D02*
X184793000Y-85223280D01*
X179259000Y-85983280D02*
X181205000Y-85983280D01*
X179555000Y-85423280D02*
X181205000Y-85423280D01*
X180201000Y-84703280D02*
X184289000Y-84703280D01*
X181612000Y-84023280D02*
X182878000Y-84023280D01*
X183285000Y-84943280D02*
X184550000Y-84943280D01*
X183285000Y-86544280D02*
X185404000Y-86544280D01*
X180595000Y-84423280D02*
X183895000Y-84423280D01*
X179070000Y-86624280D02*
X181205000Y-86624280D01*
X179015000Y-87144280D02*
X185475000Y-87144280D01*
X183285000Y-86183280D02*
X185306000Y-86183280D01*
X183285000Y-85583280D02*
X185035000Y-85583280D01*
X179729000Y-85183280D02*
X181205000Y-85183280D01*
X179184000Y-86183280D02*
X181205000Y-86183280D01*
X179243000Y-86023280D02*
X181205000Y-86023280D01*
X179027000Y-86944280D02*
X181205000Y-86944280D01*
X183285000Y-85383280D02*
X184909000Y-85383280D01*
X183285000Y-86063280D02*
X185263000Y-86063280D01*
X179275000Y-85943280D02*
X181205000Y-85943280D01*
X180736000Y-84343280D02*
X183754000Y-84343280D01*
X183285000Y-85303280D02*
X184852000Y-85303280D01*
X183285000Y-86584280D02*
X185412000Y-86584280D01*
X179697000Y-85223280D02*
X181205000Y-85223280D01*
X180091000Y-90409521D02*
X180721000Y-90409521D01*
X180664000Y-84383280D02*
X183826000Y-84383280D01*
X179023000Y-86984280D02*
X181205000Y-86984280D01*
X183285000Y-85983280D02*
X185231000Y-85983280D01*
X183285000Y-85543280D02*
X185011000Y-85543280D01*
X179050000Y-86744280D02*
X181205000Y-86744280D01*
X179017000Y-87104280D02*
X185473000Y-87104280D01*
X183285000Y-86864280D02*
X185456000Y-86864280D01*
X183285000Y-86904280D02*
X185460000Y-86904280D01*
X183285000Y-85503280D02*
X184987000Y-85503280D01*
X183285000Y-86624280D02*
X185420000Y-86624280D01*
X179171000Y-86223280D02*
X181205000Y-86223280D01*
X180355000Y-84583280D02*
X184135000Y-84583280D01*
X183285000Y-86023280D02*
X185247000Y-86023280D01*
X183285000Y-86744280D02*
X185440000Y-86744280D01*
X183285000Y-86263280D02*
X185331000Y-86263280D01*
X180983000Y-84223280D02*
X183507000Y-84223280D01*
X183285000Y-85183280D02*
X184761000Y-85183280D01*
X179212000Y-86103280D02*
X181205000Y-86103280D01*
X179479000Y-85543280D02*
X181205000Y-85543280D01*
X179902000Y-84983280D02*
X181205000Y-84983280D01*
X181186000Y-84143280D02*
X183304000Y-84143280D01*
X183285000Y-85743280D02*
X185121000Y-85743280D01*
X179411000Y-85663280D02*
X181205000Y-85663280D01*
X179311000Y-85863280D02*
X181205000Y-85863280D01*
X179198000Y-86143280D02*
X181205000Y-86143280D01*
X179147000Y-86303280D02*
X181205000Y-86303280D01*
X183285000Y-85823280D02*
X185161000Y-85823280D01*
X180153000Y-84743280D02*
X184337000Y-84743280D01*
X183285000Y-86704280D02*
X185434000Y-86704280D01*
X183285000Y-86784280D02*
X185446000Y-86784280D01*
X179349000Y-85783280D02*
X181205000Y-85783280D01*
X179980000Y-84903280D02*
X184510000Y-84903280D01*
X179018000Y-87064280D02*
X185472000Y-87064280D01*
X179761000Y-85143280D02*
X181205000Y-85143280D01*
X179044000Y-86784280D02*
X181205000Y-86784280D01*
X180895000Y-84263280D02*
X183595000Y-84263280D01*
X183285000Y-85423280D02*
X184935000Y-85423280D01*
X183285000Y-85343280D02*
X184881000Y-85343280D01*
X179056000Y-86704280D02*
X181205000Y-86704280D01*
X183285000Y-86664280D02*
X185427000Y-86664280D01*
X183285000Y-86423280D02*
X185376000Y-86423280D01*
X181305000Y-84103280D02*
X183185000Y-84103280D01*
X179063000Y-86664280D02*
X181205000Y-86664280D01*
X179034000Y-86864280D02*
X181205000Y-86864280D01*
X179940000Y-84943280D02*
X181205000Y-84943280D01*
X183285000Y-85903280D02*
X185197000Y-85903280D01*
X180411000Y-84543280D02*
X184079000Y-84543280D01*
X183285000Y-85943280D02*
X185215000Y-85943280D01*
X179293000Y-85903280D02*
X181205000Y-85903280D01*
X179104000Y-86463280D02*
X181205000Y-86463280D01*
X179795000Y-85103280D02*
X181205000Y-85103280D01*
X183285000Y-86463280D02*
X185386000Y-86463280D01*
X180250000Y-84663280D02*
X184240000Y-84663280D01*
X183285000Y-85703280D02*
X185101000Y-85703280D01*
X183285000Y-84983280D02*
X184588000Y-84983280D01*
X179455000Y-85583280D02*
X181205000Y-85583280D01*
X181443000Y-84063280D02*
X183047000Y-84063280D01*
X181843000Y-83983280D02*
X182647000Y-83983280D01*
X179039000Y-86824280D02*
X181205000Y-86824280D01*
X183285000Y-85263280D02*
X184823000Y-85263280D01*
X180531000Y-84463280D02*
X183959000Y-84463280D01*
X183285000Y-86944280D02*
X185463000Y-86944280D01*
X179030000Y-86904280D02*
X181205000Y-86904280D01*
X181080000Y-84183280D02*
X183410000Y-84183280D01*
X183285000Y-85783280D02*
X185141000Y-85783280D01*
X179433000Y-85623280D02*
X181205000Y-85623280D01*
X179159000Y-86263280D02*
X181205000Y-86263280D01*
X179581000Y-85383280D02*
X181205000Y-85383280D01*
X183285000Y-86383280D02*
X185366000Y-86383280D01*
X179638000Y-85303280D02*
X181205000Y-85303280D01*
X183285000Y-85063280D02*
X184661000Y-85063280D01*
X179114000Y-86423280D02*
X181205000Y-86423280D01*
X180813000Y-84303280D02*
X183677000Y-84303280D01*
X179021000Y-87024280D02*
X185469000Y-87024280D01*
X183285000Y-86223280D02*
X185319000Y-86223280D01*
X183285000Y-85863280D02*
X185179000Y-85863280D01*
X180301000Y-84623280D02*
X184189000Y-84623280D01*
X179667000Y-85263280D02*
X181205000Y-85263280D01*
X179389000Y-85703280D02*
X181205000Y-85703280D01*
X179078000Y-86584280D02*
X181205000Y-86584280D01*
X179865000Y-85023280D02*
X181205000Y-85023280D01*
X179829000Y-85063280D02*
X181205000Y-85063280D01*
X180406000Y-90724521D02*
X180406000Y-90094521D01*
X180469000Y-84503280D02*
X184021000Y-84503280D01*
X183285000Y-86503280D02*
X185395000Y-86503280D01*
X179227000Y-86063280D02*
X181205000Y-86063280D01*
X183285000Y-85023280D02*
X184625000Y-85023280D01*
X183285000Y-86984280D02*
X185467000Y-86984280D01*
X179329000Y-85823280D02*
X181205000Y-85823280D01*
X185515000Y-87224280D02*
G75*
G03*
X185515000Y-87224280I-3270000J0D01*
G01*
%TO.C,C4*%
X183963000Y-91228520D02*
X188147000Y-91228520D01*
X184474000Y-90868520D02*
X187636000Y-90868520D01*
X185253000Y-90548520D02*
X186857000Y-90548520D01*
X182825000Y-93709520D02*
X189285000Y-93709520D01*
X187095000Y-91668520D02*
X188571000Y-91668520D01*
X182825000Y-93629520D02*
X189285000Y-93629520D01*
X182981000Y-92708520D02*
X185015000Y-92708520D01*
X185653000Y-90468520D02*
X186457000Y-90468520D01*
X183901000Y-96894761D02*
X184531000Y-96894761D01*
X183918000Y-91268520D02*
X188192000Y-91268520D01*
X187095000Y-92428520D02*
X189025000Y-92428520D01*
X182844000Y-93349520D02*
X185015000Y-93349520D01*
X187095000Y-92628520D02*
X189102000Y-92628520D01*
X184279000Y-90988520D02*
X187831000Y-90988520D01*
X184890000Y-90668520D02*
X187220000Y-90668520D01*
X183139000Y-92308520D02*
X185015000Y-92308520D01*
X183022000Y-92588520D02*
X185015000Y-92588520D01*
X182914000Y-92948520D02*
X185015000Y-92948520D01*
X187095000Y-92348520D02*
X188989000Y-92348520D01*
X184996000Y-90628520D02*
X187114000Y-90628520D01*
X183037000Y-92548520D02*
X185015000Y-92548520D01*
X182969000Y-92748520D02*
X185015000Y-92748520D01*
X182896000Y-93029520D02*
X185015000Y-93029520D01*
X183605000Y-91588520D02*
X185015000Y-91588520D01*
X187095000Y-93069520D02*
X189222000Y-93069520D01*
X182957000Y-92788520D02*
X185015000Y-92788520D01*
X183289000Y-92028520D02*
X185015000Y-92028520D01*
X183712000Y-91468520D02*
X185015000Y-91468520D01*
X182934000Y-92868520D02*
X185015000Y-92868520D01*
X184221000Y-91028520D02*
X187889000Y-91028520D01*
X184623000Y-90788520D02*
X187487000Y-90788520D01*
X187095000Y-93309520D02*
X189261000Y-93309520D01*
X187095000Y-92388520D02*
X189007000Y-92388520D01*
X187095000Y-91988520D02*
X188797000Y-91988520D01*
X182888000Y-93069520D02*
X185015000Y-93069520D01*
X185422000Y-90508520D02*
X186688000Y-90508520D01*
X185115000Y-90588520D02*
X186995000Y-90588520D01*
X184546000Y-90828520D02*
X187564000Y-90828520D01*
X183448000Y-91788520D02*
X185015000Y-91788520D01*
X187095000Y-92948520D02*
X189196000Y-92948520D01*
X187095000Y-93029520D02*
X189214000Y-93029520D01*
X187095000Y-91748520D02*
X188633000Y-91748520D01*
X187095000Y-92108520D02*
X188867000Y-92108520D01*
X183873000Y-91308520D02*
X188237000Y-91308520D01*
X187095000Y-93269520D02*
X189256000Y-93269520D01*
X183539000Y-91668520D02*
X185015000Y-91668520D01*
X187095000Y-93229520D02*
X189250000Y-93229520D01*
X187095000Y-92908520D02*
X189186000Y-92908520D01*
X183571000Y-91628520D02*
X185015000Y-91628520D01*
X187095000Y-92748520D02*
X189141000Y-92748520D01*
X182828000Y-93549520D02*
X189282000Y-93549520D01*
X187095000Y-91908520D02*
X188745000Y-91908520D01*
X187095000Y-92868520D02*
X189176000Y-92868520D01*
X182825000Y-93669520D02*
X189285000Y-93669520D01*
X187095000Y-92068520D02*
X188845000Y-92068520D01*
X184341000Y-90948520D02*
X187769000Y-90948520D01*
X182854000Y-93269520D02*
X185015000Y-93269520D01*
X187095000Y-93149520D02*
X189237000Y-93149520D01*
X183313000Y-91988520D02*
X185015000Y-91988520D01*
X182837000Y-93429520D02*
X185015000Y-93429520D01*
X187095000Y-91828520D02*
X188691000Y-91828520D01*
X187095000Y-92988520D02*
X189205000Y-92988520D01*
X187095000Y-93349520D02*
X189266000Y-93349520D01*
X183085000Y-92428520D02*
X185015000Y-92428520D01*
X184705000Y-90748520D02*
X187405000Y-90748520D01*
X183507000Y-91708520D02*
X185015000Y-91708520D01*
X187095000Y-93429520D02*
X189273000Y-93429520D01*
X183199000Y-92188520D02*
X185015000Y-92188520D01*
X182880000Y-93109520D02*
X185015000Y-93109520D01*
X182849000Y-93309520D02*
X185015000Y-93309520D01*
X184405000Y-90908520D02*
X187705000Y-90908520D01*
X183419000Y-91828520D02*
X185015000Y-91828520D01*
X187095000Y-92508520D02*
X189057000Y-92508520D01*
X182924000Y-92908520D02*
X185015000Y-92908520D01*
X187095000Y-92588520D02*
X189088000Y-92588520D01*
X187095000Y-91788520D02*
X188662000Y-91788520D01*
X187095000Y-91588520D02*
X188505000Y-91588520D01*
X183639000Y-91548520D02*
X185015000Y-91548520D01*
X183477000Y-91748520D02*
X185015000Y-91748520D01*
X187095000Y-91628520D02*
X188539000Y-91628520D01*
X183008000Y-92628520D02*
X185015000Y-92628520D01*
X183391000Y-91868520D02*
X185015000Y-91868520D01*
X187095000Y-91708520D02*
X188603000Y-91708520D01*
X187095000Y-91468520D02*
X188398000Y-91468520D01*
X187095000Y-92148520D02*
X188889000Y-92148520D01*
X187095000Y-93109520D02*
X189230000Y-93109520D01*
X183675000Y-91508520D02*
X185015000Y-91508520D01*
X184060000Y-91148520D02*
X188050000Y-91148520D01*
X183159000Y-92268520D02*
X185015000Y-92268520D01*
X187095000Y-92468520D02*
X189041000Y-92468520D01*
X183265000Y-92068520D02*
X185015000Y-92068520D01*
X184216000Y-97209761D02*
X184216000Y-96579761D01*
X187095000Y-93389520D02*
X189270000Y-93389520D01*
X183221000Y-92148520D02*
X185015000Y-92148520D01*
X183103000Y-92388520D02*
X185015000Y-92388520D01*
X187095000Y-93469520D02*
X189277000Y-93469520D01*
X187095000Y-91428520D02*
X188360000Y-91428520D01*
X183339000Y-91948520D02*
X185015000Y-91948520D01*
X182945000Y-92828520D02*
X185015000Y-92828520D01*
X187095000Y-92028520D02*
X188821000Y-92028520D01*
X187095000Y-92228520D02*
X188931000Y-92228520D01*
X182860000Y-93229520D02*
X185015000Y-93229520D01*
X183750000Y-91428520D02*
X185015000Y-91428520D01*
X183121000Y-92348520D02*
X185015000Y-92348520D01*
X187095000Y-92188520D02*
X188911000Y-92188520D01*
X182905000Y-92988520D02*
X185015000Y-92988520D01*
X184165000Y-91068520D02*
X187945000Y-91068520D01*
X184011000Y-91188520D02*
X188099000Y-91188520D01*
X187095000Y-92708520D02*
X189129000Y-92708520D01*
X183179000Y-92228520D02*
X185015000Y-92228520D01*
X183243000Y-92108520D02*
X185015000Y-92108520D01*
X187095000Y-92308520D02*
X188971000Y-92308520D01*
X187095000Y-92828520D02*
X189165000Y-92828520D01*
X187095000Y-91508520D02*
X188435000Y-91508520D01*
X187095000Y-91548520D02*
X188471000Y-91548520D01*
X187095000Y-92668520D02*
X189116000Y-92668520D01*
X187095000Y-92788520D02*
X189153000Y-92788520D01*
X187095000Y-92268520D02*
X188951000Y-92268520D01*
X182866000Y-93189520D02*
X185015000Y-93189520D01*
X187095000Y-93189520D02*
X189244000Y-93189520D01*
X184111000Y-91108520D02*
X187999000Y-91108520D01*
X187095000Y-91948520D02*
X188771000Y-91948520D01*
X187095000Y-91868520D02*
X188719000Y-91868520D01*
X183790000Y-91388520D02*
X188320000Y-91388520D01*
X187095000Y-92548520D02*
X189073000Y-92548520D01*
X182994000Y-92668520D02*
X185015000Y-92668520D01*
X182833000Y-93469520D02*
X185015000Y-93469520D01*
X183053000Y-92508520D02*
X185015000Y-92508520D01*
X182840000Y-93389520D02*
X185015000Y-93389520D01*
X182873000Y-93149520D02*
X185015000Y-93149520D01*
X182831000Y-93509520D02*
X189279000Y-93509520D01*
X184793000Y-90708520D02*
X187317000Y-90708520D01*
X183069000Y-92468520D02*
X185015000Y-92468520D01*
X183831000Y-91348520D02*
X188279000Y-91348520D01*
X182827000Y-93589520D02*
X189283000Y-93589520D01*
X183365000Y-91908520D02*
X185015000Y-91908520D01*
X189325000Y-93709520D02*
G75*
G03*
X189325000Y-93709520I-3270000J0D01*
G01*
%TO.C,C6*%
X187095000Y-80297380D02*
X189273000Y-80297380D01*
X187095000Y-79977380D02*
X189230000Y-79977380D01*
X187095000Y-78776380D02*
X188745000Y-78776380D01*
X183675000Y-78376380D02*
X185015000Y-78376380D01*
X187095000Y-78416380D02*
X188471000Y-78416380D01*
X182837000Y-80297380D02*
X185015000Y-80297380D01*
X183085000Y-79296380D02*
X185015000Y-79296380D01*
X182866000Y-80057380D02*
X185015000Y-80057380D01*
X182825000Y-80537380D02*
X189285000Y-80537380D01*
X183221000Y-79016380D02*
X185015000Y-79016380D01*
X187095000Y-78496380D02*
X188539000Y-78496380D01*
X183639000Y-78416380D02*
X185015000Y-78416380D01*
X187095000Y-79136380D02*
X188951000Y-79136380D01*
X187095000Y-78616380D02*
X188633000Y-78616380D01*
X187095000Y-78576380D02*
X188603000Y-78576380D01*
X182945000Y-79696380D02*
X185015000Y-79696380D01*
X187095000Y-79856380D02*
X189205000Y-79856380D01*
X183477000Y-78616380D02*
X185015000Y-78616380D01*
X183391000Y-78736380D02*
X185015000Y-78736380D01*
X183571000Y-78496380D02*
X185015000Y-78496380D01*
X183159000Y-79136380D02*
X185015000Y-79136380D01*
X182914000Y-79816380D02*
X185015000Y-79816380D01*
X183605000Y-78456380D02*
X185015000Y-78456380D01*
X184623000Y-77656380D02*
X187487000Y-77656380D01*
X183963000Y-78096380D02*
X188147000Y-78096380D01*
X187095000Y-79176380D02*
X188971000Y-79176380D01*
X182957000Y-79656380D02*
X185015000Y-79656380D01*
X184341000Y-77816380D02*
X187769000Y-77816380D01*
X187095000Y-78456380D02*
X188505000Y-78456380D01*
X184111000Y-77976380D02*
X187999000Y-77976380D01*
X182825000Y-80577380D02*
X189285000Y-80577380D01*
X183365000Y-78776380D02*
X185015000Y-78776380D01*
X184996000Y-77496380D02*
X187114000Y-77496380D01*
X182905000Y-79856380D02*
X185015000Y-79856380D01*
X185115000Y-77456380D02*
X186995000Y-77456380D01*
X182860000Y-80097380D02*
X185015000Y-80097380D01*
X184279000Y-77856380D02*
X187831000Y-77856380D01*
X184405000Y-77776380D02*
X187705000Y-77776380D01*
X187095000Y-78296380D02*
X188360000Y-78296380D01*
X187095000Y-79416380D02*
X189073000Y-79416380D01*
X183053000Y-79376380D02*
X185015000Y-79376380D01*
X187095000Y-80177380D02*
X189261000Y-80177380D01*
X187095000Y-79816380D02*
X189196000Y-79816380D01*
X183901000Y-83762621D02*
X184531000Y-83762621D01*
X187095000Y-79256380D02*
X189007000Y-79256380D01*
X183448000Y-78656380D02*
X185015000Y-78656380D01*
X182828000Y-80417380D02*
X189282000Y-80417380D01*
X184216000Y-84077621D02*
X184216000Y-83447621D01*
X182994000Y-79536380D02*
X185015000Y-79536380D01*
X183199000Y-79056380D02*
X185015000Y-79056380D01*
X187095000Y-79216380D02*
X188989000Y-79216380D01*
X187095000Y-79496380D02*
X189102000Y-79496380D01*
X187095000Y-79536380D02*
X189116000Y-79536380D01*
X183243000Y-78976380D02*
X185015000Y-78976380D01*
X183121000Y-79216380D02*
X185015000Y-79216380D01*
X187095000Y-80137380D02*
X189256000Y-80137380D01*
X183265000Y-78936380D02*
X185015000Y-78936380D01*
X187095000Y-79897380D02*
X189214000Y-79897380D01*
X182924000Y-79776380D02*
X185015000Y-79776380D01*
X187095000Y-78336380D02*
X188398000Y-78336380D01*
X187095000Y-79056380D02*
X188911000Y-79056380D01*
X183289000Y-78896380D02*
X185015000Y-78896380D01*
X187095000Y-78896380D02*
X188821000Y-78896380D01*
X183750000Y-78296380D02*
X185015000Y-78296380D01*
X182825000Y-80497380D02*
X189285000Y-80497380D01*
X182831000Y-80377380D02*
X189279000Y-80377380D01*
X183008000Y-79496380D02*
X185015000Y-79496380D01*
X184793000Y-77576380D02*
X187317000Y-77576380D01*
X187095000Y-80257380D02*
X189270000Y-80257380D01*
X187095000Y-80057380D02*
X189244000Y-80057380D01*
X187095000Y-79016380D02*
X188889000Y-79016380D01*
X184165000Y-77936380D02*
X187945000Y-77936380D01*
X187095000Y-79616380D02*
X189141000Y-79616380D01*
X187095000Y-79656380D02*
X189153000Y-79656380D01*
X184890000Y-77536380D02*
X187220000Y-77536380D01*
X183022000Y-79456380D02*
X185015000Y-79456380D01*
X187095000Y-78936380D02*
X188845000Y-78936380D01*
X183179000Y-79096380D02*
X185015000Y-79096380D01*
X187095000Y-79376380D02*
X189057000Y-79376380D01*
X183037000Y-79416380D02*
X185015000Y-79416380D01*
X184060000Y-78016380D02*
X188050000Y-78016380D01*
X187095000Y-80017380D02*
X189237000Y-80017380D01*
X182934000Y-79736380D02*
X185015000Y-79736380D01*
X187095000Y-80097380D02*
X189250000Y-80097380D01*
X185253000Y-77416380D02*
X186857000Y-77416380D01*
X183419000Y-78696380D02*
X185015000Y-78696380D01*
X182880000Y-79977380D02*
X185015000Y-79977380D01*
X182969000Y-79616380D02*
X185015000Y-79616380D01*
X187095000Y-79336380D02*
X189041000Y-79336380D01*
X187095000Y-79696380D02*
X189165000Y-79696380D01*
X182849000Y-80177380D02*
X185015000Y-80177380D01*
X187095000Y-80337380D02*
X189277000Y-80337380D01*
X187095000Y-78856380D02*
X188797000Y-78856380D01*
X183507000Y-78576380D02*
X185015000Y-78576380D01*
X183712000Y-78336380D02*
X185015000Y-78336380D01*
X182873000Y-80017380D02*
X185015000Y-80017380D01*
X187095000Y-78536380D02*
X188571000Y-78536380D01*
X183831000Y-78216380D02*
X188279000Y-78216380D01*
X187095000Y-79096380D02*
X188931000Y-79096380D01*
X184474000Y-77736380D02*
X187636000Y-77736380D01*
X187095000Y-79736380D02*
X189176000Y-79736380D01*
X187095000Y-80217380D02*
X189266000Y-80217380D01*
X182840000Y-80257380D02*
X185015000Y-80257380D01*
X187095000Y-79576380D02*
X189129000Y-79576380D01*
X187095000Y-78816380D02*
X188771000Y-78816380D01*
X182888000Y-79937380D02*
X185015000Y-79937380D01*
X183790000Y-78256380D02*
X188320000Y-78256380D01*
X183918000Y-78136380D02*
X188192000Y-78136380D01*
X187095000Y-79937380D02*
X189222000Y-79937380D01*
X182827000Y-80457380D02*
X189283000Y-80457380D01*
X182833000Y-80337380D02*
X185015000Y-80337380D01*
X187095000Y-78656380D02*
X188662000Y-78656380D01*
X183313000Y-78856380D02*
X185015000Y-78856380D01*
X187095000Y-78696380D02*
X188691000Y-78696380D01*
X183873000Y-78176380D02*
X188237000Y-78176380D01*
X187095000Y-78976380D02*
X188867000Y-78976380D01*
X182844000Y-80217380D02*
X185015000Y-80217380D01*
X183139000Y-79176380D02*
X185015000Y-79176380D01*
X182896000Y-79897380D02*
X185015000Y-79897380D01*
X184011000Y-78056380D02*
X188099000Y-78056380D01*
X184221000Y-77896380D02*
X187889000Y-77896380D01*
X184546000Y-77696380D02*
X187564000Y-77696380D01*
X183539000Y-78536380D02*
X185015000Y-78536380D01*
X183339000Y-78816380D02*
X185015000Y-78816380D01*
X182854000Y-80137380D02*
X185015000Y-80137380D01*
X187095000Y-79296380D02*
X189025000Y-79296380D01*
X187095000Y-78376380D02*
X188435000Y-78376380D01*
X187095000Y-78736380D02*
X188719000Y-78736380D01*
X184705000Y-77616380D02*
X187405000Y-77616380D01*
X183069000Y-79336380D02*
X185015000Y-79336380D01*
X183103000Y-79256380D02*
X185015000Y-79256380D01*
X187095000Y-79456380D02*
X189088000Y-79456380D01*
X185653000Y-77336380D02*
X186457000Y-77336380D01*
X187095000Y-79776380D02*
X189186000Y-79776380D01*
X185422000Y-77376380D02*
X186688000Y-77376380D01*
X182981000Y-79576380D02*
X185015000Y-79576380D01*
X189325000Y-80577380D02*
G75*
G03*
X189325000Y-80577380I-3270000J0D01*
G01*
%TO.C,D3*%
X174775000Y-89565000D02*
X171935000Y-89565000D01*
X174775000Y-92525000D02*
X174775000Y-89085000D01*
X174775000Y-89085000D02*
X171935000Y-89085000D01*
X174775000Y-89805000D02*
X171935000Y-89805000D01*
X174775000Y-89685000D02*
X171935000Y-89685000D01*
X173355000Y-94645000D02*
X173355000Y-92525000D01*
X173355000Y-86965000D02*
X173355000Y-89085000D01*
X171935000Y-89085000D02*
X171935000Y-92525000D01*
X171935000Y-92525000D02*
X174775000Y-92525000D01*
%TO.C,C2*%
X122965000Y-95774000D02*
X123865000Y-94874000D01*
X114300000Y-100076000D02*
X114300000Y-99060000D01*
X114525000Y-95774000D02*
X113625000Y-94874000D01*
X113792000Y-99568000D02*
X114808000Y-99568000D01*
X113625000Y-80234000D02*
X123865000Y-80234000D01*
X113625000Y-98474000D02*
X113625000Y-96674000D01*
X123865000Y-96674000D02*
X122965000Y-95774000D01*
X123865000Y-98474000D02*
X123865000Y-96674000D01*
X113625000Y-94874000D02*
X113625000Y-80234000D01*
X121285000Y-100584000D02*
X121285000Y-98552000D01*
X123865000Y-94874000D02*
X123865000Y-80234000D01*
X113625000Y-98474000D02*
X123865000Y-98474000D01*
X113625000Y-96674000D02*
X114525000Y-95774000D01*
X116205000Y-100584000D02*
X116205000Y-98552000D01*
G36*
X123865000Y-94874000D02*
G01*
X122965000Y-95774000D01*
X123865000Y-96674000D01*
X123865000Y-98474000D01*
X118745000Y-98474000D01*
X118745000Y-80234000D01*
X123865000Y-80234000D01*
X123865000Y-94874000D01*
G37*
X123865000Y-94874000D02*
X122965000Y-95774000D01*
X123865000Y-96674000D01*
X123865000Y-98474000D01*
X118745000Y-98474000D01*
X118745000Y-80234000D01*
X123865000Y-80234000D01*
X123865000Y-94874000D01*
%TO.C,U1*%
X142755000Y-115570000D02*
X140611000Y-115570000D01*
X142755000Y-112170000D02*
X140595000Y-112170000D01*
X158645000Y-110449000D02*
X158645000Y-120690000D01*
X142755000Y-113870000D02*
X136810000Y-113870000D01*
X142755000Y-110449000D02*
X142755000Y-120690000D01*
X142755000Y-118970000D02*
X140611000Y-118970000D01*
X142755000Y-117270000D02*
X136810000Y-117270000D01*
X158645000Y-120690000D02*
X142755000Y-120690000D01*
X158645000Y-110449000D02*
X142755000Y-110449000D01*
%TO.C,R2*%
X148820000Y-79375000D02*
X148050000Y-79375000D01*
X141510000Y-80745000D02*
X148050000Y-80745000D01*
X140740000Y-79375000D02*
X141510000Y-79375000D01*
X141510000Y-78005000D02*
X141510000Y-80745000D01*
X148050000Y-78005000D02*
X141510000Y-78005000D01*
X148050000Y-80745000D02*
X148050000Y-78005000D01*
%TO.C,A1*%
X172600000Y-105410000D02*
X172600000Y-143640000D01*
X187970000Y-102870000D02*
X187970000Y-140970000D01*
X190640000Y-100200000D02*
X172600000Y-100200000D01*
X177680000Y-135760000D02*
X185560000Y-135760000D01*
X187970000Y-102870000D02*
X190640000Y-102870000D01*
X185560000Y-135760000D02*
X185560000Y-146180000D01*
X175270000Y-102870000D02*
X172600000Y-102870000D01*
X190640000Y-143640000D02*
X185560000Y-143640000D01*
X175270000Y-105410000D02*
X172600000Y-105410000D01*
X190640000Y-143640000D02*
X190640000Y-100200000D01*
X172600000Y-100200000D02*
X172600000Y-102870000D01*
X187970000Y-140970000D02*
X190640000Y-140970000D01*
X172600000Y-143640000D02*
X177680000Y-143640000D01*
X175270000Y-105410000D02*
X175270000Y-140970000D01*
X177680000Y-146180000D02*
X177680000Y-135760000D01*
X175270000Y-140970000D02*
X172600000Y-140970000D01*
X175270000Y-105410000D02*
X175270000Y-102870000D01*
X185560000Y-146180000D02*
X177680000Y-146180000D01*
%TO.C,R3*%
X162155000Y-79375000D02*
X161385000Y-79375000D01*
X154845000Y-80745000D02*
X161385000Y-80745000D01*
X154075000Y-79375000D02*
X154845000Y-79375000D01*
X161385000Y-78005000D02*
X154845000Y-78005000D01*
X154845000Y-78005000D02*
X154845000Y-80745000D01*
X161385000Y-80745000D02*
X161385000Y-78005000D01*
%TO.C,L1*%
X138229999Y-131950001D02*
G75*
G03*
X138229999Y-134750001I-12499999J-1400000D01*
G01*
X130729999Y-131950001D02*
G75*
G03*
X130729999Y-134750000I-4999999J-1400000D01*
G01*
%TO.C,J2*%
X169320000Y-134720000D02*
X171980000Y-134720000D01*
X171980000Y-134720000D02*
X171980000Y-142400000D01*
X169320000Y-132120000D02*
X170650000Y-132120000D01*
X169320000Y-133450000D02*
X169320000Y-132120000D01*
X169320000Y-142400000D02*
X171980000Y-142400000D01*
X169320000Y-134720000D02*
X169320000Y-142400000D01*
%TO.C,J1*%
X165690000Y-131080000D02*
X170830000Y-131080000D01*
X165690000Y-131080000D02*
X165690000Y-128420000D01*
X170830000Y-131080000D02*
X170830000Y-128420000D01*
X164420000Y-131080000D02*
X163090000Y-131080000D01*
X163090000Y-131080000D02*
X163090000Y-129750000D01*
X165690000Y-128420000D02*
X170830000Y-128420000D01*
%TO.C,D4*%
X171092000Y-89685000D02*
X168252000Y-89685000D01*
X169672000Y-94645000D02*
X169672000Y-92525000D01*
X171092000Y-89805000D02*
X168252000Y-89805000D01*
X171092000Y-89085000D02*
X168252000Y-89085000D01*
X168252000Y-89085000D02*
X168252000Y-92525000D01*
X171092000Y-89565000D02*
X168252000Y-89565000D01*
X169672000Y-86965000D02*
X169672000Y-89085000D01*
X168252000Y-92525000D02*
X171092000Y-92525000D01*
X171092000Y-92525000D02*
X171092000Y-89085000D01*
%TO.C,C1*%
X130167000Y-116886210D02*
X128040000Y-116886210D01*
X125960000Y-117887210D02*
X124210000Y-117887210D01*
X130110000Y-117127210D02*
X128040000Y-117127210D01*
X129916000Y-117647210D02*
X128040000Y-117647210D01*
X129690000Y-118047210D02*
X128040000Y-118047210D01*
X127802000Y-119407210D02*
X126198000Y-119407210D01*
X128350000Y-119207210D02*
X125650000Y-119207210D01*
X129224000Y-118607210D02*
X124776000Y-118607210D01*
X130189000Y-116766210D02*
X128040000Y-116766210D01*
X129766000Y-117927210D02*
X128040000Y-117927210D01*
X125960000Y-117967210D02*
X124258000Y-117967210D01*
X129548000Y-118247210D02*
X128040000Y-118247210D01*
X125960000Y-118407210D02*
X124584000Y-118407210D01*
X125960000Y-117047210D02*
X123869000Y-117047210D01*
X125960000Y-117367210D02*
X123967000Y-117367210D01*
X125960000Y-117807210D02*
X124166000Y-117807210D01*
X125960000Y-117407210D02*
X123982000Y-117407210D01*
X125960000Y-116846210D02*
X123825000Y-116846210D01*
X128059000Y-119327210D02*
X125941000Y-119327210D01*
X129876000Y-117727210D02*
X128040000Y-117727210D01*
X125960000Y-118487210D02*
X124657000Y-118487210D01*
X130206000Y-116646210D02*
X128040000Y-116646210D01*
X125960000Y-116646210D02*
X123794000Y-116646210D01*
X128944000Y-118847210D02*
X125056000Y-118847210D01*
X125960000Y-118327210D02*
X124516000Y-118327210D01*
X130218000Y-116526210D02*
X128040000Y-116526210D01*
X130086000Y-117207210D02*
X128040000Y-117207210D01*
X130061000Y-117287210D02*
X128040000Y-117287210D01*
X125960000Y-116886210D02*
X123833000Y-116886210D01*
X129305000Y-118527210D02*
X128040000Y-118527210D01*
X125960000Y-116606210D02*
X123789000Y-116606210D01*
X130047000Y-117327210D02*
X128040000Y-117327210D01*
X129044000Y-118767210D02*
X124956000Y-118767210D01*
X128581000Y-119087210D02*
X125419000Y-119087210D01*
X125960000Y-117647210D02*
X124084000Y-117647210D01*
X129896000Y-117687210D02*
X128040000Y-117687210D01*
X130230000Y-116246210D02*
X123770000Y-116246210D01*
X125960000Y-118527210D02*
X124695000Y-118527210D01*
X129154000Y-113060969D02*
X128524000Y-113060969D01*
X125960000Y-118287210D02*
X124484000Y-118287210D01*
X129834000Y-117807210D02*
X128040000Y-117807210D01*
X130211000Y-116606210D02*
X128040000Y-116606210D01*
X125960000Y-118047210D02*
X124310000Y-118047210D01*
X125960000Y-117487210D02*
X124014000Y-117487210D01*
X125960000Y-117327210D02*
X123953000Y-117327210D01*
X128262000Y-119247210D02*
X125738000Y-119247210D01*
X128432000Y-119167210D02*
X125568000Y-119167210D01*
X130182000Y-116806210D02*
X128040000Y-116806210D01*
X129790000Y-117887210D02*
X128040000Y-117887210D01*
X125960000Y-117247210D02*
X123926000Y-117247210D01*
X129092000Y-118727210D02*
X124908000Y-118727210D01*
X129416000Y-118407210D02*
X128040000Y-118407210D01*
X125960000Y-117927210D02*
X124234000Y-117927210D01*
X129812000Y-117847210D02*
X128040000Y-117847210D01*
X130150000Y-116967210D02*
X128040000Y-116967210D01*
X129182000Y-118647210D02*
X124818000Y-118647210D01*
X125960000Y-116806210D02*
X123818000Y-116806210D01*
X129664000Y-118087210D02*
X128040000Y-118087210D01*
X125960000Y-117447210D02*
X123998000Y-117447210D01*
X129934000Y-117607210D02*
X128040000Y-117607210D01*
X128890000Y-118887210D02*
X125110000Y-118887210D01*
X130201000Y-116686210D02*
X128040000Y-116686210D01*
X129742000Y-117967210D02*
X128040000Y-117967210D01*
X128714000Y-119007210D02*
X125286000Y-119007210D01*
X129952000Y-117567210D02*
X128040000Y-117567210D01*
X125960000Y-117287210D02*
X123939000Y-117287210D01*
X125960000Y-116686210D02*
X123799000Y-116686210D01*
X130227000Y-116406210D02*
X123773000Y-116406210D01*
X130215000Y-116566210D02*
X128040000Y-116566210D01*
X125960000Y-118367210D02*
X124550000Y-118367210D01*
X130002000Y-117447210D02*
X128040000Y-117447210D01*
X125960000Y-117847210D02*
X124188000Y-117847210D01*
X130098000Y-117167210D02*
X128040000Y-117167210D01*
X128509000Y-119127210D02*
X125491000Y-119127210D01*
X125960000Y-117527210D02*
X124030000Y-117527210D01*
X125960000Y-117767210D02*
X124144000Y-117767210D01*
X125960000Y-117127210D02*
X123890000Y-117127210D01*
X129986000Y-117487210D02*
X128040000Y-117487210D01*
X130033000Y-117367210D02*
X128040000Y-117367210D01*
X128995000Y-118807210D02*
X125005000Y-118807210D01*
X128650000Y-119047210D02*
X125350000Y-119047210D01*
X125960000Y-116926210D02*
X123841000Y-116926210D01*
X127633000Y-119447210D02*
X126367000Y-119447210D01*
X127940000Y-119367210D02*
X126060000Y-119367210D01*
X130195000Y-116726210D02*
X128040000Y-116726210D01*
X125960000Y-116766210D02*
X123811000Y-116766210D01*
X128776000Y-118967210D02*
X125224000Y-118967210D01*
X129578000Y-118207210D02*
X128040000Y-118207210D01*
X130121000Y-117087210D02*
X128040000Y-117087210D01*
X130175000Y-116846210D02*
X128040000Y-116846210D01*
X125960000Y-117007210D02*
X123859000Y-117007210D01*
X129137000Y-118687210D02*
X124863000Y-118687210D01*
X125960000Y-118087210D02*
X124336000Y-118087210D01*
X129636000Y-118127210D02*
X128040000Y-118127210D01*
X129607000Y-118167210D02*
X128040000Y-118167210D01*
X128165000Y-119287210D02*
X125835000Y-119287210D01*
X125960000Y-118447210D02*
X124620000Y-118447210D01*
X130222000Y-116486210D02*
X128040000Y-116486210D01*
X125960000Y-118207210D02*
X124422000Y-118207210D01*
X125960000Y-116486210D02*
X123778000Y-116486210D01*
X125960000Y-117567210D02*
X124048000Y-117567210D01*
X125960000Y-118167210D02*
X124393000Y-118167210D01*
X128834000Y-118927210D02*
X125166000Y-118927210D01*
X130018000Y-117407210D02*
X128040000Y-117407210D01*
X130228000Y-116366210D02*
X123772000Y-116366210D01*
X129450000Y-118367210D02*
X128040000Y-118367210D01*
X129343000Y-118487210D02*
X128040000Y-118487210D01*
X125960000Y-117207210D02*
X123914000Y-117207210D01*
X125960000Y-118247210D02*
X124452000Y-118247210D01*
X130074000Y-117247210D02*
X128040000Y-117247210D01*
X129265000Y-118567210D02*
X124735000Y-118567210D01*
X125960000Y-117687210D02*
X124104000Y-117687210D01*
X125960000Y-117607210D02*
X124066000Y-117607210D01*
X125960000Y-117727210D02*
X124124000Y-117727210D01*
X125960000Y-118007210D02*
X124284000Y-118007210D01*
X128839000Y-112745969D02*
X128839000Y-113375969D01*
X130230000Y-116286210D02*
X123770000Y-116286210D01*
X125960000Y-116726210D02*
X123805000Y-116726210D01*
X125960000Y-116967210D02*
X123850000Y-116967210D01*
X129970000Y-117527210D02*
X128040000Y-117527210D01*
X129716000Y-118007210D02*
X128040000Y-118007210D01*
X130141000Y-117007210D02*
X128040000Y-117007210D01*
X129380000Y-118447210D02*
X128040000Y-118447210D01*
X125960000Y-116566210D02*
X123785000Y-116566210D01*
X129516000Y-118287210D02*
X128040000Y-118287210D01*
X127402000Y-119487210D02*
X126598000Y-119487210D01*
X129484000Y-118327210D02*
X128040000Y-118327210D01*
X125960000Y-117087210D02*
X123879000Y-117087210D01*
X129856000Y-117767210D02*
X128040000Y-117767210D01*
X125960000Y-118127210D02*
X124364000Y-118127210D01*
X125960000Y-116526210D02*
X123782000Y-116526210D01*
X130230000Y-116326210D02*
X123770000Y-116326210D01*
X130131000Y-117047210D02*
X128040000Y-117047210D01*
X125960000Y-117167210D02*
X123902000Y-117167210D01*
X130224000Y-116446210D02*
X123776000Y-116446210D01*
X130159000Y-116926210D02*
X128040000Y-116926210D01*
X130270000Y-116246210D02*
G75*
G03*
X130270000Y-116246210I-3270000J0D01*
G01*
%TO.C,REF\u002A\u002A*%
G36*
X131055814Y-103718931D02*
G01*
X131139635Y-104163555D01*
X131448920Y-104291053D01*
X131758206Y-104418551D01*
X132129246Y-104166246D01*
X132233157Y-104095996D01*
X132327087Y-104033272D01*
X132406652Y-103980938D01*
X132467470Y-103941857D01*
X132505157Y-103918893D01*
X132515421Y-103913942D01*
X132533910Y-103926676D01*
X132573420Y-103961882D01*
X132629522Y-104015062D01*
X132697787Y-104081718D01*
X132773786Y-104157354D01*
X132853092Y-104237472D01*
X132931275Y-104317574D01*
X133003907Y-104393164D01*
X133066559Y-104459745D01*
X133114803Y-104512818D01*
X133144210Y-104547887D01*
X133151241Y-104559623D01*
X133141123Y-104581260D01*
X133112759Y-104628662D01*
X133069129Y-104697193D01*
X133013218Y-104782215D01*
X132948006Y-104879093D01*
X132910219Y-104934350D01*
X132841343Y-105035248D01*
X132780140Y-105126299D01*
X132729578Y-105202970D01*
X132692628Y-105260728D01*
X132672258Y-105295043D01*
X132669197Y-105302254D01*
X132676136Y-105322748D01*
X132695051Y-105370513D01*
X132723087Y-105438832D01*
X132757391Y-105520989D01*
X132795109Y-105610270D01*
X132833387Y-105699958D01*
X132869370Y-105783338D01*
X132900206Y-105853694D01*
X132923039Y-105904310D01*
X132935017Y-105928471D01*
X132935724Y-105929422D01*
X132954531Y-105934036D01*
X133004618Y-105944328D01*
X133080793Y-105959287D01*
X133177865Y-105977901D01*
X133290643Y-105999159D01*
X133356442Y-106011418D01*
X133476950Y-106034362D01*
X133585797Y-106056195D01*
X133677476Y-106075722D01*
X133746481Y-106091748D01*
X133787304Y-106103079D01*
X133795511Y-106106674D01*
X133803548Y-106131006D01*
X133810033Y-106185959D01*
X133814970Y-106265108D01*
X133818364Y-106362026D01*
X133820218Y-106470287D01*
X133820538Y-106583465D01*
X133819327Y-106695135D01*
X133816590Y-106798868D01*
X133812331Y-106888241D01*
X133806555Y-106956826D01*
X133799267Y-106998197D01*
X133794895Y-107006810D01*
X133768764Y-107017133D01*
X133713393Y-107031892D01*
X133636107Y-107049352D01*
X133544230Y-107067780D01*
X133512158Y-107073741D01*
X133357524Y-107102066D01*
X133235375Y-107124876D01*
X133141673Y-107143080D01*
X133072384Y-107157583D01*
X133023471Y-107169292D01*
X132990897Y-107179115D01*
X132970628Y-107187956D01*
X132958626Y-107196724D01*
X132956947Y-107198457D01*
X132940184Y-107226371D01*
X132914614Y-107280695D01*
X132882788Y-107354777D01*
X132847260Y-107441965D01*
X132810583Y-107535608D01*
X132775311Y-107629052D01*
X132743996Y-107715647D01*
X132719193Y-107788740D01*
X132703454Y-107841678D01*
X132699332Y-107867811D01*
X132699676Y-107868726D01*
X132713641Y-107890086D01*
X132745322Y-107937084D01*
X132791391Y-108004827D01*
X132848518Y-108088423D01*
X132913373Y-108182982D01*
X132931843Y-108209854D01*
X132997699Y-108307275D01*
X133055650Y-108396163D01*
X133102538Y-108471412D01*
X133135207Y-108527920D01*
X133150500Y-108560581D01*
X133151241Y-108564593D01*
X133138392Y-108585684D01*
X133102888Y-108627464D01*
X133049293Y-108685445D01*
X132982171Y-108755135D01*
X132906087Y-108832045D01*
X132825604Y-108911683D01*
X132745287Y-108989561D01*
X132669699Y-109061186D01*
X132603405Y-109122070D01*
X132550969Y-109167721D01*
X132516955Y-109193650D01*
X132507545Y-109197883D01*
X132485643Y-109187912D01*
X132440800Y-109161020D01*
X132380321Y-109121736D01*
X132333789Y-109090117D01*
X132249475Y-109032098D01*
X132149626Y-108963784D01*
X132049473Y-108895579D01*
X131995627Y-108859075D01*
X131813371Y-108735800D01*
X131660381Y-108818520D01*
X131590682Y-108854759D01*
X131531414Y-108882926D01*
X131491311Y-108898991D01*
X131481103Y-108901226D01*
X131468829Y-108884722D01*
X131444613Y-108838082D01*
X131410263Y-108765609D01*
X131367588Y-108671606D01*
X131318394Y-108560374D01*
X131264490Y-108436215D01*
X131207684Y-108303432D01*
X131149782Y-108166327D01*
X131092593Y-108029202D01*
X131037924Y-107896358D01*
X130987584Y-107772098D01*
X130943380Y-107660725D01*
X130907119Y-107566539D01*
X130880609Y-107493844D01*
X130865658Y-107446941D01*
X130863254Y-107430833D01*
X130882311Y-107410286D01*
X130924036Y-107376933D01*
X130979706Y-107337702D01*
X130984378Y-107334599D01*
X131128264Y-107219423D01*
X131244283Y-107085053D01*
X131331430Y-106935784D01*
X131388699Y-106775913D01*
X131415086Y-106609737D01*
X131409585Y-106441552D01*
X131371190Y-106275655D01*
X131298895Y-106116342D01*
X131277626Y-106081487D01*
X131166996Y-105940737D01*
X131036302Y-105827714D01*
X130890064Y-105743003D01*
X130732808Y-105687194D01*
X130569057Y-105660874D01*
X130403333Y-105664630D01*
X130240162Y-105699050D01*
X130084065Y-105764723D01*
X129939567Y-105862235D01*
X129894869Y-105901813D01*
X129781112Y-106025703D01*
X129698218Y-106156124D01*
X129641356Y-106302315D01*
X129609687Y-106447088D01*
X129601869Y-106609860D01*
X129627938Y-106773440D01*
X129685245Y-106932298D01*
X129771144Y-107080906D01*
X129882986Y-107213735D01*
X130018123Y-107325256D01*
X130035883Y-107337011D01*
X130092150Y-107375508D01*
X130134923Y-107408863D01*
X130155372Y-107430160D01*
X130155669Y-107430833D01*
X130151279Y-107453871D01*
X130133876Y-107506157D01*
X130105268Y-107583390D01*
X130067265Y-107681268D01*
X130021674Y-107795491D01*
X129970303Y-107921758D01*
X129914962Y-108055767D01*
X129857458Y-108193218D01*
X129799601Y-108329808D01*
X129743198Y-108461237D01*
X129690058Y-108583205D01*
X129641990Y-108691409D01*
X129600801Y-108781549D01*
X129568301Y-108849323D01*
X129546297Y-108890430D01*
X129537436Y-108901226D01*
X129510360Y-108892819D01*
X129459697Y-108870272D01*
X129394183Y-108837613D01*
X129358159Y-108818520D01*
X129205168Y-108735800D01*
X129022912Y-108859075D01*
X128929875Y-108922228D01*
X128828015Y-108991727D01*
X128732562Y-109057165D01*
X128684750Y-109090117D01*
X128617505Y-109135273D01*
X128560564Y-109171057D01*
X128521354Y-109192938D01*
X128508619Y-109197563D01*
X128490083Y-109185085D01*
X128449059Y-109150252D01*
X128389525Y-109096678D01*
X128315458Y-109027983D01*
X128230835Y-108947781D01*
X128177315Y-108896286D01*
X128083681Y-108804286D01*
X128002759Y-108721999D01*
X127937823Y-108652945D01*
X127892142Y-108600644D01*
X127868989Y-108568616D01*
X127866768Y-108562116D01*
X127877076Y-108537394D01*
X127905561Y-108487405D01*
X127949063Y-108417212D01*
X128004423Y-108331875D01*
X128068480Y-108236456D01*
X128086697Y-108209854D01*
X128153073Y-108113167D01*
X128212622Y-108026117D01*
X128262016Y-107953595D01*
X128297925Y-107900493D01*
X128317019Y-107871703D01*
X128318864Y-107868726D01*
X128316105Y-107845782D01*
X128301462Y-107795336D01*
X128277487Y-107724041D01*
X128246734Y-107638547D01*
X128211756Y-107545507D01*
X128175107Y-107451574D01*
X128139339Y-107363399D01*
X128107006Y-107287634D01*
X128080662Y-107230931D01*
X128062858Y-107199943D01*
X128061593Y-107198457D01*
X128050706Y-107189601D01*
X128032318Y-107180843D01*
X128002394Y-107171277D01*
X127956897Y-107159996D01*
X127891791Y-107146093D01*
X127803039Y-107128663D01*
X127686607Y-107106798D01*
X127538458Y-107079591D01*
X127506382Y-107073741D01*
X127411314Y-107055374D01*
X127328435Y-107037405D01*
X127265070Y-107021569D01*
X127228542Y-107009600D01*
X127223644Y-107006810D01*
X127215573Y-106982072D01*
X127209013Y-106926790D01*
X127203967Y-106847389D01*
X127200441Y-106750296D01*
X127198439Y-106641938D01*
X127197964Y-106528740D01*
X127199023Y-106417128D01*
X127201618Y-106313529D01*
X127205754Y-106224368D01*
X127211437Y-106156072D01*
X127218669Y-106115066D01*
X127223029Y-106106674D01*
X127247302Y-106098208D01*
X127302574Y-106084435D01*
X127383338Y-106066550D01*
X127484088Y-106045748D01*
X127599317Y-106023223D01*
X127662098Y-106011418D01*
X127781213Y-105989151D01*
X127887435Y-105968979D01*
X127975573Y-105951915D01*
X128040434Y-105938969D01*
X128076826Y-105931155D01*
X128082816Y-105929422D01*
X128092939Y-105909890D01*
X128114338Y-105862843D01*
X128144161Y-105795003D01*
X128179555Y-105713091D01*
X128217668Y-105623828D01*
X128255647Y-105533935D01*
X128290640Y-105450135D01*
X128319794Y-105379147D01*
X128340257Y-105327694D01*
X128349177Y-105302497D01*
X128349343Y-105301396D01*
X128339231Y-105281519D01*
X128310883Y-105235777D01*
X128267277Y-105168717D01*
X128211394Y-105084884D01*
X128146213Y-104988826D01*
X128108321Y-104933650D01*
X128039275Y-104832481D01*
X127977950Y-104740630D01*
X127927337Y-104662744D01*
X127890429Y-104603469D01*
X127870218Y-104567451D01*
X127867299Y-104559377D01*
X127879847Y-104540584D01*
X127914537Y-104500457D01*
X127966937Y-104443493D01*
X128032616Y-104374185D01*
X128107144Y-104297031D01*
X128186087Y-104216525D01*
X128265017Y-104137163D01*
X128339500Y-104063440D01*
X128405106Y-103999852D01*
X128457404Y-103950894D01*
X128491961Y-103921061D01*
X128503522Y-103913942D01*
X128522346Y-103923953D01*
X128567369Y-103952078D01*
X128634213Y-103995454D01*
X128718501Y-104051218D01*
X128815856Y-104116506D01*
X128889293Y-104166246D01*
X129260333Y-104418551D01*
X129878905Y-104163555D01*
X129962725Y-103718931D01*
X130046546Y-103274307D01*
X130971994Y-103274307D01*
X131055814Y-103718931D01*
G37*
D15*
X131055814Y-103718931D02*
X131139635Y-104163555D01*
X131448920Y-104291053D01*
X131758206Y-104418551D01*
X132129246Y-104166246D01*
X132233157Y-104095996D01*
X132327087Y-104033272D01*
X132406652Y-103980938D01*
X132467470Y-103941857D01*
X132505157Y-103918893D01*
X132515421Y-103913942D01*
X132533910Y-103926676D01*
X132573420Y-103961882D01*
X132629522Y-104015062D01*
X132697787Y-104081718D01*
X132773786Y-104157354D01*
X132853092Y-104237472D01*
X132931275Y-104317574D01*
X133003907Y-104393164D01*
X133066559Y-104459745D01*
X133114803Y-104512818D01*
X133144210Y-104547887D01*
X133151241Y-104559623D01*
X133141123Y-104581260D01*
X133112759Y-104628662D01*
X133069129Y-104697193D01*
X133013218Y-104782215D01*
X132948006Y-104879093D01*
X132910219Y-104934350D01*
X132841343Y-105035248D01*
X132780140Y-105126299D01*
X132729578Y-105202970D01*
X132692628Y-105260728D01*
X132672258Y-105295043D01*
X132669197Y-105302254D01*
X132676136Y-105322748D01*
X132695051Y-105370513D01*
X132723087Y-105438832D01*
X132757391Y-105520989D01*
X132795109Y-105610270D01*
X132833387Y-105699958D01*
X132869370Y-105783338D01*
X132900206Y-105853694D01*
X132923039Y-105904310D01*
X132935017Y-105928471D01*
X132935724Y-105929422D01*
X132954531Y-105934036D01*
X133004618Y-105944328D01*
X133080793Y-105959287D01*
X133177865Y-105977901D01*
X133290643Y-105999159D01*
X133356442Y-106011418D01*
X133476950Y-106034362D01*
X133585797Y-106056195D01*
X133677476Y-106075722D01*
X133746481Y-106091748D01*
X133787304Y-106103079D01*
X133795511Y-106106674D01*
X133803548Y-106131006D01*
X133810033Y-106185959D01*
X133814970Y-106265108D01*
X133818364Y-106362026D01*
X133820218Y-106470287D01*
X133820538Y-106583465D01*
X133819327Y-106695135D01*
X133816590Y-106798868D01*
X133812331Y-106888241D01*
X133806555Y-106956826D01*
X133799267Y-106998197D01*
X133794895Y-107006810D01*
X133768764Y-107017133D01*
X133713393Y-107031892D01*
X133636107Y-107049352D01*
X133544230Y-107067780D01*
X133512158Y-107073741D01*
X133357524Y-107102066D01*
X133235375Y-107124876D01*
X133141673Y-107143080D01*
X133072384Y-107157583D01*
X133023471Y-107169292D01*
X132990897Y-107179115D01*
X132970628Y-107187956D01*
X132958626Y-107196724D01*
X132956947Y-107198457D01*
X132940184Y-107226371D01*
X132914614Y-107280695D01*
X132882788Y-107354777D01*
X132847260Y-107441965D01*
X132810583Y-107535608D01*
X132775311Y-107629052D01*
X132743996Y-107715647D01*
X132719193Y-107788740D01*
X132703454Y-107841678D01*
X132699332Y-107867811D01*
X132699676Y-107868726D01*
X132713641Y-107890086D01*
X132745322Y-107937084D01*
X132791391Y-108004827D01*
X132848518Y-108088423D01*
X132913373Y-108182982D01*
X132931843Y-108209854D01*
X132997699Y-108307275D01*
X133055650Y-108396163D01*
X133102538Y-108471412D01*
X133135207Y-108527920D01*
X133150500Y-108560581D01*
X133151241Y-108564593D01*
X133138392Y-108585684D01*
X133102888Y-108627464D01*
X133049293Y-108685445D01*
X132982171Y-108755135D01*
X132906087Y-108832045D01*
X132825604Y-108911683D01*
X132745287Y-108989561D01*
X132669699Y-109061186D01*
X132603405Y-109122070D01*
X132550969Y-109167721D01*
X132516955Y-109193650D01*
X132507545Y-109197883D01*
X132485643Y-109187912D01*
X132440800Y-109161020D01*
X132380321Y-109121736D01*
X132333789Y-109090117D01*
X132249475Y-109032098D01*
X132149626Y-108963784D01*
X132049473Y-108895579D01*
X131995627Y-108859075D01*
X131813371Y-108735800D01*
X131660381Y-108818520D01*
X131590682Y-108854759D01*
X131531414Y-108882926D01*
X131491311Y-108898991D01*
X131481103Y-108901226D01*
X131468829Y-108884722D01*
X131444613Y-108838082D01*
X131410263Y-108765609D01*
X131367588Y-108671606D01*
X131318394Y-108560374D01*
X131264490Y-108436215D01*
X131207684Y-108303432D01*
X131149782Y-108166327D01*
X131092593Y-108029202D01*
X131037924Y-107896358D01*
X130987584Y-107772098D01*
X130943380Y-107660725D01*
X130907119Y-107566539D01*
X130880609Y-107493844D01*
X130865658Y-107446941D01*
X130863254Y-107430833D01*
X130882311Y-107410286D01*
X130924036Y-107376933D01*
X130979706Y-107337702D01*
X130984378Y-107334599D01*
X131128264Y-107219423D01*
X131244283Y-107085053D01*
X131331430Y-106935784D01*
X131388699Y-106775913D01*
X131415086Y-106609737D01*
X131409585Y-106441552D01*
X131371190Y-106275655D01*
X131298895Y-106116342D01*
X131277626Y-106081487D01*
X131166996Y-105940737D01*
X131036302Y-105827714D01*
X130890064Y-105743003D01*
X130732808Y-105687194D01*
X130569057Y-105660874D01*
X130403333Y-105664630D01*
X130240162Y-105699050D01*
X130084065Y-105764723D01*
X129939567Y-105862235D01*
X129894869Y-105901813D01*
X129781112Y-106025703D01*
X129698218Y-106156124D01*
X129641356Y-106302315D01*
X129609687Y-106447088D01*
X129601869Y-106609860D01*
X129627938Y-106773440D01*
X129685245Y-106932298D01*
X129771144Y-107080906D01*
X129882986Y-107213735D01*
X130018123Y-107325256D01*
X130035883Y-107337011D01*
X130092150Y-107375508D01*
X130134923Y-107408863D01*
X130155372Y-107430160D01*
X130155669Y-107430833D01*
X130151279Y-107453871D01*
X130133876Y-107506157D01*
X130105268Y-107583390D01*
X130067265Y-107681268D01*
X130021674Y-107795491D01*
X129970303Y-107921758D01*
X129914962Y-108055767D01*
X129857458Y-108193218D01*
X129799601Y-108329808D01*
X129743198Y-108461237D01*
X129690058Y-108583205D01*
X129641990Y-108691409D01*
X129600801Y-108781549D01*
X129568301Y-108849323D01*
X129546297Y-108890430D01*
X129537436Y-108901226D01*
X129510360Y-108892819D01*
X129459697Y-108870272D01*
X129394183Y-108837613D01*
X129358159Y-108818520D01*
X129205168Y-108735800D01*
X129022912Y-108859075D01*
X128929875Y-108922228D01*
X128828015Y-108991727D01*
X128732562Y-109057165D01*
X128684750Y-109090117D01*
X128617505Y-109135273D01*
X128560564Y-109171057D01*
X128521354Y-109192938D01*
X128508619Y-109197563D01*
X128490083Y-109185085D01*
X128449059Y-109150252D01*
X128389525Y-109096678D01*
X128315458Y-109027983D01*
X128230835Y-108947781D01*
X128177315Y-108896286D01*
X128083681Y-108804286D01*
X128002759Y-108721999D01*
X127937823Y-108652945D01*
X127892142Y-108600644D01*
X127868989Y-108568616D01*
X127866768Y-108562116D01*
X127877076Y-108537394D01*
X127905561Y-108487405D01*
X127949063Y-108417212D01*
X128004423Y-108331875D01*
X128068480Y-108236456D01*
X128086697Y-108209854D01*
X128153073Y-108113167D01*
X128212622Y-108026117D01*
X128262016Y-107953595D01*
X128297925Y-107900493D01*
X128317019Y-107871703D01*
X128318864Y-107868726D01*
X128316105Y-107845782D01*
X128301462Y-107795336D01*
X128277487Y-107724041D01*
X128246734Y-107638547D01*
X128211756Y-107545507D01*
X128175107Y-107451574D01*
X128139339Y-107363399D01*
X128107006Y-107287634D01*
X128080662Y-107230931D01*
X128062858Y-107199943D01*
X128061593Y-107198457D01*
X128050706Y-107189601D01*
X128032318Y-107180843D01*
X128002394Y-107171277D01*
X127956897Y-107159996D01*
X127891791Y-107146093D01*
X127803039Y-107128663D01*
X127686607Y-107106798D01*
X127538458Y-107079591D01*
X127506382Y-107073741D01*
X127411314Y-107055374D01*
X127328435Y-107037405D01*
X127265070Y-107021569D01*
X127228542Y-107009600D01*
X127223644Y-107006810D01*
X127215573Y-106982072D01*
X127209013Y-106926790D01*
X127203967Y-106847389D01*
X127200441Y-106750296D01*
X127198439Y-106641938D01*
X127197964Y-106528740D01*
X127199023Y-106417128D01*
X127201618Y-106313529D01*
X127205754Y-106224368D01*
X127211437Y-106156072D01*
X127218669Y-106115066D01*
X127223029Y-106106674D01*
X127247302Y-106098208D01*
X127302574Y-106084435D01*
X127383338Y-106066550D01*
X127484088Y-106045748D01*
X127599317Y-106023223D01*
X127662098Y-106011418D01*
X127781213Y-105989151D01*
X127887435Y-105968979D01*
X127975573Y-105951915D01*
X128040434Y-105938969D01*
X128076826Y-105931155D01*
X128082816Y-105929422D01*
X128092939Y-105909890D01*
X128114338Y-105862843D01*
X128144161Y-105795003D01*
X128179555Y-105713091D01*
X128217668Y-105623828D01*
X128255647Y-105533935D01*
X128290640Y-105450135D01*
X128319794Y-105379147D01*
X128340257Y-105327694D01*
X128349177Y-105302497D01*
X128349343Y-105301396D01*
X128339231Y-105281519D01*
X128310883Y-105235777D01*
X128267277Y-105168717D01*
X128211394Y-105084884D01*
X128146213Y-104988826D01*
X128108321Y-104933650D01*
X128039275Y-104832481D01*
X127977950Y-104740630D01*
X127927337Y-104662744D01*
X127890429Y-104603469D01*
X127870218Y-104567451D01*
X127867299Y-104559377D01*
X127879847Y-104540584D01*
X127914537Y-104500457D01*
X127966937Y-104443493D01*
X128032616Y-104374185D01*
X128107144Y-104297031D01*
X128186087Y-104216525D01*
X128265017Y-104137163D01*
X128339500Y-104063440D01*
X128405106Y-103999852D01*
X128457404Y-103950894D01*
X128491961Y-103921061D01*
X128503522Y-103913942D01*
X128522346Y-103923953D01*
X128567369Y-103952078D01*
X128634213Y-103995454D01*
X128718501Y-104051218D01*
X128815856Y-104116506D01*
X128889293Y-104166246D01*
X129260333Y-104418551D01*
X129878905Y-104163555D01*
X129962725Y-103718931D01*
X130046546Y-103274307D01*
X130971994Y-103274307D01*
X131055814Y-103718931D01*
D14*
%TO.C,D2*%
X127785000Y-92105000D02*
X124945000Y-92105000D01*
X127785000Y-95065000D02*
X127785000Y-91625000D01*
X127785000Y-92225000D02*
X124945000Y-92225000D01*
X124945000Y-95065000D02*
X127785000Y-95065000D01*
X126365000Y-89505000D02*
X126365000Y-91625000D01*
X124945000Y-91625000D02*
X124945000Y-95065000D01*
X126365000Y-97185000D02*
X126365000Y-95065000D01*
X127785000Y-92345000D02*
X124945000Y-92345000D01*
X127785000Y-91625000D02*
X124945000Y-91625000D01*
%TO.C,D1*%
X118925000Y-110220000D02*
X113485000Y-110220000D01*
X118925000Y-118535000D02*
X118925000Y-108795000D01*
X113485000Y-108795000D02*
X113485000Y-118535000D01*
X118925000Y-110340000D02*
X113485000Y-110340000D01*
X118925000Y-108795000D02*
X113485000Y-108795000D01*
X113485000Y-118535000D02*
X118925000Y-118535000D01*
X116205000Y-119445000D02*
X116205000Y-118535000D01*
X116205000Y-107885000D02*
X116205000Y-108795000D01*
X118925000Y-110460000D02*
X113485000Y-110460000D01*
%TO.C,R1*%
X132556000Y-76354000D02*
X126016000Y-76354000D01*
X126016000Y-76354000D02*
X126016000Y-79094000D01*
X125246000Y-77724000D02*
X126016000Y-77724000D01*
X133326000Y-77724000D02*
X132556000Y-77724000D01*
X126016000Y-79094000D02*
X132556000Y-79094000D01*
X132556000Y-79094000D02*
X132556000Y-76354000D01*
%TO.C,C3*%
X122913000Y-107378000D02*
X122913000Y-114618000D01*
X122913000Y-107378000D02*
X120673000Y-107378000D01*
X122913000Y-114618000D02*
X120673000Y-114618000D01*
X120673000Y-107378000D02*
X120673000Y-114618000D01*
%TO.C,U2*%
X154765000Y-128905000D02*
X157305000Y-128905000D01*
X138875000Y-121245000D02*
X154765000Y-121245000D01*
X154765000Y-131485000D02*
X154765000Y-121245000D01*
X154765000Y-123825000D02*
X157305000Y-123825000D01*
X154765000Y-126365000D02*
X157305000Y-126365000D01*
X138875000Y-131485000D02*
X138875000Y-121245000D01*
X138875000Y-131485000D02*
X154765000Y-131485000D01*
%TD*%
M02*
