%TF.GenerationSoftware,KiCad,Pcbnew,6.0.11+dfsg-1*%
%TF.CreationDate,2023-11-07T11:39:56+00:00*%
%TF.ProjectId,bb2a,62623261-2e6b-4696-9361-645f70636258,rev?*%
%TF.SameCoordinates,Original*%
%TF.FileFunction,Copper,L1,Top*%
%TF.FilePolarity,Positive*%
%FSLAX46Y46*%
G04 Gerber Fmt 4.6, Leading zero omitted, Abs format (unit mm)*
G04 Created by KiCad (PCBNEW 6.0.11+dfsg-1) date 2023-11-07 11:39:56*
%MOMM*%
%LPD*%
G01*
G04 APERTURE LIST*
%TA.AperFunction,ComponentPad*%
%ADD10R,1.600000X1.600000*%
%TD*%
%TA.AperFunction,ComponentPad*%
%ADD11O,1.600000X1.600000*%
%TD*%
%TA.AperFunction,ComponentPad*%
%ADD12C,1.600000*%
%TD*%
%TA.AperFunction,ComponentPad*%
%ADD13R,2.000000X2.000000*%
%TD*%
%TA.AperFunction,ComponentPad*%
%ADD14O,2.000000X2.000000*%
%TD*%
%TA.AperFunction,ComponentPad*%
%ADD15C,0.700000*%
%TD*%
%TA.AperFunction,ComponentPad*%
%ADD16C,4.400000*%
%TD*%
%TA.AperFunction,ComponentPad*%
%ADD17R,2.400000X2.400000*%
%TD*%
%TA.AperFunction,ComponentPad*%
%ADD18O,2.400000X2.400000*%
%TD*%
%TA.AperFunction,ComponentPad*%
%ADD19R,1.800000X1.800000*%
%TD*%
%TA.AperFunction,ComponentPad*%
%ADD20O,1.800000X1.800000*%
%TD*%
%TA.AperFunction,ComponentPad*%
%ADD21C,2.000000*%
%TD*%
%TA.AperFunction,ComponentPad*%
%ADD22R,1.700000X1.700000*%
%TD*%
%TA.AperFunction,ComponentPad*%
%ADD23O,1.700000X1.700000*%
%TD*%
%TA.AperFunction,ComponentPad*%
%ADD24R,3.200000X3.200000*%
%TD*%
%TA.AperFunction,ComponentPad*%
%ADD25O,3.200000X3.200000*%
%TD*%
%TA.AperFunction,ComponentPad*%
%ADD26R,2.000000X1.905000*%
%TD*%
%TA.AperFunction,ComponentPad*%
%ADD27O,2.000000X1.905000*%
%TD*%
%TA.AperFunction,ViaPad*%
%ADD28C,1.270000*%
%TD*%
%TA.AperFunction,Conductor*%
%ADD29C,0.635000*%
%TD*%
%TA.AperFunction,Conductor*%
%ADD30C,1.905000*%
%TD*%
%TA.AperFunction,Conductor*%
%ADD31C,1.270000*%
%TD*%
G04 APERTURE END LIST*
D10*
%TO.P,U3,1,VCC*%
%TO.N,+12V*%
X130185000Y-100970000D03*
D11*
%TO.P,U3,2,~{HIN1}*%
%TO.N,/Motor Control/U_PULL_HIGH_LOGIC*%
X132725000Y-100970000D03*
%TO.P,U3,3,~{HIN2}*%
%TO.N,/Motor Control/V_PULL_HIGH_LOGIC*%
X135265000Y-100970000D03*
%TO.P,U3,4,~{HIN3}*%
%TO.N,/Motor Control/W_PULL_HIGH_LOGIC*%
X137805000Y-100970000D03*
%TO.P,U3,5,~{LIN1}*%
%TO.N,/Motor Control/U_PULL_LOW_LOGIC*%
X140345000Y-100970000D03*
%TO.P,U3,6,~{LIN2}*%
%TO.N,/Motor Control/V_PULL_LOW_LOGIC*%
X142885000Y-100970000D03*
%TO.P,U3,7,~{LIN3}*%
%TO.N,/Motor Control/W_PULL_LOW_LOGIC*%
X145425000Y-100970000D03*
%TO.P,U3,8,~{FAULT}*%
%TO.N,/Motor Control/FAULT_LOGIC*%
X147965000Y-100970000D03*
%TO.P,U3,9,ITRIP*%
%TO.N,GNDPWR*%
X150505000Y-100970000D03*
%TO.P,U3,10,CAO*%
%TO.N,unconnected-(U3-Pad10)*%
X153045000Y-100970000D03*
%TO.P,U3,11,CA-*%
%TO.N,unconnected-(U3-Pad11)*%
X155585000Y-100970000D03*
%TO.P,U3,12,VSS*%
%TO.N,GNDPWR*%
X158125000Y-100970000D03*
%TO.P,U3,13,VS0*%
X160665000Y-100970000D03*
%TO.P,U3,14,LO3*%
%TO.N,/Motor Control/W_LOW_SIDE_DRIVE*%
X163205000Y-100970000D03*
%TO.P,U3,15,LO2*%
%TO.N,/Motor Control/V_LOW_SIDE_DRIVE*%
X163205000Y-85730000D03*
%TO.P,U3,16,LO1*%
%TO.N,/Motor Control/U_LOW_SIDE_DRIVE*%
X160665000Y-85730000D03*
%TO.P,U3,17*%
%TO.N,N/C*%
X158125000Y-85730000D03*
%TO.P,U3,18,VS3*%
%TO.N,/Motor Control/MOTOR_W*%
X155585000Y-85730000D03*
%TO.P,U3,19,HO3*%
%TO.N,Net-(R3-Pad1)*%
X153045000Y-85730000D03*
%TO.P,U3,20,VB3*%
%TO.N,Net-(C6-Pad1)*%
X150505000Y-85730000D03*
%TO.P,U3,21*%
%TO.N,N/C*%
X147965000Y-85730000D03*
%TO.P,U3,22,VS2*%
%TO.N,/Motor Control/MOTOR_V*%
X145425000Y-85730000D03*
%TO.P,U3,23,HO2*%
%TO.N,Net-(R2-Pad1)*%
X142885000Y-85730000D03*
%TO.P,U3,24,VB2*%
%TO.N,Net-(C5-Pad1)*%
X140345000Y-85730000D03*
%TO.P,U3,25*%
%TO.N,N/C*%
X137805000Y-85730000D03*
%TO.P,U3,26,VS1*%
%TO.N,/Motor Control/MOTOR U*%
X135265000Y-85730000D03*
%TO.P,U3,27,HO1*%
%TO.N,Net-(R1-Pad1)*%
X132725000Y-85730000D03*
%TO.P,U3,28,VB1*%
%TO.N,Net-(C4-Pad1)*%
X130185000Y-85730000D03*
%TD*%
D10*
%TO.P,C5,1*%
%TO.N,Net-(C5-Pad1)*%
X182245000Y-88474280D03*
D12*
%TO.P,C5,2*%
%TO.N,/Motor Control/MOTOR_V*%
X182245000Y-85974280D03*
%TD*%
D10*
%TO.P,C4,1*%
%TO.N,Net-(C4-Pad1)*%
X186055000Y-94959520D03*
D12*
%TO.P,C4,2*%
%TO.N,/Motor Control/MOTOR U*%
X186055000Y-92459520D03*
%TD*%
D10*
%TO.P,C6,1*%
%TO.N,Net-(C6-Pad1)*%
X186055000Y-81827380D03*
D12*
%TO.P,C6,2*%
%TO.N,/Motor Control/MOTOR_W*%
X186055000Y-79327380D03*
%TD*%
D13*
%TO.P,D3,1,K*%
%TO.N,Net-(C5-Pad1)*%
X173355000Y-85725000D03*
D14*
%TO.P,D3,2,A*%
%TO.N,+12V*%
X173355000Y-95885000D03*
%TD*%
D15*
%TO.P,H20,1,1*%
%TO.N,+5V*%
X165000000Y-138250000D03*
X163350000Y-139900000D03*
X163833274Y-141066726D03*
X166650000Y-139900000D03*
X163833274Y-138733274D03*
X166166726Y-138733274D03*
X166166726Y-141066726D03*
D16*
X165000000Y-139900000D03*
D15*
X165000000Y-141550000D03*
%TD*%
%TO.P,H5,1,1*%
%TO.N,/Motor Control/MOTOR_V*%
X144883274Y-71858274D03*
D16*
X146050000Y-73025000D03*
D15*
X147700000Y-73025000D03*
X144400000Y-73025000D03*
X146050000Y-74675000D03*
X147216726Y-71858274D03*
X147216726Y-74191726D03*
X144883274Y-74191726D03*
X146050000Y-71375000D03*
%TD*%
D17*
%TO.P,C2,1*%
%TO.N,+12V*%
X116205000Y-101854000D03*
D18*
%TO.P,C2,2*%
%TO.N,GNDPWR*%
X121285000Y-101854000D03*
%TD*%
D19*
%TO.P,U1,1,VIN*%
%TO.N,VCC*%
X139545000Y-112170000D03*
D20*
%TO.P,U1,2,OUT*%
%TO.N,Net-(D1-Pad1)*%
X135745000Y-113870000D03*
%TO.P,U1,3,GND*%
%TO.N,GNDPWR*%
X139545000Y-115570000D03*
%TO.P,U1,4,FB*%
%TO.N,+12V*%
X135745000Y-117270000D03*
%TO.P,U1,5,~{ON}/OFF*%
%TO.N,GNDPWR*%
X139545000Y-118970000D03*
%TD*%
D15*
%TO.P,H17,1,1*%
%TO.N,GNDPWR*%
X139596726Y-142333274D03*
X139596726Y-144666726D03*
X136780000Y-143500000D03*
X138430000Y-145150000D03*
X140080000Y-143500000D03*
X138430000Y-141850000D03*
X137263274Y-144666726D03*
D16*
X138430000Y-143500000D03*
D15*
X137263274Y-142333274D03*
%TD*%
%TO.P,H9,1,1*%
%TO.N,/Motor Control/W_LOW_SIDE_DRIVE*%
X170283274Y-74191726D03*
X172616726Y-71858274D03*
X171450000Y-71375000D03*
X172616726Y-74191726D03*
X169800000Y-73025000D03*
X171450000Y-74675000D03*
D16*
X171450000Y-73025000D03*
D15*
X173100000Y-73025000D03*
X170283274Y-71858274D03*
%TD*%
%TO.P,H21,1,1*%
%TO.N,GNDPWR*%
X160650000Y-139800000D03*
X160166726Y-138633274D03*
X160166726Y-140966726D03*
D16*
X159000000Y-139800000D03*
D15*
X157833274Y-140966726D03*
X157833274Y-138633274D03*
X159000000Y-138150000D03*
X157350000Y-139800000D03*
X159000000Y-141450000D03*
%TD*%
D12*
%TO.P,R2,1*%
%TO.N,Net-(R2-Pad1)*%
X149860000Y-79375000D03*
D11*
%TO.P,R2,2*%
%TO.N,/Motor Control/V_HIGH_SIDE_DRIVE*%
X139700000Y-79375000D03*
%TD*%
D10*
%TO.P,A1,1,D1/TX*%
%TO.N,unconnected-(A1-Pad1)*%
X174000000Y-104140000D03*
D11*
%TO.P,A1,2,D0/RX*%
%TO.N,unconnected-(A1-Pad2)*%
X174000000Y-106680000D03*
%TO.P,A1,3,~{RESET}*%
%TO.N,unconnected-(A1-Pad3)*%
X174000000Y-109220000D03*
%TO.P,A1,4,GND*%
%TO.N,GNDPWR*%
X174000000Y-111760000D03*
%TO.P,A1,5,D2*%
%TO.N,/Motor Control/FAULT_LOGIC*%
X174000000Y-114300000D03*
%TO.P,A1,6,D3*%
%TO.N,Net-(J1-Pad1)*%
X174000000Y-116840000D03*
%TO.P,A1,7,D4*%
%TO.N,/Motor Control/U_PULL_LOW_LOGIC*%
X174000000Y-119380000D03*
%TO.P,A1,8,D5*%
%TO.N,/Motor Control/W_PULL_HIGH_LOGIC*%
X174000000Y-121920000D03*
%TO.P,A1,9,D6*%
%TO.N,/Motor Control/V_PULL_HIGH_LOGIC*%
X174000000Y-124460000D03*
%TO.P,A1,10,D7*%
%TO.N,/Motor Control/W_PULL_LOW_LOGIC*%
X174000000Y-127000000D03*
%TO.P,A1,11,D8*%
%TO.N,/Motor Control/V_PULL_LOW_LOGIC*%
X174000000Y-129540000D03*
%TO.P,A1,12,D9*%
%TO.N,/Motor Control/U_PULL_HIGH_LOGIC*%
X174000000Y-132080000D03*
%TO.P,A1,13,D10*%
%TO.N,Net-(A1-Pad13)*%
X174000000Y-134620000D03*
%TO.P,A1,14,D11*%
%TO.N,Net-(A1-Pad14)*%
X174000000Y-137160000D03*
%TO.P,A1,15,D12*%
%TO.N,Net-(A1-Pad15)*%
X174000000Y-139700000D03*
%TO.P,A1,16,D13*%
%TO.N,Net-(A1-Pad16)*%
X189240000Y-139700000D03*
%TO.P,A1,17,3V3*%
%TO.N,unconnected-(A1-Pad17)*%
X189240000Y-137160000D03*
%TO.P,A1,18,AREF*%
%TO.N,unconnected-(A1-Pad18)*%
X189240000Y-134620000D03*
%TO.P,A1,19,A0*%
%TO.N,Net-(A1-Pad19)*%
X189240000Y-132080000D03*
%TO.P,A1,20,A1*%
%TO.N,Net-(A1-Pad20)*%
X189240000Y-129540000D03*
%TO.P,A1,21,A2*%
%TO.N,Net-(A1-Pad21)*%
X189240000Y-127000000D03*
%TO.P,A1,22,A3*%
%TO.N,Net-(A1-Pad22)*%
X189240000Y-124460000D03*
%TO.P,A1,23,A4*%
%TO.N,Net-(A1-Pad23)*%
X189240000Y-121920000D03*
%TO.P,A1,24,A5*%
%TO.N,unconnected-(A1-Pad24)*%
X189240000Y-119380000D03*
%TO.P,A1,25,A6*%
%TO.N,unconnected-(A1-Pad25)*%
X189240000Y-116840000D03*
%TO.P,A1,26,A7*%
%TO.N,unconnected-(A1-Pad26)*%
X189240000Y-114300000D03*
%TO.P,A1,27,+5V*%
%TO.N,+5V*%
X189240000Y-111760000D03*
%TO.P,A1,28,~{RESET}*%
%TO.N,unconnected-(A1-Pad28)*%
X189240000Y-109220000D03*
%TO.P,A1,29,GND*%
%TO.N,GNDPWR*%
X189240000Y-106680000D03*
%TO.P,A1,30,VIN*%
%TO.N,unconnected-(A1-Pad30)*%
X189240000Y-104140000D03*
%TD*%
D15*
%TO.P,H16,1,1*%
%TO.N,Net-(A1-Pad19)*%
X152296726Y-142343274D03*
X149963274Y-144676726D03*
X151130000Y-145160000D03*
X151130000Y-141860000D03*
X152296726Y-144676726D03*
D16*
X151130000Y-143510000D03*
D15*
X152780000Y-143510000D03*
X149963274Y-142343274D03*
X149480000Y-143510000D03*
%TD*%
%TO.P,H10,1,1*%
%TO.N,VCC*%
X178966726Y-71858274D03*
X178966726Y-74191726D03*
X177800000Y-74675000D03*
X179450000Y-73025000D03*
X176150000Y-73025000D03*
D16*
X177800000Y-73025000D03*
D15*
X176633274Y-71858274D03*
X177800000Y-71375000D03*
X176633274Y-74191726D03*
%TD*%
%TO.P,H2,1,1*%
%TO.N,/Motor Control/MOTOR U*%
X125833274Y-74191726D03*
X128166726Y-71858274D03*
D16*
X127000000Y-73025000D03*
D15*
X127000000Y-74675000D03*
X127000000Y-71375000D03*
X128650000Y-73025000D03*
X125833274Y-71858274D03*
X128166726Y-74191726D03*
X125350000Y-73025000D03*
%TD*%
%TO.P,H15,1,1*%
%TO.N,Net-(A1-Pad20)*%
X145946726Y-135993274D03*
X143130000Y-137160000D03*
X143613274Y-135993274D03*
X146430000Y-137160000D03*
D16*
X144780000Y-137160000D03*
D15*
X144780000Y-138810000D03*
X144780000Y-135510000D03*
X145946726Y-138326726D03*
X143613274Y-138326726D03*
%TD*%
%TO.P,H19,1,1*%
%TO.N,+12V*%
X162000000Y-136400000D03*
X160833274Y-133583274D03*
X163650000Y-134750000D03*
X163166726Y-133583274D03*
X163166726Y-135916726D03*
D16*
X162000000Y-134750000D03*
D15*
X162000000Y-133100000D03*
X160350000Y-134750000D03*
X160833274Y-135916726D03*
%TD*%
%TO.P,H3,1,1*%
%TO.N,/Motor Control/U_LOW_SIDE_DRIVE*%
X133350000Y-71375000D03*
X133350000Y-74675000D03*
X132183274Y-71858274D03*
X134516726Y-71858274D03*
X131700000Y-73025000D03*
X134516726Y-74191726D03*
X132183274Y-74191726D03*
X135000000Y-73025000D03*
D16*
X133350000Y-73025000D03*
%TD*%
D12*
%TO.P,R3,1*%
%TO.N,Net-(R3-Pad1)*%
X153035000Y-79375000D03*
D11*
%TO.P,R3,2*%
%TO.N,/Motor Control/W_HIGH_SIDE_DRIVE*%
X163195000Y-79375000D03*
%TD*%
D21*
%TO.P,L1,1,1*%
%TO.N,Net-(D1-Pad1)*%
X138230000Y-133350000D03*
%TO.P,L1,2,2*%
%TO.N,+12V*%
X130730000Y-133350000D03*
%TD*%
D22*
%TO.P,J2,1,Pin_1*%
%TO.N,Net-(A1-Pad13)*%
X170650000Y-133450000D03*
D23*
%TO.P,J2,2,Pin_2*%
%TO.N,Net-(A1-Pad14)*%
X170650000Y-135990000D03*
%TO.P,J2,3,Pin_3*%
%TO.N,Net-(A1-Pad15)*%
X170650000Y-138530000D03*
%TO.P,J2,4,Pin_4*%
%TO.N,Net-(A1-Pad16)*%
X170650000Y-141070000D03*
%TD*%
D15*
%TO.P,H7,1,1*%
%TO.N,/Motor Control/W_HIGH_SIDE_DRIVE*%
X157100000Y-73025000D03*
X158750000Y-71375000D03*
X159916726Y-74191726D03*
X160400000Y-73025000D03*
X159916726Y-71858274D03*
D16*
X158750000Y-73025000D03*
D15*
X158750000Y-74675000D03*
X157583274Y-74191726D03*
X157583274Y-71858274D03*
%TD*%
D22*
%TO.P,J1,1,Pin_1*%
%TO.N,Net-(J1-Pad1)*%
X164420000Y-129750000D03*
D23*
%TO.P,J1,2,Pin_2*%
%TO.N,Net-(A1-Pad23)*%
X166960000Y-129750000D03*
%TO.P,J1,3,Pin_3*%
%TO.N,Net-(A1-Pad22)*%
X169500000Y-129750000D03*
%TD*%
D13*
%TO.P,D4,1,K*%
%TO.N,Net-(C6-Pad1)*%
X169672000Y-85725000D03*
D14*
%TO.P,D4,2,A*%
%TO.N,+12V*%
X169672000Y-95885000D03*
%TD*%
D10*
%TO.P,C1,1*%
%TO.N,VCC*%
X127000000Y-114996210D03*
D12*
%TO.P,C1,2*%
%TO.N,GNDPWR*%
X127000000Y-117496210D03*
%TD*%
D13*
%TO.P,D2,1,K*%
%TO.N,Net-(C4-Pad1)*%
X126365000Y-88265000D03*
D14*
%TO.P,D2,2,A*%
%TO.N,+12V*%
X126365000Y-98425000D03*
%TD*%
D24*
%TO.P,D1,1,K*%
%TO.N,Net-(D1-Pad1)*%
X116205000Y-106045000D03*
D25*
%TO.P,D1,2,A*%
%TO.N,GNDPWR*%
X116205000Y-121285000D03*
%TD*%
D15*
%TO.P,H6,1,1*%
%TO.N,/Motor Control/V_LOW_SIDE_DRIVE*%
X153566726Y-74191726D03*
X152400000Y-74675000D03*
X154050000Y-73025000D03*
X152400000Y-71375000D03*
X151233274Y-71858274D03*
X153566726Y-71858274D03*
X151233274Y-74191726D03*
X150750000Y-73025000D03*
D16*
X152400000Y-73025000D03*
%TD*%
D12*
%TO.P,R1,1*%
%TO.N,Net-(R1-Pad1)*%
X134366000Y-77724000D03*
D11*
%TO.P,R1,2*%
%TO.N,/Motor Control/U_HIGH_SIDE_DRIVE*%
X124206000Y-77724000D03*
%TD*%
D12*
%TO.P,C3,1*%
%TO.N,+12V*%
X121793000Y-108498000D03*
%TO.P,C3,2*%
%TO.N,GNDPWR*%
X121793000Y-113498000D03*
%TD*%
D15*
%TO.P,H4,1,1*%
%TO.N,/Motor Control/V_HIGH_SIDE_DRIVE*%
X138533274Y-74191726D03*
X139700000Y-71375000D03*
X139700000Y-74675000D03*
D16*
X139700000Y-73025000D03*
D15*
X140866726Y-74191726D03*
X141350000Y-73025000D03*
X138050000Y-73025000D03*
X140866726Y-71858274D03*
X138533274Y-71858274D03*
%TD*%
%TO.P,H1,1,1*%
%TO.N,/Motor Control/U_HIGH_SIDE_DRIVE*%
X120650000Y-74675000D03*
X121816726Y-74191726D03*
X121816726Y-71858274D03*
D16*
X120650000Y-73025000D03*
D15*
X119483274Y-71858274D03*
X119000000Y-73025000D03*
X120650000Y-71375000D03*
X119483274Y-74191726D03*
X122300000Y-73025000D03*
%TD*%
%TO.P,H8,1,1*%
%TO.N,/Motor Control/MOTOR_W*%
X163933274Y-74191726D03*
X166266726Y-71858274D03*
X165100000Y-74675000D03*
X163933274Y-71858274D03*
X165100000Y-71375000D03*
X166266726Y-74191726D03*
X166750000Y-73025000D03*
D16*
X165100000Y-73025000D03*
D15*
X163450000Y-73025000D03*
%TD*%
D26*
%TO.P,U2,1,VI*%
%TO.N,+12V*%
X158455000Y-128905000D03*
D27*
%TO.P,U2,2,GND*%
%TO.N,GNDPWR*%
X158455000Y-126365000D03*
%TO.P,U2,3,VO*%
%TO.N,+5V*%
X158455000Y-123825000D03*
%TD*%
D15*
%TO.P,H11,1,1*%
%TO.N,GNDPWR*%
X182983274Y-74191726D03*
X182500000Y-73025000D03*
X185800000Y-73025000D03*
X185316726Y-74191726D03*
X185316726Y-71858274D03*
X184150000Y-71375000D03*
X182983274Y-71858274D03*
X184150000Y-74675000D03*
D16*
X184150000Y-73025000D03*
%TD*%
D15*
%TO.P,H18,1,1*%
%TO.N,+5V*%
X146430000Y-143510000D03*
D16*
X144780000Y-143510000D03*
D15*
X145946726Y-144676726D03*
X143613274Y-144676726D03*
X143613274Y-142343274D03*
X145946726Y-142343274D03*
X144780000Y-141860000D03*
X144780000Y-145160000D03*
X143130000Y-143510000D03*
%TD*%
%TO.P,H14,1,1*%
%TO.N,Net-(A1-Pad21)*%
X152296726Y-138326726D03*
X151130000Y-135510000D03*
X152780000Y-137160000D03*
X152296726Y-135993274D03*
X151130000Y-138810000D03*
X149963274Y-135993274D03*
D16*
X151130000Y-137160000D03*
D15*
X149963274Y-138326726D03*
X149480000Y-137160000D03*
%TD*%
D28*
%TO.N,GNDPWR*%
X186500000Y-136250000D03*
X187000000Y-143250000D03*
X186250000Y-116250000D03*
X182245000Y-111760000D03*
%TO.N,/Motor Control/W_PULL_LOW_LOGIC*%
X171500000Y-118500000D03*
%TO.N,/Motor Control/V_PULL_LOW_LOGIC*%
X170250000Y-120000000D03*
%TO.N,Net-(A1-Pad19)*%
X181610000Y-146050000D03*
%TO.N,+5V*%
X185250000Y-141250000D03*
X160250000Y-143250000D03*
X185250000Y-138000000D03*
%TO.N,VCC*%
X168275000Y-102235000D03*
X160020000Y-118745000D03*
%TO.N,+12V*%
X165735000Y-102235000D03*
%TO.N,/Motor Control/MOTOR U*%
X164465000Y-93980000D03*
%TO.N,/Motor Control/MOTOR_V*%
X147701000Y-92075000D03*
%TO.N,/Motor Control/W_LOW_SIDE_DRIVE*%
X169672000Y-80518000D03*
%TO.N,Net-(R2-Pad1)*%
X142875000Y-79375000D03*
%TO.N,Net-(A1-Pad22)*%
X169000000Y-118500000D03*
X168600000Y-110800000D03*
X178200000Y-109400000D03*
%TO.N,Net-(A1-Pad23)*%
X167600000Y-120000000D03*
X167200000Y-112400000D03*
X179600000Y-108000000D03*
%TD*%
D29*
%TO.N,GNDPWR*%
X187000000Y-143250000D02*
X185500000Y-144750000D01*
X146940000Y-129310000D02*
X146940000Y-126365000D01*
D30*
X158125000Y-100970000D02*
X158125000Y-98435000D01*
X187833000Y-98425000D02*
X189865000Y-96393000D01*
D29*
X155575000Y-127000000D02*
X156210000Y-126365000D01*
D30*
X139545000Y-118970000D02*
X146940000Y-126365000D01*
D29*
X186250000Y-116250000D02*
X186250000Y-133750000D01*
D30*
X160665000Y-100970000D02*
X160665000Y-99070000D01*
X158455000Y-126365000D02*
X156210000Y-126365000D01*
D29*
X182245000Y-109855000D02*
X182245000Y-111760000D01*
D30*
X116205000Y-121285000D02*
X127000000Y-121285000D01*
D29*
X185500000Y-144750000D02*
X163800000Y-144750000D01*
X189240000Y-106680000D02*
X185420000Y-106680000D01*
D30*
X127000000Y-121285000D02*
X127000000Y-117496210D01*
D31*
X122576210Y-117496210D02*
X121793000Y-116713000D01*
D30*
X157000000Y-137950000D02*
X157000000Y-134000000D01*
X146940000Y-126365000D02*
X156210000Y-126365000D01*
D29*
X186250000Y-136000000D02*
X186500000Y-136250000D01*
D30*
X155500000Y-132500000D02*
X155500000Y-127075000D01*
X150505000Y-100970000D02*
X150505000Y-99050000D01*
D29*
X185420000Y-106680000D02*
X182245000Y-109855000D01*
D30*
X151130000Y-98425000D02*
X158115000Y-98425000D01*
X139545000Y-115570000D02*
X139545000Y-118970000D01*
X188595000Y-73025000D02*
X184150000Y-73025000D01*
X150505000Y-99050000D02*
X151130000Y-98425000D01*
X159000000Y-139950000D02*
X157000000Y-137950000D01*
D29*
X163800000Y-144750000D02*
X159000000Y-139950000D01*
D30*
X157000000Y-134000000D02*
X155500000Y-132500000D01*
D29*
X174000000Y-111760000D02*
X182245000Y-111760000D01*
D31*
X127000000Y-117496210D02*
X122576210Y-117496210D01*
D30*
X158125000Y-98435000D02*
X158115000Y-98425000D01*
D29*
X138430000Y-143510000D02*
X138430000Y-137820000D01*
X138430000Y-137820000D02*
X146940000Y-129310000D01*
D30*
X137230000Y-121285000D02*
X139545000Y-118970000D01*
D29*
X186250000Y-133750000D02*
X186250000Y-136000000D01*
D30*
X189865000Y-96393000D02*
X189865000Y-74295000D01*
X189865000Y-74295000D02*
X188595000Y-73025000D01*
X127000000Y-121285000D02*
X137230000Y-121285000D01*
X158115000Y-98425000D02*
X187833000Y-98425000D01*
X155500000Y-127075000D02*
X156210000Y-126365000D01*
D31*
X121793000Y-116713000D02*
X121793000Y-113498000D01*
D29*
%TO.N,/Motor Control/W_PULL_LOW_LOGIC*%
X171450000Y-126365000D02*
X172085000Y-127000000D01*
X171450000Y-124460000D02*
X171450000Y-118550000D01*
X172085000Y-127000000D02*
X174000000Y-127000000D01*
X171450000Y-118550000D02*
X171500000Y-118500000D01*
X171450000Y-124460000D02*
X171450000Y-126365000D01*
%TO.N,/Motor Control/V_PULL_LOW_LOGIC*%
X170250000Y-127000000D02*
X172790000Y-129540000D01*
X170250000Y-120000000D02*
X170250000Y-127000000D01*
X172790000Y-129540000D02*
X174000000Y-129540000D01*
%TO.N,Net-(A1-Pad19)*%
X153670000Y-146050000D02*
X151130000Y-143510000D01*
X181610000Y-146050000D02*
X153670000Y-146050000D01*
%TO.N,+5V*%
X156000000Y-143250000D02*
X160250000Y-143250000D01*
X144780000Y-143510000D02*
X147955000Y-140335000D01*
X186240000Y-111760000D02*
X189240000Y-111760000D01*
X184500000Y-135000000D02*
X184500000Y-137250000D01*
X166250000Y-133500000D02*
X166250000Y-135500000D01*
X165750000Y-143500000D02*
X165000000Y-142750000D01*
X158455000Y-123825000D02*
X159325000Y-123825000D01*
X154305000Y-141555000D02*
X156000000Y-143250000D01*
X160500000Y-125000000D02*
X160500000Y-129500000D01*
X165000000Y-142750000D02*
X165000000Y-139900000D01*
X159325000Y-123825000D02*
X160500000Y-125000000D01*
X164250000Y-131500000D02*
X166250000Y-133500000D01*
X147955000Y-140335000D02*
X153085000Y-140335000D01*
X185250000Y-141250000D02*
X183000000Y-143500000D01*
X162500000Y-131500000D02*
X164250000Y-131500000D01*
X184500000Y-135000000D02*
X184500000Y-113500000D01*
X184500000Y-113500000D02*
X186240000Y-111760000D01*
X184500000Y-137250000D02*
X185250000Y-138000000D01*
X165000000Y-136750000D02*
X165000000Y-139900000D01*
X160500000Y-129500000D02*
X162500000Y-131500000D01*
X183000000Y-143500000D02*
X165750000Y-143500000D01*
X166250000Y-135500000D02*
X165000000Y-136750000D01*
X153085000Y-140335000D02*
X154305000Y-141555000D01*
D30*
%TO.N,VCC*%
X160020000Y-113919000D02*
X160020000Y-118745000D01*
X168275000Y-105664000D02*
X160020000Y-113919000D01*
X168275000Y-102235000D02*
X168275000Y-105664000D01*
%TO.N,+12V*%
X116206500Y-99947500D02*
X116206500Y-101954500D01*
D31*
X165735000Y-102235000D02*
X164465000Y-103505000D01*
D30*
X126365000Y-98425000D02*
X117729000Y-98425000D01*
X130185000Y-108448000D02*
X130185000Y-109845000D01*
X128905000Y-98425000D02*
X130185000Y-99705000D01*
X158455000Y-131371726D02*
X161833274Y-134750000D01*
D31*
X130155000Y-110530000D02*
X130185000Y-110500000D01*
D30*
X130185000Y-103515000D02*
X130185000Y-108448000D01*
X131875000Y-117270000D02*
X135745000Y-117270000D01*
X130185000Y-110500000D02*
X130175000Y-110510000D01*
D31*
X164465000Y-103505000D02*
X130195000Y-103505000D01*
D30*
X130175000Y-115570000D02*
X131875000Y-117270000D01*
X117729000Y-98425000D02*
X116206500Y-99947500D01*
D31*
X130195000Y-109855000D02*
X130185000Y-109845000D01*
D30*
X130175000Y-110510000D02*
X130175000Y-115570000D01*
D31*
X121793000Y-108498000D02*
X130135000Y-108498000D01*
X130135000Y-108498000D02*
X130185000Y-108448000D01*
X130195000Y-103505000D02*
X130185000Y-103515000D01*
D30*
X130185000Y-99705000D02*
X130185000Y-100970000D01*
X126365000Y-98425000D02*
X128905000Y-98425000D01*
X158455000Y-128905000D02*
X158455000Y-131371726D01*
X130185000Y-100970000D02*
X130185000Y-103515000D01*
X130185000Y-109845000D02*
X130185000Y-110500000D01*
D31*
%TO.N,Net-(C4-Pad1)*%
X130185000Y-88275000D02*
X130185000Y-85730000D01*
X130175000Y-88265000D02*
X130185000Y-88275000D01*
X175260000Y-93345000D02*
X167640000Y-93345000D01*
X176874520Y-94959520D02*
X175260000Y-93345000D01*
X133350000Y-95885000D02*
X130185000Y-92720000D01*
X165100000Y-95885000D02*
X133350000Y-95885000D01*
X186055000Y-94959520D02*
X176874520Y-94959520D01*
X126365000Y-88265000D02*
X130175000Y-88265000D01*
X167640000Y-93345000D02*
X165100000Y-95885000D01*
X130185000Y-92720000D02*
X130185000Y-88275000D01*
%TO.N,/Motor Control/MOTOR U*%
X164465000Y-93980000D02*
X137815000Y-93980000D01*
X137815000Y-93980000D02*
X135265000Y-91430000D01*
X135265000Y-91430000D02*
X135265000Y-85730000D01*
%TO.N,Net-(C5-Pad1)*%
X141986000Y-90170000D02*
X165100000Y-90170000D01*
X140345000Y-88529000D02*
X141986000Y-90170000D01*
X167005000Y-88265000D02*
X170815000Y-88265000D01*
X140345000Y-85730000D02*
X140345000Y-88529000D01*
X165100000Y-90170000D02*
X167005000Y-88265000D01*
X170815000Y-88265000D02*
X173355000Y-85725000D01*
%TO.N,/Motor Control/MOTOR_V*%
X175260000Y-90170000D02*
X179455720Y-85974280D01*
X150495000Y-92075000D02*
X147701000Y-92075000D01*
X166370000Y-92075000D02*
X168275000Y-90170000D01*
X168275000Y-90170000D02*
X175260000Y-90170000D01*
X150495000Y-92075000D02*
X166370000Y-92075000D01*
X179455720Y-85974280D02*
X182245000Y-85974280D01*
%TO.N,Net-(C6-Pad1)*%
X166370000Y-85725000D02*
X169672000Y-85725000D01*
X151765000Y-88265000D02*
X163830000Y-88265000D01*
X150505000Y-87005000D02*
X151765000Y-88265000D01*
X163830000Y-88265000D02*
X166370000Y-85725000D01*
X150505000Y-85730000D02*
X150505000Y-87005000D01*
%TO.N,/Motor Control/U_HIGH_SIDE_DRIVE*%
X124206000Y-77724000D02*
X122174000Y-77724000D01*
X120650000Y-76200000D02*
X120650000Y-73025000D01*
X122174000Y-77724000D02*
X120650000Y-76200000D01*
%TO.N,/Motor Control/U_LOW_SIDE_DRIVE*%
X160665000Y-85730000D02*
X160665000Y-84465000D01*
X160665000Y-84465000D02*
X158750000Y-82550000D01*
X137033000Y-80645000D02*
X137033000Y-76708000D01*
X137033000Y-76708000D02*
X133350000Y-73025000D01*
X138938000Y-82550000D02*
X137033000Y-80645000D01*
X158750000Y-82550000D02*
X138938000Y-82550000D01*
%TO.N,/Motor Control/V_HIGH_SIDE_DRIVE*%
X139700000Y-79375000D02*
X139700000Y-73025000D01*
%TO.N,/Motor Control/V_LOW_SIDE_DRIVE*%
X156210000Y-76835000D02*
X153670000Y-76835000D01*
X152400000Y-75565000D02*
X152400000Y-73025000D01*
X163205000Y-85730000D02*
X163205000Y-83830000D01*
X163205000Y-83830000D02*
X156210000Y-76835000D01*
X153670000Y-76835000D02*
X152400000Y-75565000D01*
%TO.N,/Motor Control/W_HIGH_SIDE_DRIVE*%
X163195000Y-79375000D02*
X163195000Y-77470000D01*
X163195000Y-77470000D02*
X158750000Y-73025000D01*
%TO.N,/Motor Control/W_LOW_SIDE_DRIVE*%
X171450000Y-78740000D02*
X171450000Y-73025000D01*
X169672000Y-80518000D02*
X171450000Y-78740000D01*
%TO.N,Net-(R1-Pad1)*%
X134366000Y-81534000D02*
X134366000Y-77724000D01*
X132725000Y-83175000D02*
X134366000Y-81534000D01*
X132725000Y-85730000D02*
X132725000Y-83175000D01*
%TO.N,Net-(R2-Pad1)*%
X142875000Y-79375000D02*
X149860000Y-79375000D01*
D29*
%TO.N,Net-(A1-Pad13)*%
X171650000Y-133450000D02*
X170650000Y-133450000D01*
X174000000Y-134620000D02*
X172820000Y-134620000D01*
X172820000Y-134620000D02*
X171650000Y-133450000D01*
%TO.N,Net-(A1-Pad14)*%
X172760000Y-137160000D02*
X171590000Y-135990000D01*
X171590000Y-135990000D02*
X170650000Y-135990000D01*
X174000000Y-137160000D02*
X172760000Y-137160000D01*
%TO.N,Net-(A1-Pad15)*%
X172700000Y-139700000D02*
X171530000Y-138530000D01*
X171530000Y-138530000D02*
X170650000Y-138530000D01*
X174000000Y-139700000D02*
X172700000Y-139700000D01*
%TO.N,Net-(A1-Pad16)*%
X181800000Y-139700000D02*
X179500000Y-142000000D01*
X189240000Y-139700000D02*
X181800000Y-139700000D01*
X171580000Y-142000000D02*
X170650000Y-141070000D01*
X179500000Y-142000000D02*
X171580000Y-142000000D01*
%TO.N,Net-(A1-Pad22)*%
X169000000Y-127750000D02*
X169000000Y-125750000D01*
X169500000Y-129750000D02*
X169500000Y-128250000D01*
X171400000Y-107400000D02*
X171400000Y-106600000D01*
X168600000Y-110800000D02*
X168600000Y-110200000D01*
X171400000Y-106600000D02*
X171400000Y-103200000D01*
X169000000Y-125750000D02*
X169000000Y-118500000D01*
X178200000Y-103800000D02*
X178200000Y-108600000D01*
X171400000Y-103200000D02*
X172600000Y-102000000D01*
X176400000Y-102000000D02*
X177000000Y-102600000D01*
X172600000Y-102000000D02*
X176400000Y-102000000D01*
X168600000Y-110200000D02*
X171400000Y-107400000D01*
X169500000Y-128250000D02*
X169000000Y-127750000D01*
X178200000Y-108600000D02*
X178200000Y-109400000D01*
X177000000Y-102600000D02*
X178200000Y-103800000D01*
%TO.N,Net-(A1-Pad23)*%
X167200000Y-109800000D02*
X167200000Y-112400000D01*
X170200000Y-106800000D02*
X167200000Y-109800000D01*
X177200000Y-100800000D02*
X172000000Y-100800000D01*
X179600000Y-103200000D02*
X177200000Y-100800000D01*
X170200000Y-102600000D02*
X170200000Y-106800000D01*
X166960000Y-125460000D02*
X166960000Y-120640000D01*
X166960000Y-129750000D02*
X166960000Y-125460000D01*
X166960000Y-120640000D02*
X167600000Y-120000000D01*
X172000000Y-100800000D02*
X170200000Y-102600000D01*
X179600000Y-108000000D02*
X179600000Y-103200000D01*
%TO.N,Net-(J1-Pad1)*%
X164420000Y-119580000D02*
X167160000Y-116840000D01*
X164420000Y-129750000D02*
X164420000Y-119580000D01*
X167160000Y-116840000D02*
X174000000Y-116840000D01*
%TD*%
M02*
