M48
; DRILL file {KiCad 6.0.11+dfsg-1} date Tue 07 Nov 2023 11:40:04 GMT
; FORMAT={-:-/ absolute / inch / decimal}
; #@! TF.CreationDate,2023-11-07T11:40:04+00:00
; #@! TF.GenerationSoftware,Kicad,Pcbnew,6.0.11+dfsg-1
; #@! TF.FileFunction,Plated,1,2,PTH
FMAT,2
INCH
; #@! TA.AperFunction,Plated,PTH,ComponentDrill
T1C0.0157
; #@! TA.AperFunction,Plated,PTH,ViaDrill
T2C0.0300
; #@! TA.AperFunction,Plated,PTH,ComponentDrill
T3C0.0315
; #@! TA.AperFunction,Plated,PTH,ComponentDrill
T4C0.0394
; #@! TA.AperFunction,Plated,PTH,ComponentDrill
T5C0.0433
; #@! TA.AperFunction,Plated,PTH,ComponentDrill
T6C0.0472
; #@! TA.AperFunction,Plated,PTH,ComponentDrill
T7C0.0630
; #@! TA.AperFunction,Plated,PTH,ComponentDrill
T8C0.0866
%
G90
G05
T1
X4.685Y-2.875
X4.7041Y-2.8291
X4.7041Y-2.9209
X4.75Y-2.81
X4.75Y-2.94
X4.7959Y-2.8291
X4.7959Y-2.9209
X4.815Y-2.875
X4.935Y-2.875
X4.9541Y-2.8291
X4.9541Y-2.9209
X5.0Y-2.81
X5.0Y-2.94
X5.0459Y-2.8291
X5.0459Y-2.9209
X5.065Y-2.875
X5.185Y-2.875
X5.2041Y-2.8291
X5.2041Y-2.9209
X5.25Y-2.81
X5.25Y-2.94
X5.2959Y-2.8291
X5.2959Y-2.9209
X5.315Y-2.875
X5.385Y-5.6496
X5.4041Y-5.6037
X5.4041Y-5.6955
X5.435Y-2.875
X5.45Y-5.5846
X5.45Y-5.7146
X5.4541Y-2.8291
X5.4541Y-2.9209
X5.4959Y-5.6037
X5.4959Y-5.6955
X5.5Y-2.81
X5.5Y-2.94
X5.515Y-5.6496
X5.5459Y-2.8291
X5.5459Y-2.9209
X5.565Y-2.875
X5.635Y-5.4
X5.635Y-5.65
X5.6541Y-5.3541
X5.6541Y-5.4459
X5.6541Y-5.6041
X5.6541Y-5.6959
X5.685Y-2.875
X5.7Y-5.335
X5.7Y-5.465
X5.7Y-5.585
X5.7Y-5.715
X5.7041Y-2.8291
X5.7041Y-2.9209
X5.7459Y-5.3541
X5.7459Y-5.4459
X5.7459Y-5.6041
X5.7459Y-5.6959
X5.75Y-2.81
X5.75Y-2.94
X5.765Y-5.4
X5.765Y-5.65
X5.7959Y-2.8291
X5.7959Y-2.9209
X5.815Y-2.875
X5.885Y-5.4
X5.885Y-5.65
X5.9041Y-5.3541
X5.9041Y-5.4459
X5.9041Y-5.6041
X5.9041Y-5.6959
X5.935Y-2.875
X5.95Y-5.335
X5.95Y-5.465
X5.95Y-5.585
X5.95Y-5.715
X5.9541Y-2.8291
X5.9541Y-2.9209
X5.9959Y-5.3541
X5.9959Y-5.4459
X5.9959Y-5.6041
X5.9959Y-5.6959
X6.0Y-2.81
X6.0Y-2.94
X6.015Y-5.4
X6.015Y-5.65
X6.0459Y-2.8291
X6.0459Y-2.9209
X6.065Y-2.875
X6.185Y-2.875
X6.1949Y-5.5039
X6.2041Y-2.8291
X6.2041Y-2.9209
X6.2139Y-5.458
X6.2139Y-5.5499
X6.25Y-2.81
X6.25Y-2.94
X6.2598Y-5.439
X6.2598Y-5.5689
X6.2959Y-2.8291
X6.2959Y-2.9209
X6.3058Y-5.458
X6.3058Y-5.5499
X6.313Y-5.3051
X6.315Y-2.875
X6.3248Y-5.5039
X6.332Y-5.2592
X6.332Y-5.3511
X6.378Y-5.2402
X6.378Y-5.3701
X6.4239Y-5.2592
X6.4239Y-5.3511
X6.4311Y-5.5079
X6.435Y-2.875
X6.4429Y-5.3051
X6.4501Y-5.4619
X6.4501Y-5.5538
X6.4541Y-2.8291
X6.4541Y-2.9209
X6.4961Y-5.4429
X6.4961Y-5.5728
X6.5Y-2.81
X6.5Y-2.94
X6.542Y-5.4619
X6.542Y-5.5538
X6.5459Y-2.8291
X6.5459Y-2.9209
X6.561Y-5.5079
X6.565Y-2.875
X6.685Y-2.875
X6.7041Y-2.8291
X6.7041Y-2.9209
X6.75Y-2.81
X6.75Y-2.94
X6.7959Y-2.8291
X6.7959Y-2.9209
X6.815Y-2.875
X6.935Y-2.875
X6.9541Y-2.8291
X6.9541Y-2.9209
X7.0Y-2.81
X7.0Y-2.94
X7.0459Y-2.8291
X7.0459Y-2.9209
X7.065Y-2.875
X7.185Y-2.875
X7.2041Y-2.8291
X7.2041Y-2.9209
X7.25Y-2.81
X7.25Y-2.94
X7.2959Y-2.8291
X7.2959Y-2.9209
X7.315Y-2.875
T2
X5.625Y-3.125
X5.815Y-3.625
X6.3Y-4.675
X6.3091Y-5.6398
X6.475Y-3.7
X6.525Y-4.025
X6.5827Y-4.4252
X6.5984Y-4.7244
X6.625Y-4.025
X6.6378Y-4.3622
X6.6535Y-4.6654
X6.68Y-3.17
X6.7028Y-4.7244
X6.752Y-4.6654
X7.0157Y-4.3071
X7.0709Y-4.252
X7.15Y-5.75
X7.175Y-4.4
X7.2933Y-5.4331
X7.2933Y-5.561
X7.3327Y-4.5768
X7.3425Y-5.3642
X7.3622Y-5.6398
T3
X4.795Y-4.2716
X4.795Y-4.4684
X4.89Y-3.06
X5.0Y-4.5274
X5.0Y-4.6258
X5.1254Y-3.3752
X5.1254Y-3.9752
X5.2254Y-3.3752
X5.2254Y-3.9752
X5.29Y-3.06
X5.3254Y-3.3752
X5.3254Y-3.9752
X5.4254Y-3.3752
X5.4254Y-3.9752
X5.5Y-3.125
X5.5254Y-3.3752
X5.5254Y-3.9752
X5.6254Y-3.3752
X5.6254Y-3.9752
X5.7254Y-3.3752
X5.7254Y-3.9752
X5.8254Y-3.3752
X5.8254Y-3.9752
X5.9Y-3.125
X5.9254Y-3.3752
X5.9254Y-3.9752
X6.025Y-3.125
X6.0254Y-3.3752
X6.0254Y-3.9752
X6.1254Y-3.3752
X6.1254Y-3.9752
X6.2254Y-3.3752
X6.2254Y-3.9752
X6.3254Y-3.3752
X6.3254Y-3.9752
X6.425Y-3.125
X6.4254Y-3.3752
X6.4254Y-3.9752
X7.175Y-3.3848
X7.175Y-3.4832
X7.325Y-3.1231
X7.325Y-3.2216
X7.325Y-3.6401
X7.325Y-3.7386
T4
X4.975Y-3.475
X4.975Y-3.875
X5.1469Y-5.25
X5.4421Y-5.25
X6.4732Y-5.1083
X6.5732Y-5.1083
X6.6732Y-5.1083
X6.68Y-3.375
X6.68Y-3.775
X6.7185Y-5.2539
X6.7185Y-5.3539
X6.7185Y-5.4539
X6.7185Y-5.5539
X6.825Y-3.375
X6.825Y-3.775
X6.8504Y-4.1
X6.8504Y-4.2
X6.8504Y-4.3
X6.8504Y-4.4
X6.8504Y-4.5
X6.8504Y-4.6
X6.8504Y-4.7
X6.8504Y-4.8
X6.8504Y-4.9
X6.8504Y-5.0
X6.8504Y-5.1
X6.8504Y-5.2
X6.8504Y-5.3
X6.8504Y-5.4
X6.8504Y-5.5
X7.4504Y-4.1
X7.4504Y-4.2
X7.4504Y-4.3
X7.4504Y-4.4
X7.4504Y-4.5
X7.4504Y-4.6
X7.4504Y-4.7
X7.4504Y-4.8
X7.4504Y-4.9
X7.4504Y-5.0
X7.4504Y-5.1
X7.4504Y-5.2
X7.4504Y-5.3
X7.4504Y-5.4
X7.4504Y-5.5
T5
X5.3443Y-4.4831
X5.3443Y-4.6169
X5.4939Y-4.4161
X5.4939Y-4.55
X5.4939Y-4.6839
X6.2384Y-4.875
X6.2384Y-4.975
X6.2384Y-5.075
T6
X4.575Y-4.01
X4.775Y-4.01
T7
X4.575Y-4.175
X4.575Y-4.775
T8
X4.75Y-2.875
X5.0Y-2.875
X5.25Y-2.875
X5.45Y-5.6496
X5.5Y-2.875
X5.7Y-5.4
X5.7Y-5.65
X5.75Y-2.875
X5.95Y-5.4
X5.95Y-5.65
X6.0Y-2.875
X6.25Y-2.875
X6.2598Y-5.5039
X6.378Y-5.3051
X6.4961Y-5.5079
X6.5Y-2.875
X6.75Y-2.875
X7.0Y-2.875
X7.25Y-2.875
T0
M30
