%TF.GenerationSoftware,KiCad,Pcbnew,6.0.11+dfsg-1*%
%TF.CreationDate,2023-11-07T11:46:17+00:00*%
%TF.ProjectId,bb2b,62623262-2e6b-4696-9361-645f70636258,rev?*%
%TF.SameCoordinates,Original*%
%TF.FileFunction,Soldermask,Bot*%
%TF.FilePolarity,Negative*%
%FSLAX46Y46*%
G04 Gerber Fmt 4.6, Leading zero omitted, Abs format (unit mm)*
G04 Created by KiCad (PCBNEW 6.0.11+dfsg-1) date 2023-11-07 11:46:17*
%MOMM*%
%LPD*%
G01*
G04 APERTURE LIST*
%ADD10C,0.800000*%
%ADD11C,6.400000*%
%ADD12C,0.700000*%
%ADD13C,4.400000*%
%ADD14O,3.500000X3.500000*%
%ADD15R,2.000000X1.905000*%
%ADD16O,2.000000X1.905000*%
%ADD17C,8.600000*%
%ADD18C,0.900000*%
G04 APERTURE END LIST*
D10*
%TO.C,REF\u002A\u002A*%
X149829856Y-91740056D03*
X148132800Y-92443000D03*
D11*
X148132800Y-90043000D03*
D10*
X148132800Y-87643000D03*
X145732800Y-90043000D03*
X149829856Y-88345944D03*
X150532800Y-90043000D03*
X146435744Y-88345944D03*
X146435744Y-91740056D03*
%TD*%
D12*
%TO.C,H1*%
X145670000Y-55372000D03*
X147320000Y-53722000D03*
X147320000Y-57022000D03*
X146153274Y-56538726D03*
X146153274Y-54205274D03*
X148970000Y-55372000D03*
X148486726Y-56538726D03*
X148486726Y-54205274D03*
D13*
X147320000Y-55372000D03*
%TD*%
D14*
%TO.C,Q5*%
X140145000Y-89535000D03*
D15*
X123485000Y-92075000D03*
D16*
X123485000Y-89535000D03*
X123485000Y-86995000D03*
%TD*%
D17*
%TO.C,H16*%
X83058000Y-123825000D03*
D18*
X80777581Y-126105419D03*
X86283000Y-123825000D03*
X80777581Y-121544581D03*
X83058000Y-127050000D03*
X85338419Y-126105419D03*
X83058000Y-120600000D03*
X85338419Y-121544581D03*
X79833000Y-123825000D03*
%TD*%
D14*
%TO.C,Q1*%
X90995000Y-76715000D03*
D15*
X107655000Y-74175000D03*
D16*
X107655000Y-76715000D03*
X107655000Y-79255000D03*
%TD*%
D18*
%TO.C,H15*%
X106426000Y-127050000D03*
D17*
X106426000Y-123825000D03*
D18*
X106426000Y-120600000D03*
X104145581Y-126105419D03*
X109651000Y-123825000D03*
X103201000Y-123825000D03*
X104145581Y-121544581D03*
X108706419Y-121544581D03*
X108706419Y-126105419D03*
%TD*%
D12*
%TO.C,H3*%
X135786726Y-56538726D03*
X135786726Y-54205274D03*
X133453274Y-56538726D03*
X133453274Y-54205274D03*
X134620000Y-53722000D03*
X132970000Y-55372000D03*
X134620000Y-57022000D03*
X136270000Y-55372000D03*
D13*
X134620000Y-55372000D03*
%TD*%
D14*
%TO.C,Q2*%
X90995000Y-89535000D03*
D15*
X107655000Y-86995000D03*
D16*
X107655000Y-89535000D03*
X107655000Y-92075000D03*
%TD*%
D13*
%TO.C,H9*%
X96520000Y-55372000D03*
D12*
X98170000Y-55372000D03*
X97686726Y-56538726D03*
X95353274Y-54205274D03*
X97686726Y-54205274D03*
X96520000Y-57022000D03*
X95353274Y-56538726D03*
X96520000Y-53722000D03*
X94870000Y-55372000D03*
%TD*%
D18*
%TO.C,H17*%
X145654581Y-126105419D03*
X144710000Y-123825000D03*
X147935000Y-120600000D03*
X147935000Y-127050000D03*
X150215419Y-126105419D03*
D17*
X147935000Y-123825000D03*
D18*
X151160000Y-123825000D03*
X150215419Y-121544581D03*
X145654581Y-121544581D03*
%TD*%
D12*
%TO.C,H11*%
X82653274Y-56538726D03*
X84986726Y-54205274D03*
X83820000Y-57022000D03*
X82653274Y-54205274D03*
X84986726Y-56538726D03*
X83820000Y-53722000D03*
X82170000Y-55372000D03*
X85470000Y-55372000D03*
D13*
X83820000Y-55372000D03*
%TD*%
%TO.C,H2*%
X140970000Y-55372000D03*
D12*
X140970000Y-57022000D03*
X142620000Y-55372000D03*
X139803274Y-56538726D03*
X142136726Y-54205274D03*
X140970000Y-53722000D03*
X139803274Y-54205274D03*
X142136726Y-56538726D03*
X139320000Y-55372000D03*
%TD*%
%TO.C,H5*%
X121920000Y-53722000D03*
X120753274Y-56538726D03*
X120270000Y-55372000D03*
X121920000Y-57022000D03*
X123086726Y-54205274D03*
X120753274Y-54205274D03*
X123086726Y-56538726D03*
D13*
X121920000Y-55372000D03*
D12*
X123570000Y-55372000D03*
%TD*%
D14*
%TO.C,Q3*%
X90995000Y-102235000D03*
D15*
X107655000Y-99695000D03*
D16*
X107655000Y-102235000D03*
X107655000Y-104775000D03*
%TD*%
D13*
%TO.C,H7*%
X109220000Y-55372000D03*
D12*
X107570000Y-55372000D03*
X109220000Y-53722000D03*
X110386726Y-54205274D03*
X109220000Y-57022000D03*
X108053274Y-56538726D03*
X108053274Y-54205274D03*
X110386726Y-56538726D03*
X110870000Y-55372000D03*
%TD*%
%TO.C,H8*%
X104520000Y-55372000D03*
X101220000Y-55372000D03*
D13*
X102870000Y-55372000D03*
D12*
X101703274Y-54205274D03*
X102870000Y-53722000D03*
X101703274Y-56538726D03*
X102870000Y-57022000D03*
X104036726Y-56538726D03*
X104036726Y-54205274D03*
%TD*%
D14*
%TO.C,Q6*%
X140145000Y-102235000D03*
D15*
X123485000Y-104775000D03*
D16*
X123485000Y-102235000D03*
X123485000Y-99695000D03*
%TD*%
D18*
%TO.C,H18*%
X134244581Y-126105419D03*
X134244581Y-121544581D03*
D17*
X136525000Y-123825000D03*
D18*
X136525000Y-120600000D03*
X133300000Y-123825000D03*
X138805419Y-126105419D03*
X138805419Y-121544581D03*
X136525000Y-127050000D03*
X139750000Y-123825000D03*
%TD*%
%TO.C,H14*%
X97967000Y-123825000D03*
X92461581Y-121544581D03*
X94742000Y-127050000D03*
X97022419Y-121544581D03*
X94742000Y-120600000D03*
X97022419Y-126105419D03*
X92461581Y-126105419D03*
D17*
X94742000Y-123825000D03*
D18*
X91517000Y-123825000D03*
%TD*%
D12*
%TO.C,H10*%
X89003274Y-56538726D03*
X88520000Y-55372000D03*
X89003274Y-54205274D03*
X91820000Y-55372000D03*
X91336726Y-56538726D03*
X90170000Y-57022000D03*
X91336726Y-54205274D03*
X90170000Y-53722000D03*
D13*
X90170000Y-55372000D03*
%TD*%
D18*
%TO.C,H19*%
X125095000Y-120600000D03*
X127375419Y-121544581D03*
X128320000Y-123825000D03*
X122814581Y-121544581D03*
X125095000Y-127050000D03*
X127375419Y-126105419D03*
D17*
X125095000Y-123825000D03*
D18*
X121870000Y-123825000D03*
X122814581Y-126105419D03*
%TD*%
D10*
%TO.C,REF\u002A\u002A*%
X84704256Y-91740056D03*
X83007200Y-92443000D03*
D11*
X83007200Y-90043000D03*
D10*
X83007200Y-87643000D03*
X80607200Y-90043000D03*
X84704256Y-88345944D03*
X85407200Y-90043000D03*
X81310144Y-88345944D03*
X81310144Y-91740056D03*
%TD*%
D14*
%TO.C,Q4*%
X140145000Y-76715000D03*
D15*
X123485000Y-79255000D03*
D16*
X123485000Y-76715000D03*
X123485000Y-74175000D03*
%TD*%
D12*
%TO.C,H4*%
X127103274Y-54205274D03*
X129920000Y-55372000D03*
X126620000Y-55372000D03*
X128270000Y-53722000D03*
X129436726Y-56538726D03*
X129436726Y-54205274D03*
X127103274Y-56538726D03*
D13*
X128270000Y-55372000D03*
D12*
X128270000Y-57022000D03*
%TD*%
%TO.C,H6*%
X117220000Y-55372000D03*
X116736726Y-56538726D03*
X114403274Y-56538726D03*
X113920000Y-55372000D03*
X115570000Y-53722000D03*
X116736726Y-54205274D03*
X114403274Y-54205274D03*
X115570000Y-57022000D03*
D13*
X115570000Y-55372000D03*
%TD*%
G36*
X123520298Y-75741805D02*
G01*
X123708599Y-75760351D01*
X123708791Y-75760389D01*
X123889856Y-75815314D01*
X123890037Y-75815389D01*
X124056907Y-75904584D01*
X124057070Y-75904693D01*
X124203333Y-76024728D01*
X124203472Y-76024867D01*
X124323507Y-76171130D01*
X124323616Y-76171293D01*
X124412811Y-76338163D01*
X124412886Y-76338344D01*
X124467811Y-76519409D01*
X124467849Y-76519601D01*
X124486395Y-76707902D01*
X124486395Y-76708098D01*
X124467849Y-76896399D01*
X124467811Y-76896591D01*
X124412886Y-77077656D01*
X124412811Y-77077837D01*
X124323616Y-77244707D01*
X124323507Y-77244870D01*
X124203472Y-77391133D01*
X124203333Y-77391272D01*
X124057070Y-77511307D01*
X124056907Y-77511416D01*
X123890037Y-77600611D01*
X123889856Y-77600686D01*
X123708791Y-77655611D01*
X123708599Y-77655649D01*
X123520298Y-77674195D01*
X123520200Y-77674200D01*
X117221414Y-77674200D01*
X114681707Y-80213907D01*
X114681000Y-80214200D01*
X107619800Y-80214200D01*
X107619702Y-80214195D01*
X107431401Y-80195649D01*
X107431209Y-80195611D01*
X107250144Y-80140686D01*
X107249963Y-80140611D01*
X107083093Y-80051416D01*
X107082930Y-80051307D01*
X106936667Y-79931272D01*
X106936528Y-79931133D01*
X106816493Y-79784870D01*
X106816384Y-79784707D01*
X106727189Y-79617837D01*
X106727114Y-79617656D01*
X106672189Y-79436591D01*
X106672151Y-79436399D01*
X106653605Y-79248098D01*
X106653605Y-79247902D01*
X106672151Y-79059601D01*
X106672189Y-79059409D01*
X106727114Y-78878344D01*
X106727189Y-78878163D01*
X106816384Y-78711293D01*
X106816493Y-78711130D01*
X106936528Y-78564867D01*
X106936667Y-78564728D01*
X107082930Y-78444693D01*
X107083093Y-78444584D01*
X107249963Y-78355389D01*
X107250144Y-78355314D01*
X107431209Y-78300389D01*
X107431401Y-78300351D01*
X107619702Y-78281805D01*
X107619800Y-78281800D01*
X113867786Y-78281800D01*
X116114600Y-76034986D01*
X116114673Y-76034920D01*
X116266209Y-75910557D01*
X116266372Y-75910448D01*
X116439259Y-75818038D01*
X116439440Y-75817963D01*
X116627033Y-75761058D01*
X116627225Y-75761020D01*
X116822316Y-75741805D01*
X116822414Y-75741800D01*
X123520200Y-75741800D01*
X123520298Y-75741805D01*
G37*
G36*
X115265907Y-78586893D02*
G01*
X115266200Y-78587600D01*
X115266200Y-80873186D01*
X116484814Y-82091800D01*
X128770186Y-82091800D01*
X128770284Y-82091805D01*
X128965375Y-82111020D01*
X128965567Y-82111058D01*
X129153160Y-82167963D01*
X129153341Y-82168038D01*
X129326228Y-82260448D01*
X129326391Y-82260557D01*
X129477927Y-82384920D01*
X129478000Y-82384986D01*
X134531014Y-87438000D01*
X134531080Y-87438073D01*
X134655443Y-87589609D01*
X134655552Y-87589772D01*
X134747962Y-87762659D01*
X134748037Y-87762840D01*
X134804942Y-87950433D01*
X134804980Y-87950625D01*
X134824195Y-88145716D01*
X134824200Y-88145814D01*
X134824200Y-109346586D01*
X146038007Y-120560393D01*
X146038073Y-120560466D01*
X146158688Y-120707436D01*
X146158797Y-120707599D01*
X146248423Y-120875277D01*
X146248498Y-120875458D01*
X146303689Y-121057398D01*
X146303727Y-121057590D01*
X146322363Y-121246802D01*
X146322363Y-121246998D01*
X146303727Y-121436210D01*
X146303689Y-121436402D01*
X146248498Y-121618342D01*
X146248423Y-121618523D01*
X146158797Y-121786201D01*
X146158688Y-121786364D01*
X146038073Y-121933334D01*
X146037934Y-121933473D01*
X145890964Y-122054088D01*
X145890801Y-122054197D01*
X145723123Y-122143823D01*
X145722942Y-122143898D01*
X145541002Y-122199089D01*
X145540810Y-122199127D01*
X145351598Y-122217763D01*
X145351402Y-122217763D01*
X145162190Y-122199127D01*
X145161998Y-122199089D01*
X144980058Y-122143898D01*
X144979877Y-122143823D01*
X144812199Y-122054197D01*
X144812036Y-122054088D01*
X144665066Y-121933473D01*
X144664993Y-121933407D01*
X133184986Y-110453400D01*
X133184920Y-110453327D01*
X133060557Y-110301791D01*
X133060448Y-110301628D01*
X132968038Y-110128741D01*
X132967963Y-110128560D01*
X132911058Y-109940967D01*
X132911020Y-109940775D01*
X132891805Y-109745684D01*
X132891800Y-109745586D01*
X132891800Y-88544814D01*
X128371186Y-84024200D01*
X116085814Y-84024200D01*
X116085716Y-84024195D01*
X115890625Y-84004980D01*
X115890433Y-84004942D01*
X115702840Y-83948037D01*
X115702659Y-83947962D01*
X115529772Y-83855552D01*
X115529609Y-83855443D01*
X115378073Y-83731080D01*
X115378000Y-83731014D01*
X113626986Y-81980000D01*
X113626920Y-81979927D01*
X113502557Y-81828391D01*
X113502448Y-81828228D01*
X113410038Y-81655341D01*
X113409963Y-81655160D01*
X113353058Y-81467567D01*
X113353020Y-81467375D01*
X113333805Y-81272284D01*
X113333800Y-81272186D01*
X113333800Y-78587600D01*
X113334093Y-78586893D01*
X113334800Y-78586600D01*
X115265200Y-78586600D01*
X115265907Y-78586893D01*
G37*
G36*
X115240507Y-104190093D02*
G01*
X115240800Y-104190800D01*
X115240800Y-107009786D01*
X125768014Y-117537000D01*
X125768080Y-117537073D01*
X125892443Y-117688609D01*
X125892552Y-117688772D01*
X125984962Y-117861659D01*
X125985037Y-117861840D01*
X126041942Y-118049433D01*
X126041980Y-118049625D01*
X126061195Y-118244716D01*
X126061200Y-118244814D01*
X126061200Y-120116600D01*
X126061195Y-120116698D01*
X126042649Y-120304999D01*
X126042611Y-120305191D01*
X125987686Y-120486256D01*
X125987611Y-120486437D01*
X125898416Y-120653307D01*
X125898307Y-120653470D01*
X125778272Y-120799733D01*
X125778133Y-120799872D01*
X125631870Y-120919907D01*
X125631707Y-120920016D01*
X125464837Y-121009211D01*
X125464656Y-121009286D01*
X125283591Y-121064211D01*
X125283399Y-121064249D01*
X125095098Y-121082795D01*
X125094902Y-121082795D01*
X124906601Y-121064249D01*
X124906409Y-121064211D01*
X124725344Y-121009286D01*
X124725163Y-121009211D01*
X124558293Y-120920016D01*
X124558130Y-120919907D01*
X124411867Y-120799872D01*
X124411728Y-120799733D01*
X124291693Y-120653470D01*
X124291584Y-120653307D01*
X124202389Y-120486437D01*
X124202314Y-120486256D01*
X124147389Y-120305191D01*
X124147351Y-120304999D01*
X124128805Y-120116698D01*
X124128800Y-120116600D01*
X124128800Y-118643814D01*
X113601586Y-108116600D01*
X113601520Y-108116527D01*
X113477157Y-107964991D01*
X113477048Y-107964828D01*
X113384638Y-107791941D01*
X113384563Y-107791760D01*
X113327658Y-107604167D01*
X113327620Y-107603975D01*
X113308405Y-107408884D01*
X113308400Y-107408786D01*
X113308400Y-104190800D01*
X113308693Y-104190093D01*
X113309400Y-104189800D01*
X115239800Y-104189800D01*
X115240507Y-104190093D01*
G37*
G36*
X115240507Y-91413893D02*
G01*
X115240800Y-91414600D01*
X115240800Y-94055786D01*
X115976814Y-94791800D01*
X126992186Y-94791800D01*
X126992284Y-94791805D01*
X127187375Y-94811020D01*
X127187567Y-94811058D01*
X127375160Y-94867963D01*
X127375341Y-94868038D01*
X127548228Y-94960448D01*
X127548391Y-94960557D01*
X127699927Y-95084920D01*
X127700000Y-95084986D01*
X130721014Y-98106000D01*
X130721080Y-98106073D01*
X130845443Y-98257609D01*
X130845552Y-98257772D01*
X130937962Y-98430659D01*
X130938037Y-98430840D01*
X130994942Y-98618433D01*
X130994980Y-98618625D01*
X131014195Y-98813716D01*
X131014200Y-98813814D01*
X131014200Y-116941186D01*
X134341307Y-120268293D01*
X134341373Y-120268366D01*
X134461988Y-120415336D01*
X134462097Y-120415499D01*
X134551723Y-120583177D01*
X134551798Y-120583358D01*
X134606989Y-120765298D01*
X134607027Y-120765490D01*
X134625663Y-120954702D01*
X134625663Y-120954898D01*
X134607027Y-121144110D01*
X134606989Y-121144302D01*
X134551798Y-121326242D01*
X134551723Y-121326423D01*
X134462097Y-121494101D01*
X134461988Y-121494264D01*
X134341373Y-121641234D01*
X134341234Y-121641373D01*
X134194264Y-121761988D01*
X134194101Y-121762097D01*
X134026423Y-121851723D01*
X134026242Y-121851798D01*
X133844302Y-121906989D01*
X133844110Y-121907027D01*
X133654898Y-121925663D01*
X133654702Y-121925663D01*
X133465490Y-121907027D01*
X133465298Y-121906989D01*
X133283358Y-121851798D01*
X133283177Y-121851723D01*
X133115499Y-121762097D01*
X133115336Y-121761988D01*
X132968366Y-121641373D01*
X132968293Y-121641307D01*
X129374986Y-118048000D01*
X129374920Y-118047927D01*
X129250557Y-117896391D01*
X129250448Y-117896228D01*
X129158038Y-117723341D01*
X129157963Y-117723160D01*
X129101058Y-117535567D01*
X129101020Y-117535375D01*
X129081805Y-117340284D01*
X129081800Y-117340186D01*
X129081800Y-99212814D01*
X126593186Y-96724200D01*
X115603214Y-96724200D01*
X115603116Y-96724195D01*
X115408025Y-96704980D01*
X115407833Y-96704942D01*
X115220240Y-96648037D01*
X115220059Y-96647962D01*
X115047172Y-96555552D01*
X115047009Y-96555443D01*
X114895473Y-96431080D01*
X114895400Y-96431014D01*
X113601586Y-95137200D01*
X113601520Y-95137127D01*
X113477157Y-94985591D01*
X113477048Y-94985428D01*
X113384638Y-94812541D01*
X113384563Y-94812360D01*
X113327658Y-94624767D01*
X113327620Y-94624575D01*
X113308405Y-94429484D01*
X113308400Y-94429386D01*
X113308400Y-91414600D01*
X113308693Y-91413893D01*
X113309400Y-91413600D01*
X115239800Y-91413600D01*
X115240507Y-91413893D01*
G37*
G36*
X123520298Y-88568805D02*
G01*
X123708599Y-88587351D01*
X123708791Y-88587389D01*
X123889856Y-88642314D01*
X123890037Y-88642389D01*
X124056907Y-88731584D01*
X124057070Y-88731693D01*
X124203333Y-88851728D01*
X124203472Y-88851867D01*
X124323507Y-88998130D01*
X124323616Y-88998293D01*
X124412811Y-89165163D01*
X124412886Y-89165344D01*
X124467811Y-89346409D01*
X124467849Y-89346601D01*
X124486395Y-89534902D01*
X124486395Y-89535098D01*
X124467849Y-89723399D01*
X124467811Y-89723591D01*
X124412886Y-89904656D01*
X124412811Y-89904837D01*
X124323616Y-90071707D01*
X124323507Y-90071870D01*
X124203472Y-90218133D01*
X124203333Y-90218272D01*
X124057070Y-90338307D01*
X124056907Y-90338416D01*
X123890037Y-90427611D01*
X123889856Y-90427686D01*
X123708791Y-90482611D01*
X123708599Y-90482649D01*
X123520298Y-90501195D01*
X123520200Y-90501200D01*
X117221414Y-90501200D01*
X114681707Y-93040907D01*
X114681000Y-93041200D01*
X107619800Y-93041200D01*
X107619702Y-93041195D01*
X107431401Y-93022649D01*
X107431209Y-93022611D01*
X107250144Y-92967686D01*
X107249963Y-92967611D01*
X107083093Y-92878416D01*
X107082930Y-92878307D01*
X106936667Y-92758272D01*
X106936528Y-92758133D01*
X106816493Y-92611870D01*
X106816384Y-92611707D01*
X106727189Y-92444837D01*
X106727114Y-92444656D01*
X106672189Y-92263591D01*
X106672151Y-92263399D01*
X106653605Y-92075098D01*
X106653605Y-92074902D01*
X106672151Y-91886601D01*
X106672189Y-91886409D01*
X106727114Y-91705344D01*
X106727189Y-91705163D01*
X106816384Y-91538293D01*
X106816493Y-91538130D01*
X106936528Y-91391867D01*
X106936667Y-91391728D01*
X107082930Y-91271693D01*
X107083093Y-91271584D01*
X107249963Y-91182389D01*
X107250144Y-91182314D01*
X107431209Y-91127389D01*
X107431401Y-91127351D01*
X107619702Y-91108805D01*
X107619800Y-91108800D01*
X113867786Y-91108800D01*
X116114600Y-88861986D01*
X116114673Y-88861920D01*
X116266209Y-88737557D01*
X116266372Y-88737448D01*
X116439259Y-88645038D01*
X116439440Y-88644963D01*
X116627033Y-88588058D01*
X116627225Y-88588020D01*
X116822316Y-88568805D01*
X116822414Y-88568800D01*
X123520200Y-88568800D01*
X123520298Y-88568805D01*
G37*
G36*
X123520298Y-101268805D02*
G01*
X123708599Y-101287351D01*
X123708791Y-101287389D01*
X123889856Y-101342314D01*
X123890037Y-101342389D01*
X124056907Y-101431584D01*
X124057070Y-101431693D01*
X124203333Y-101551728D01*
X124203472Y-101551867D01*
X124323507Y-101698130D01*
X124323616Y-101698293D01*
X124412811Y-101865163D01*
X124412886Y-101865344D01*
X124467811Y-102046409D01*
X124467849Y-102046601D01*
X124486395Y-102234902D01*
X124486395Y-102235098D01*
X124467849Y-102423399D01*
X124467811Y-102423591D01*
X124412886Y-102604656D01*
X124412811Y-102604837D01*
X124323616Y-102771707D01*
X124323507Y-102771870D01*
X124203472Y-102918133D01*
X124203333Y-102918272D01*
X124057070Y-103038307D01*
X124056907Y-103038416D01*
X123890037Y-103127611D01*
X123889856Y-103127686D01*
X123708791Y-103182611D01*
X123708599Y-103182649D01*
X123520298Y-103201195D01*
X123520200Y-103201200D01*
X117221414Y-103201200D01*
X114681707Y-105740907D01*
X114681000Y-105741200D01*
X107619800Y-105741200D01*
X107619702Y-105741195D01*
X107431401Y-105722649D01*
X107431209Y-105722611D01*
X107250144Y-105667686D01*
X107249963Y-105667611D01*
X107083093Y-105578416D01*
X107082930Y-105578307D01*
X106936667Y-105458272D01*
X106936528Y-105458133D01*
X106816493Y-105311870D01*
X106816384Y-105311707D01*
X106727189Y-105144837D01*
X106727114Y-105144656D01*
X106672189Y-104963591D01*
X106672151Y-104963399D01*
X106653605Y-104775098D01*
X106653605Y-104774902D01*
X106672151Y-104586601D01*
X106672189Y-104586409D01*
X106727114Y-104405344D01*
X106727189Y-104405163D01*
X106816384Y-104238293D01*
X106816493Y-104238130D01*
X106936528Y-104091867D01*
X106936667Y-104091728D01*
X107082930Y-103971693D01*
X107083093Y-103971584D01*
X107249963Y-103882389D01*
X107250144Y-103882314D01*
X107431209Y-103827389D01*
X107431401Y-103827351D01*
X107619702Y-103808805D01*
X107619800Y-103808800D01*
X113867786Y-103808800D01*
X116114600Y-101561986D01*
X116114673Y-101561920D01*
X116266209Y-101437557D01*
X116266372Y-101437448D01*
X116439259Y-101345038D01*
X116439440Y-101344963D01*
X116627033Y-101288058D01*
X116627225Y-101288020D01*
X116822316Y-101268805D01*
X116822414Y-101268800D01*
X123520200Y-101268800D01*
X123520298Y-101268805D01*
G37*
M02*
