%TF.GenerationSoftware,KiCad,Pcbnew,6.0.11+dfsg-1*%
%TF.CreationDate,2023-11-07T11:46:16+00:00*%
%TF.ProjectId,bb2b,62623262-2e6b-4696-9361-645f70636258,rev?*%
%TF.SameCoordinates,Original*%
%TF.FileFunction,Copper,L2,Bot*%
%TF.FilePolarity,Positive*%
%FSLAX46Y46*%
G04 Gerber Fmt 4.6, Leading zero omitted, Abs format (unit mm)*
G04 Created by KiCad (PCBNEW 6.0.11+dfsg-1) date 2023-11-07 11:46:16*
%MOMM*%
%LPD*%
G01*
G04 APERTURE LIST*
%TA.AperFunction,ComponentPad*%
%ADD10C,0.800000*%
%TD*%
%TA.AperFunction,ComponentPad*%
%ADD11C,6.400000*%
%TD*%
%TA.AperFunction,ComponentPad*%
%ADD12C,0.700000*%
%TD*%
%TA.AperFunction,ComponentPad*%
%ADD13C,4.400000*%
%TD*%
%TA.AperFunction,ComponentPad*%
%ADD14R,2.000000X1.905000*%
%TD*%
%TA.AperFunction,ComponentPad*%
%ADD15O,2.000000X1.905000*%
%TD*%
%TA.AperFunction,ComponentPad*%
%ADD16C,8.600000*%
%TD*%
%TA.AperFunction,ComponentPad*%
%ADD17C,0.900000*%
%TD*%
%TA.AperFunction,ViaPad*%
%ADD18C,0.800000*%
%TD*%
%TA.AperFunction,Conductor*%
%ADD19C,1.270000*%
%TD*%
%TA.AperFunction,Conductor*%
%ADD20C,1.905000*%
%TD*%
G04 APERTURE END LIST*
D10*
%TO.P,REF\u002A\u002A,1*%
%TO.N,N/C*%
X149829856Y-91740056D03*
X148132800Y-92443000D03*
D11*
X148132800Y-90043000D03*
D10*
X148132800Y-87643000D03*
X145732800Y-90043000D03*
X149829856Y-88345944D03*
X150532800Y-90043000D03*
X146435744Y-88345944D03*
X146435744Y-91740056D03*
%TD*%
D12*
%TO.P,H1,1,1*%
%TO.N,Net-(H1-Pad1)*%
X145670000Y-55372000D03*
X147320000Y-53722000D03*
X147320000Y-57022000D03*
X146153274Y-56538726D03*
X146153274Y-54205274D03*
X148970000Y-55372000D03*
X148486726Y-56538726D03*
X148486726Y-54205274D03*
D13*
X147320000Y-55372000D03*
%TD*%
D14*
%TO.P,Q5,1,G*%
%TO.N,Net-(H6-Pad1)*%
X123485000Y-92075000D03*
D15*
%TO.P,Q5,2,D*%
%TO.N,Net-(H5-Pad1)*%
X123485000Y-89535000D03*
%TO.P,Q5,3,S*%
%TO.N,GNDPWR*%
X123485000Y-86995000D03*
%TD*%
D16*
%TO.P,H16,1,1*%
%TO.N,Net-(H16-Pad1)*%
X83058000Y-123825000D03*
D17*
X80777581Y-126105419D03*
X86283000Y-123825000D03*
X80777581Y-121544581D03*
X83058000Y-127050000D03*
X85338419Y-126105419D03*
X83058000Y-120600000D03*
X85338419Y-121544581D03*
X79833000Y-123825000D03*
%TD*%
D14*
%TO.P,Q1,1,G*%
%TO.N,Net-(H1-Pad1)*%
X107655000Y-74175000D03*
D15*
%TO.P,Q1,2,D*%
%TO.N,Net-(H16-Pad1)*%
X107655000Y-76715000D03*
%TO.P,Q1,3,S*%
%TO.N,Net-(H2-Pad1)*%
X107655000Y-79255000D03*
%TD*%
D17*
%TO.P,H15,1,1*%
%TO.N,GNDPWR*%
X106426000Y-127050000D03*
D16*
X106426000Y-123825000D03*
D17*
X106426000Y-120600000D03*
X104145581Y-126105419D03*
X109651000Y-123825000D03*
X103201000Y-123825000D03*
X104145581Y-121544581D03*
X108706419Y-121544581D03*
X108706419Y-126105419D03*
%TD*%
D12*
%TO.P,H3,1,1*%
%TO.N,Net-(H3-Pad1)*%
X135786726Y-56538726D03*
X135786726Y-54205274D03*
X133453274Y-56538726D03*
X133453274Y-54205274D03*
X134620000Y-53722000D03*
X132970000Y-55372000D03*
X134620000Y-57022000D03*
X136270000Y-55372000D03*
D13*
X134620000Y-55372000D03*
%TD*%
D14*
%TO.P,Q2,1,G*%
%TO.N,Net-(H4-Pad1)*%
X107655000Y-86995000D03*
D15*
%TO.P,Q2,2,D*%
%TO.N,Net-(H16-Pad1)*%
X107655000Y-89535000D03*
%TO.P,Q2,3,S*%
%TO.N,Net-(H5-Pad1)*%
X107655000Y-92075000D03*
%TD*%
D13*
%TO.P,H9,1,1*%
%TO.N,Net-(H9-Pad1)*%
X96520000Y-55372000D03*
D12*
X98170000Y-55372000D03*
X97686726Y-56538726D03*
X95353274Y-54205274D03*
X97686726Y-54205274D03*
X96520000Y-57022000D03*
X95353274Y-56538726D03*
X96520000Y-53722000D03*
X94870000Y-55372000D03*
%TD*%
D17*
%TO.P,H17,1,1*%
%TO.N,Net-(H2-Pad1)*%
X145654581Y-126105419D03*
X144710000Y-123825000D03*
X147935000Y-120600000D03*
X147935000Y-127050000D03*
X150215419Y-126105419D03*
D16*
X147935000Y-123825000D03*
D17*
X151160000Y-123825000D03*
X150215419Y-121544581D03*
X145654581Y-121544581D03*
%TD*%
D12*
%TO.P,H11,1,1*%
%TO.N,GNDPWR*%
X82653274Y-56538726D03*
X84986726Y-54205274D03*
X83820000Y-57022000D03*
X82653274Y-54205274D03*
X84986726Y-56538726D03*
X83820000Y-53722000D03*
X82170000Y-55372000D03*
X85470000Y-55372000D03*
D13*
X83820000Y-55372000D03*
%TD*%
%TO.P,H2,1,1*%
%TO.N,Net-(H2-Pad1)*%
X140970000Y-55372000D03*
D12*
X140970000Y-57022000D03*
X142620000Y-55372000D03*
X139803274Y-56538726D03*
X142136726Y-54205274D03*
X140970000Y-53722000D03*
X139803274Y-54205274D03*
X142136726Y-56538726D03*
X139320000Y-55372000D03*
%TD*%
%TO.P,H5,1,1*%
%TO.N,Net-(H5-Pad1)*%
X121920000Y-53722000D03*
X120753274Y-56538726D03*
X120270000Y-55372000D03*
X121920000Y-57022000D03*
X123086726Y-54205274D03*
X120753274Y-54205274D03*
X123086726Y-56538726D03*
D13*
X121920000Y-55372000D03*
D12*
X123570000Y-55372000D03*
%TD*%
D14*
%TO.P,Q3,1,G*%
%TO.N,Net-(H7-Pad1)*%
X107655000Y-99695000D03*
D15*
%TO.P,Q3,2,D*%
%TO.N,Net-(H16-Pad1)*%
X107655000Y-102235000D03*
%TO.P,Q3,3,S*%
%TO.N,Net-(H8-Pad1)*%
X107655000Y-104775000D03*
%TD*%
D13*
%TO.P,H7,1,1*%
%TO.N,Net-(H7-Pad1)*%
X109220000Y-55372000D03*
D12*
X107570000Y-55372000D03*
X109220000Y-53722000D03*
X110386726Y-54205274D03*
X109220000Y-57022000D03*
X108053274Y-56538726D03*
X108053274Y-54205274D03*
X110386726Y-56538726D03*
X110870000Y-55372000D03*
%TD*%
%TO.P,H8,1,1*%
%TO.N,Net-(H8-Pad1)*%
X104520000Y-55372000D03*
X101220000Y-55372000D03*
D13*
X102870000Y-55372000D03*
D12*
X101703274Y-54205274D03*
X102870000Y-53722000D03*
X101703274Y-56538726D03*
X102870000Y-57022000D03*
X104036726Y-56538726D03*
X104036726Y-54205274D03*
%TD*%
D14*
%TO.P,Q6,1,G*%
%TO.N,Net-(H9-Pad1)*%
X123485000Y-104775000D03*
D15*
%TO.P,Q6,2,D*%
%TO.N,Net-(H8-Pad1)*%
X123485000Y-102235000D03*
%TO.P,Q6,3,S*%
%TO.N,GNDPWR*%
X123485000Y-99695000D03*
%TD*%
D17*
%TO.P,H18,1,1*%
%TO.N,Net-(H5-Pad1)*%
X134244581Y-126105419D03*
X134244581Y-121544581D03*
D16*
X136525000Y-123825000D03*
D17*
X136525000Y-120600000D03*
X133300000Y-123825000D03*
X138805419Y-126105419D03*
X138805419Y-121544581D03*
X136525000Y-127050000D03*
X139750000Y-123825000D03*
%TD*%
%TO.P,H14,1,1*%
%TO.N,VCC*%
X97967000Y-123825000D03*
X92461581Y-121544581D03*
X94742000Y-127050000D03*
X97022419Y-121544581D03*
X94742000Y-120600000D03*
X97022419Y-126105419D03*
X92461581Y-126105419D03*
D16*
X94742000Y-123825000D03*
D17*
X91517000Y-123825000D03*
%TD*%
D12*
%TO.P,H10,1,1*%
%TO.N,VCC*%
X89003274Y-56538726D03*
X88520000Y-55372000D03*
X89003274Y-54205274D03*
X91820000Y-55372000D03*
X91336726Y-56538726D03*
X90170000Y-57022000D03*
X91336726Y-54205274D03*
X90170000Y-53722000D03*
D13*
X90170000Y-55372000D03*
%TD*%
D17*
%TO.P,H19,1,1*%
%TO.N,Net-(H8-Pad1)*%
X125095000Y-120600000D03*
X127375419Y-121544581D03*
X128320000Y-123825000D03*
X122814581Y-121544581D03*
X125095000Y-127050000D03*
X127375419Y-126105419D03*
D16*
X125095000Y-123825000D03*
D17*
X121870000Y-123825000D03*
X122814581Y-126105419D03*
%TD*%
D10*
%TO.P,REF\u002A\u002A,1*%
%TO.N,N/C*%
X84704256Y-91740056D03*
X83007200Y-92443000D03*
D11*
X83007200Y-90043000D03*
D10*
X83007200Y-87643000D03*
X80607200Y-90043000D03*
X84704256Y-88345944D03*
X85407200Y-90043000D03*
X81310144Y-88345944D03*
X81310144Y-91740056D03*
%TD*%
D14*
%TO.P,Q4,1,G*%
%TO.N,Net-(H3-Pad1)*%
X123485000Y-79255000D03*
D15*
%TO.P,Q4,2,D*%
%TO.N,Net-(H2-Pad1)*%
X123485000Y-76715000D03*
%TO.P,Q4,3,S*%
%TO.N,GNDPWR*%
X123485000Y-74175000D03*
%TD*%
D12*
%TO.P,H4,1,1*%
%TO.N,Net-(H4-Pad1)*%
X127103274Y-54205274D03*
X129920000Y-55372000D03*
X126620000Y-55372000D03*
X128270000Y-53722000D03*
X129436726Y-56538726D03*
X129436726Y-54205274D03*
X127103274Y-56538726D03*
D13*
X128270000Y-55372000D03*
D12*
X128270000Y-57022000D03*
%TD*%
%TO.P,H6,1,1*%
%TO.N,Net-(H6-Pad1)*%
X117220000Y-55372000D03*
X116736726Y-56538726D03*
X114403274Y-56538726D03*
X113920000Y-55372000D03*
X115570000Y-53722000D03*
X116736726Y-54205274D03*
X114403274Y-54205274D03*
X115570000Y-57022000D03*
D13*
X115570000Y-55372000D03*
%TD*%
D18*
%TO.N,Net-(H2-Pad1)*%
X149606000Y-59690000D03*
X144780000Y-59690000D03*
%TO.N,Net-(H5-Pad1)*%
X113792000Y-60706000D03*
%TO.N,Net-(H6-Pad1)*%
X151130000Y-70104000D03*
X151384000Y-85090000D03*
%TO.N,Net-(H9-Pad1)*%
X97536000Y-63246000D03*
X153416000Y-106172000D03*
X148590000Y-67310000D03*
%TO.N,GNDPWR*%
X90678000Y-116713000D03*
%TD*%
D19*
%TO.N,Net-(H1-Pad1)*%
X107655000Y-67859000D02*
X110490000Y-65024000D01*
X107655000Y-74175000D02*
X107655000Y-67859000D01*
X110490000Y-65024000D02*
X144272000Y-65024000D01*
X144272000Y-65024000D02*
X147320000Y-61976000D01*
X147320000Y-61976000D02*
X147320000Y-55372000D01*
%TO.N,Net-(H2-Pad1)*%
X144780000Y-59690000D02*
X142748000Y-59690000D01*
D20*
X107655000Y-79255000D02*
X114293000Y-79255000D01*
D19*
X125723000Y-76715000D02*
X126746000Y-75692000D01*
D20*
X116833000Y-76715000D02*
X123485000Y-76715000D01*
D19*
X145288000Y-67310000D02*
X149606000Y-62992000D01*
D20*
X114293000Y-79255000D02*
X116833000Y-76715000D01*
X116078000Y-83058000D02*
X128778000Y-83058000D01*
X114293000Y-81273000D02*
X116078000Y-83058000D01*
D19*
X149606000Y-62992000D02*
X149606000Y-59690000D01*
X129286000Y-67310000D02*
X132080000Y-67310000D01*
X132080000Y-67310000D02*
X145288000Y-67310000D01*
X126746000Y-69850000D02*
X129286000Y-67310000D01*
D20*
X133858000Y-88138000D02*
X133858000Y-109748000D01*
D19*
X123485000Y-76715000D02*
X125723000Y-76715000D01*
D20*
X114293000Y-79255000D02*
X114293000Y-81273000D01*
D19*
X142748000Y-59690000D02*
X140970000Y-57912000D01*
X140970000Y-57912000D02*
X140970000Y-55372000D01*
D20*
X133858000Y-109748000D02*
X147935000Y-123825000D01*
X128778000Y-83058000D02*
X133858000Y-88138000D01*
D19*
X126746000Y-75692000D02*
X126746000Y-69850000D01*
%TO.N,Net-(H4-Pad1)*%
X125984000Y-62992000D02*
X128270000Y-60706000D01*
X106299000Y-86995000D02*
X104648000Y-85344000D01*
X109474000Y-62992000D02*
X125984000Y-62992000D01*
X128270000Y-60706000D02*
X128270000Y-55372000D01*
X107655000Y-86995000D02*
X106299000Y-86995000D01*
X104648000Y-67818000D02*
X109474000Y-62992000D01*
X104648000Y-85344000D02*
X104648000Y-67818000D01*
%TO.N,Net-(H5-Pad1)*%
X121920000Y-55372000D02*
X121920000Y-59436000D01*
D20*
X114276000Y-92075000D02*
X116816000Y-89535000D01*
X115570000Y-95758000D02*
X127000000Y-95758000D01*
X114276000Y-94464000D02*
X115570000Y-95758000D01*
X130048000Y-117348000D02*
X136525000Y-123825000D01*
X127000000Y-95758000D02*
X130048000Y-98806000D01*
X114276000Y-92075000D02*
X114276000Y-94464000D01*
X116816000Y-89535000D02*
X123468000Y-89535000D01*
X107638000Y-92075000D02*
X114276000Y-92075000D01*
D19*
X120650000Y-60706000D02*
X113792000Y-60706000D01*
D20*
X130048000Y-98806000D02*
X130048000Y-117348000D01*
D19*
X121920000Y-59436000D02*
X121158000Y-60198000D01*
X121158000Y-60198000D02*
X120650000Y-60706000D01*
%TO.N,Net-(H6-Pad1)*%
X151384000Y-85090000D02*
X151130000Y-84836000D01*
X151130000Y-84836000D02*
X151130000Y-81280000D01*
X151130000Y-81280000D02*
X151130000Y-70104000D01*
%TO.N,Net-(H7-Pad1)*%
X109220000Y-59944000D02*
X109220000Y-55372000D01*
X104775000Y-99695000D02*
X102362000Y-97282000D01*
X102362000Y-97282000D02*
X102362000Y-66802000D01*
X102362000Y-66802000D02*
X109220000Y-59944000D01*
X107655000Y-99695000D02*
X104775000Y-99695000D01*
%TO.N,Net-(H8-Pad1)*%
X99822000Y-100584000D02*
X104013000Y-104775000D01*
X102870000Y-62992000D02*
X99822000Y-66040000D01*
D20*
X125095000Y-118237000D02*
X114276000Y-107418000D01*
X114276000Y-104775000D02*
X116816000Y-102235000D01*
X116816000Y-102235000D02*
X123468000Y-102235000D01*
D19*
X102870000Y-55372000D02*
X102870000Y-62992000D01*
D20*
X107638000Y-104775000D02*
X114276000Y-104775000D01*
X114276000Y-107418000D02*
X114276000Y-104775000D01*
D19*
X99822000Y-66040000D02*
X99822000Y-100584000D01*
D20*
X125095000Y-123825000D02*
X125095000Y-118237000D01*
D19*
X104013000Y-104775000D02*
X107655000Y-104775000D01*
%TO.N,Net-(H9-Pad1)*%
X148590000Y-67310000D02*
X151130000Y-67310000D01*
X151130000Y-67310000D02*
X152146000Y-67310000D01*
X153416000Y-87884000D02*
X153416000Y-106172000D01*
X153416000Y-68580000D02*
X153416000Y-87884000D01*
X96520000Y-62230000D02*
X97536000Y-63246000D01*
X152146000Y-67310000D02*
X153416000Y-68580000D01*
X96520000Y-55372000D02*
X96520000Y-62230000D01*
D20*
%TO.N,VCC*%
X96520000Y-110998000D02*
X96520000Y-69342000D01*
X96520000Y-69342000D02*
X90170000Y-62992000D01*
X90170000Y-62992000D02*
X90170000Y-55372000D01*
X94742000Y-112776000D02*
X96520000Y-110998000D01*
X94742000Y-123825000D02*
X94742000Y-112776000D01*
%TO.N,GNDPWR*%
X86741000Y-116713000D02*
X77978000Y-107950000D01*
X90678000Y-116713000D02*
X86741000Y-116713000D01*
X83820000Y-60452000D02*
X83820000Y-55372000D01*
X77978000Y-107950000D02*
X77978000Y-66294000D01*
X77978000Y-66294000D02*
X83820000Y-60452000D01*
%TD*%
M02*
