%TF.GenerationSoftware,KiCad,Pcbnew,6.0.11+dfsg-1*%
%TF.CreationDate,2023-11-07T11:46:17+00:00*%
%TF.ProjectId,bb2b,62623262-2e6b-4696-9361-645f70636258,rev?*%
%TF.SameCoordinates,Original*%
%TF.FileFunction,Soldermask,Top*%
%TF.FilePolarity,Negative*%
%FSLAX46Y46*%
G04 Gerber Fmt 4.6, Leading zero omitted, Abs format (unit mm)*
G04 Created by KiCad (PCBNEW 6.0.11+dfsg-1) date 2023-11-07 11:46:17*
%MOMM*%
%LPD*%
G01*
G04 APERTURE LIST*
%ADD10C,0.800000*%
%ADD11C,6.400000*%
%ADD12C,0.700000*%
%ADD13C,4.400000*%
%ADD14O,3.500000X3.500000*%
%ADD15R,2.000000X1.905000*%
%ADD16O,2.000000X1.905000*%
%ADD17C,8.600000*%
%ADD18C,0.900000*%
G04 APERTURE END LIST*
D10*
%TO.C,REF\u002A\u002A*%
X149829856Y-91740056D03*
X148132800Y-92443000D03*
D11*
X148132800Y-90043000D03*
D10*
X148132800Y-87643000D03*
X145732800Y-90043000D03*
X149829856Y-88345944D03*
X150532800Y-90043000D03*
X146435744Y-88345944D03*
X146435744Y-91740056D03*
%TD*%
D12*
%TO.C,H1*%
X145670000Y-55372000D03*
X147320000Y-53722000D03*
X147320000Y-57022000D03*
X146153274Y-56538726D03*
X146153274Y-54205274D03*
X148970000Y-55372000D03*
X148486726Y-56538726D03*
X148486726Y-54205274D03*
D13*
X147320000Y-55372000D03*
%TD*%
D14*
%TO.C,Q5*%
X140145000Y-89535000D03*
D15*
X123485000Y-92075000D03*
D16*
X123485000Y-89535000D03*
X123485000Y-86995000D03*
%TD*%
D17*
%TO.C,H16*%
X83058000Y-123825000D03*
D18*
X80777581Y-126105419D03*
X86283000Y-123825000D03*
X80777581Y-121544581D03*
X83058000Y-127050000D03*
X85338419Y-126105419D03*
X83058000Y-120600000D03*
X85338419Y-121544581D03*
X79833000Y-123825000D03*
%TD*%
D14*
%TO.C,Q1*%
X90995000Y-76715000D03*
D15*
X107655000Y-74175000D03*
D16*
X107655000Y-76715000D03*
X107655000Y-79255000D03*
%TD*%
D18*
%TO.C,H15*%
X106426000Y-127050000D03*
D17*
X106426000Y-123825000D03*
D18*
X106426000Y-120600000D03*
X104145581Y-126105419D03*
X109651000Y-123825000D03*
X103201000Y-123825000D03*
X104145581Y-121544581D03*
X108706419Y-121544581D03*
X108706419Y-126105419D03*
%TD*%
D12*
%TO.C,H3*%
X135786726Y-56538726D03*
X135786726Y-54205274D03*
X133453274Y-56538726D03*
X133453274Y-54205274D03*
X134620000Y-53722000D03*
X132970000Y-55372000D03*
X134620000Y-57022000D03*
X136270000Y-55372000D03*
D13*
X134620000Y-55372000D03*
%TD*%
D14*
%TO.C,Q2*%
X90995000Y-89535000D03*
D15*
X107655000Y-86995000D03*
D16*
X107655000Y-89535000D03*
X107655000Y-92075000D03*
%TD*%
D13*
%TO.C,H9*%
X96520000Y-55372000D03*
D12*
X98170000Y-55372000D03*
X97686726Y-56538726D03*
X95353274Y-54205274D03*
X97686726Y-54205274D03*
X96520000Y-57022000D03*
X95353274Y-56538726D03*
X96520000Y-53722000D03*
X94870000Y-55372000D03*
%TD*%
D18*
%TO.C,H17*%
X145654581Y-126105419D03*
X144710000Y-123825000D03*
X147935000Y-120600000D03*
X147935000Y-127050000D03*
X150215419Y-126105419D03*
D17*
X147935000Y-123825000D03*
D18*
X151160000Y-123825000D03*
X150215419Y-121544581D03*
X145654581Y-121544581D03*
%TD*%
D12*
%TO.C,H11*%
X82653274Y-56538726D03*
X84986726Y-54205274D03*
X83820000Y-57022000D03*
X82653274Y-54205274D03*
X84986726Y-56538726D03*
X83820000Y-53722000D03*
X82170000Y-55372000D03*
X85470000Y-55372000D03*
D13*
X83820000Y-55372000D03*
%TD*%
%TO.C,H2*%
X140970000Y-55372000D03*
D12*
X140970000Y-57022000D03*
X142620000Y-55372000D03*
X139803274Y-56538726D03*
X142136726Y-54205274D03*
X140970000Y-53722000D03*
X139803274Y-54205274D03*
X142136726Y-56538726D03*
X139320000Y-55372000D03*
%TD*%
%TO.C,H5*%
X121920000Y-53722000D03*
X120753274Y-56538726D03*
X120270000Y-55372000D03*
X121920000Y-57022000D03*
X123086726Y-54205274D03*
X120753274Y-54205274D03*
X123086726Y-56538726D03*
D13*
X121920000Y-55372000D03*
D12*
X123570000Y-55372000D03*
%TD*%
D14*
%TO.C,Q3*%
X90995000Y-102235000D03*
D15*
X107655000Y-99695000D03*
D16*
X107655000Y-102235000D03*
X107655000Y-104775000D03*
%TD*%
D13*
%TO.C,H7*%
X109220000Y-55372000D03*
D12*
X107570000Y-55372000D03*
X109220000Y-53722000D03*
X110386726Y-54205274D03*
X109220000Y-57022000D03*
X108053274Y-56538726D03*
X108053274Y-54205274D03*
X110386726Y-56538726D03*
X110870000Y-55372000D03*
%TD*%
%TO.C,H8*%
X104520000Y-55372000D03*
X101220000Y-55372000D03*
D13*
X102870000Y-55372000D03*
D12*
X101703274Y-54205274D03*
X102870000Y-53722000D03*
X101703274Y-56538726D03*
X102870000Y-57022000D03*
X104036726Y-56538726D03*
X104036726Y-54205274D03*
%TD*%
D14*
%TO.C,Q6*%
X140145000Y-102235000D03*
D15*
X123485000Y-104775000D03*
D16*
X123485000Y-102235000D03*
X123485000Y-99695000D03*
%TD*%
D18*
%TO.C,H18*%
X134244581Y-126105419D03*
X134244581Y-121544581D03*
D17*
X136525000Y-123825000D03*
D18*
X136525000Y-120600000D03*
X133300000Y-123825000D03*
X138805419Y-126105419D03*
X138805419Y-121544581D03*
X136525000Y-127050000D03*
X139750000Y-123825000D03*
%TD*%
%TO.C,H14*%
X97967000Y-123825000D03*
X92461581Y-121544581D03*
X94742000Y-127050000D03*
X97022419Y-121544581D03*
X94742000Y-120600000D03*
X97022419Y-126105419D03*
X92461581Y-126105419D03*
D17*
X94742000Y-123825000D03*
D18*
X91517000Y-123825000D03*
%TD*%
D12*
%TO.C,H10*%
X89003274Y-56538726D03*
X88520000Y-55372000D03*
X89003274Y-54205274D03*
X91820000Y-55372000D03*
X91336726Y-56538726D03*
X90170000Y-57022000D03*
X91336726Y-54205274D03*
X90170000Y-53722000D03*
D13*
X90170000Y-55372000D03*
%TD*%
D18*
%TO.C,H19*%
X125095000Y-120600000D03*
X127375419Y-121544581D03*
X128320000Y-123825000D03*
X122814581Y-121544581D03*
X125095000Y-127050000D03*
X127375419Y-126105419D03*
D17*
X125095000Y-123825000D03*
D18*
X121870000Y-123825000D03*
X122814581Y-126105419D03*
%TD*%
D10*
%TO.C,REF\u002A\u002A*%
X84704256Y-91740056D03*
X83007200Y-92443000D03*
D11*
X83007200Y-90043000D03*
D10*
X83007200Y-87643000D03*
X80607200Y-90043000D03*
X84704256Y-88345944D03*
X85407200Y-90043000D03*
X81310144Y-88345944D03*
X81310144Y-91740056D03*
%TD*%
D14*
%TO.C,Q4*%
X140145000Y-76715000D03*
D15*
X123485000Y-79255000D03*
D16*
X123485000Y-76715000D03*
X123485000Y-74175000D03*
%TD*%
D12*
%TO.C,H4*%
X127103274Y-54205274D03*
X129920000Y-55372000D03*
X126620000Y-55372000D03*
X128270000Y-53722000D03*
X129436726Y-56538726D03*
X129436726Y-54205274D03*
X127103274Y-56538726D03*
D13*
X128270000Y-55372000D03*
D12*
X128270000Y-57022000D03*
%TD*%
%TO.C,H6*%
X117220000Y-55372000D03*
X116736726Y-56538726D03*
X114403274Y-56538726D03*
X113920000Y-55372000D03*
X115570000Y-53722000D03*
X116736726Y-54205274D03*
X114403274Y-54205274D03*
X115570000Y-57022000D03*
D13*
X115570000Y-55372000D03*
%TD*%
G36*
X123551763Y-86055807D02*
G01*
X123716596Y-86072042D01*
X123740821Y-86076860D01*
X123893368Y-86123134D01*
X123916189Y-86132587D01*
X124056783Y-86207736D01*
X124077321Y-86221459D01*
X124200547Y-86322588D01*
X124218012Y-86340053D01*
X124319141Y-86463279D01*
X124332864Y-86483817D01*
X124408013Y-86624411D01*
X124417466Y-86647232D01*
X124463740Y-86799779D01*
X124468558Y-86824003D01*
X124484184Y-86982649D01*
X124484184Y-87007351D01*
X124468558Y-87165997D01*
X124463740Y-87190221D01*
X124417466Y-87342768D01*
X124408013Y-87365589D01*
X124332864Y-87506183D01*
X124319141Y-87526721D01*
X124218012Y-87649947D01*
X124200547Y-87667412D01*
X124077321Y-87768541D01*
X124056783Y-87782264D01*
X123916189Y-87857413D01*
X123893368Y-87866866D01*
X123740821Y-87913140D01*
X123716596Y-87917958D01*
X123551763Y-87934193D01*
X123539413Y-87934800D01*
X121258600Y-87934800D01*
X121190479Y-87914798D01*
X121143986Y-87861142D01*
X121132600Y-87808800D01*
X121132600Y-86181200D01*
X121152602Y-86113079D01*
X121206258Y-86066586D01*
X121258600Y-86055200D01*
X123539413Y-86055200D01*
X123551763Y-86055807D01*
G37*
G36*
X113300098Y-75767205D02*
G01*
X113495188Y-75786420D01*
X113495380Y-75786458D01*
X113682973Y-75843363D01*
X113683154Y-75843438D01*
X113856041Y-75935848D01*
X113856204Y-75935957D01*
X114007741Y-76060320D01*
X114007880Y-76060459D01*
X114132243Y-76211996D01*
X114132352Y-76212159D01*
X114224762Y-76385046D01*
X114224837Y-76385227D01*
X114281742Y-76572820D01*
X114281780Y-76573012D01*
X114300995Y-76768102D01*
X114301000Y-76768200D01*
X114301000Y-107772200D01*
X114300707Y-107772907D01*
X114300000Y-107773200D01*
X110490000Y-107773200D01*
X110489293Y-107772907D01*
X110489000Y-107772200D01*
X110489000Y-75768200D01*
X110489293Y-75767493D01*
X110490000Y-75767200D01*
X113300000Y-75767200D01*
X113300098Y-75767205D01*
G37*
G36*
X120592121Y-98521202D02*
G01*
X120638614Y-98574858D01*
X120650000Y-98627200D01*
X120650000Y-98737085D01*
X120654475Y-98752324D01*
X120655865Y-98753529D01*
X120663548Y-98755200D01*
X122505200Y-98755200D01*
X122573321Y-98775202D01*
X122619814Y-98828858D01*
X122631200Y-98881200D01*
X122631200Y-100508800D01*
X122611198Y-100576921D01*
X122557542Y-100623414D01*
X122505200Y-100634800D01*
X120668115Y-100634800D01*
X120652876Y-100639275D01*
X120651671Y-100640665D01*
X120650000Y-100648348D01*
X120650000Y-100762800D01*
X120629998Y-100830921D01*
X120576342Y-100877414D01*
X120524000Y-100888800D01*
X118824288Y-100888800D01*
X118818106Y-100888648D01*
X118802491Y-100887881D01*
X118790185Y-100886669D01*
X118777774Y-100884828D01*
X118765648Y-100882416D01*
X118753467Y-100879365D01*
X118741635Y-100875776D01*
X118729829Y-100871552D01*
X118718402Y-100866819D01*
X118707059Y-100861454D01*
X118696148Y-100855622D01*
X118685390Y-100849173D01*
X118675121Y-100842311D01*
X118665037Y-100834833D01*
X118655467Y-100826979D01*
X118646175Y-100818556D01*
X118637444Y-100809825D01*
X118629021Y-100800533D01*
X118621167Y-100790963D01*
X118613689Y-100780879D01*
X118606827Y-100770610D01*
X118600378Y-100759852D01*
X118594546Y-100748941D01*
X118589181Y-100737598D01*
X118584448Y-100726171D01*
X118580224Y-100714365D01*
X118576635Y-100702533D01*
X118573584Y-100690352D01*
X118571172Y-100678226D01*
X118569331Y-100665815D01*
X118568119Y-100653509D01*
X118567352Y-100637894D01*
X118567200Y-100631712D01*
X118567200Y-98758288D01*
X118567352Y-98752106D01*
X118568119Y-98736491D01*
X118569331Y-98724185D01*
X118571172Y-98711774D01*
X118573584Y-98699648D01*
X118576635Y-98687467D01*
X118580224Y-98675635D01*
X118584448Y-98663829D01*
X118589181Y-98652402D01*
X118594546Y-98641059D01*
X118600378Y-98630148D01*
X118606827Y-98619390D01*
X118613689Y-98609121D01*
X118621167Y-98599037D01*
X118629021Y-98589467D01*
X118637444Y-98580175D01*
X118646175Y-98571444D01*
X118655467Y-98563021D01*
X118665037Y-98555167D01*
X118675121Y-98547689D01*
X118685390Y-98540827D01*
X118696148Y-98534378D01*
X118707059Y-98528546D01*
X118718402Y-98523181D01*
X118729829Y-98518448D01*
X118741635Y-98514224D01*
X118753467Y-98510635D01*
X118765648Y-98507584D01*
X118777774Y-98505172D01*
X118790185Y-98503331D01*
X118802491Y-98502119D01*
X118818106Y-98501352D01*
X118824288Y-98501200D01*
X120524000Y-98501200D01*
X120592121Y-98521202D01*
G37*
G36*
X123551763Y-73228807D02*
G01*
X123716596Y-73245042D01*
X123740821Y-73249860D01*
X123893368Y-73296134D01*
X123916189Y-73305587D01*
X124056783Y-73380736D01*
X124077321Y-73394459D01*
X124200547Y-73495588D01*
X124218012Y-73513053D01*
X124319141Y-73636279D01*
X124332864Y-73656817D01*
X124408013Y-73797411D01*
X124417466Y-73820232D01*
X124463740Y-73972779D01*
X124468558Y-73997003D01*
X124484184Y-74155649D01*
X124484184Y-74180351D01*
X124468558Y-74338997D01*
X124463740Y-74363221D01*
X124417466Y-74515768D01*
X124408013Y-74538589D01*
X124332864Y-74679183D01*
X124319141Y-74699721D01*
X124218012Y-74822947D01*
X124200547Y-74840412D01*
X124077321Y-74941541D01*
X124056783Y-74955264D01*
X123916189Y-75030413D01*
X123893368Y-75039866D01*
X123740821Y-75086140D01*
X123716596Y-75090958D01*
X123551763Y-75107193D01*
X123539413Y-75107800D01*
X121258600Y-75107800D01*
X121190479Y-75087798D01*
X121143986Y-75034142D01*
X121132600Y-74981800D01*
X121132600Y-73354200D01*
X121152602Y-73286079D01*
X121206258Y-73239586D01*
X121258600Y-73228200D01*
X123539413Y-73228200D01*
X123551763Y-73228807D01*
G37*
G36*
X109949521Y-101315202D02*
G01*
X109996014Y-101368858D01*
X110007400Y-101421200D01*
X110007400Y-103048800D01*
X109987398Y-103116921D01*
X109933742Y-103163414D01*
X109881400Y-103174800D01*
X107600587Y-103174800D01*
X107588237Y-103174193D01*
X107423404Y-103157958D01*
X107399179Y-103153140D01*
X107246632Y-103106866D01*
X107223811Y-103097413D01*
X107083217Y-103022264D01*
X107062679Y-103008541D01*
X106939453Y-102907412D01*
X106921988Y-102889947D01*
X106820859Y-102766721D01*
X106807136Y-102746183D01*
X106731987Y-102605589D01*
X106722534Y-102582768D01*
X106676260Y-102430221D01*
X106671442Y-102405997D01*
X106655816Y-102247351D01*
X106655816Y-102222649D01*
X106671442Y-102064003D01*
X106676260Y-102039779D01*
X106722534Y-101887232D01*
X106731987Y-101864411D01*
X106807136Y-101723817D01*
X106820859Y-101703279D01*
X106921988Y-101580053D01*
X106939453Y-101562588D01*
X107062679Y-101461459D01*
X107083217Y-101447736D01*
X107223811Y-101372587D01*
X107246632Y-101363134D01*
X107399179Y-101316860D01*
X107423404Y-101312042D01*
X107588237Y-101295807D01*
X107600587Y-101295200D01*
X109881400Y-101295200D01*
X109949521Y-101315202D01*
G37*
G36*
X120592121Y-85821202D02*
G01*
X120638614Y-85874858D01*
X120650000Y-85927200D01*
X120650000Y-86037085D01*
X120654475Y-86052324D01*
X120655865Y-86053529D01*
X120663548Y-86055200D01*
X122505200Y-86055200D01*
X122573321Y-86075202D01*
X122619814Y-86128858D01*
X122631200Y-86181200D01*
X122631200Y-87808800D01*
X122611198Y-87876921D01*
X122557542Y-87923414D01*
X122505200Y-87934800D01*
X120668115Y-87934800D01*
X120652876Y-87939275D01*
X120651671Y-87940665D01*
X120650000Y-87948348D01*
X120650000Y-88062800D01*
X120629998Y-88130921D01*
X120576342Y-88177414D01*
X120524000Y-88188800D01*
X118824288Y-88188800D01*
X118818106Y-88188648D01*
X118802491Y-88187881D01*
X118790185Y-88186669D01*
X118777774Y-88184828D01*
X118765648Y-88182416D01*
X118753467Y-88179365D01*
X118741635Y-88175776D01*
X118729829Y-88171552D01*
X118718402Y-88166819D01*
X118707059Y-88161454D01*
X118696148Y-88155622D01*
X118685390Y-88149173D01*
X118675121Y-88142311D01*
X118665037Y-88134833D01*
X118655467Y-88126979D01*
X118646175Y-88118556D01*
X118637444Y-88109825D01*
X118629021Y-88100533D01*
X118621167Y-88090963D01*
X118613689Y-88080879D01*
X118606827Y-88070610D01*
X118600378Y-88059852D01*
X118594546Y-88048941D01*
X118589181Y-88037598D01*
X118584448Y-88026171D01*
X118580224Y-88014365D01*
X118576635Y-88002533D01*
X118573584Y-87990352D01*
X118571172Y-87978226D01*
X118569331Y-87965815D01*
X118568119Y-87953509D01*
X118567352Y-87937894D01*
X118567200Y-87931712D01*
X118567200Y-86058288D01*
X118567352Y-86052106D01*
X118568119Y-86036491D01*
X118569331Y-86024185D01*
X118571172Y-86011774D01*
X118573584Y-85999648D01*
X118576635Y-85987467D01*
X118580224Y-85975635D01*
X118584448Y-85963829D01*
X118589181Y-85952402D01*
X118594546Y-85941059D01*
X118600378Y-85930148D01*
X118606827Y-85919390D01*
X118613689Y-85909121D01*
X118621167Y-85899037D01*
X118629021Y-85889467D01*
X118637444Y-85880175D01*
X118646175Y-85871444D01*
X118655467Y-85863021D01*
X118665037Y-85855167D01*
X118675121Y-85847689D01*
X118685390Y-85840827D01*
X118696148Y-85834378D01*
X118707059Y-85828546D01*
X118718402Y-85823181D01*
X118729829Y-85818448D01*
X118741635Y-85814224D01*
X118753467Y-85810635D01*
X118765648Y-85807584D01*
X118777774Y-85805172D01*
X118790185Y-85803331D01*
X118802491Y-85802119D01*
X118818106Y-85801352D01*
X118824288Y-85801200D01*
X120524000Y-85801200D01*
X120592121Y-85821202D01*
G37*
G36*
X111839294Y-88341352D02*
G01*
X111854909Y-88342119D01*
X111867215Y-88343331D01*
X111879626Y-88345172D01*
X111891752Y-88347584D01*
X111903933Y-88350635D01*
X111915765Y-88354224D01*
X111927571Y-88358448D01*
X111938998Y-88363181D01*
X111950341Y-88368546D01*
X111961252Y-88374378D01*
X111972010Y-88380827D01*
X111982279Y-88387689D01*
X111992363Y-88395167D01*
X112001933Y-88403021D01*
X112011225Y-88411444D01*
X112019956Y-88420175D01*
X112028379Y-88429467D01*
X112036233Y-88439037D01*
X112043711Y-88449121D01*
X112050573Y-88459390D01*
X112057022Y-88470148D01*
X112062854Y-88481059D01*
X112068219Y-88492402D01*
X112072952Y-88503829D01*
X112077176Y-88515635D01*
X112080765Y-88527467D01*
X112083816Y-88539648D01*
X112086228Y-88551774D01*
X112088069Y-88564185D01*
X112089281Y-88576491D01*
X112090048Y-88592106D01*
X112090200Y-88598288D01*
X112090200Y-90471712D01*
X112090048Y-90477894D01*
X112089281Y-90493509D01*
X112088069Y-90505815D01*
X112086228Y-90518226D01*
X112083816Y-90530352D01*
X112080765Y-90542533D01*
X112077176Y-90554365D01*
X112072952Y-90566171D01*
X112068219Y-90577598D01*
X112062854Y-90588941D01*
X112057022Y-90599852D01*
X112050573Y-90610610D01*
X112043711Y-90620879D01*
X112036233Y-90630963D01*
X112028379Y-90640533D01*
X112019956Y-90649825D01*
X112011225Y-90658556D01*
X112001933Y-90666979D01*
X111992363Y-90674833D01*
X111982279Y-90682311D01*
X111972010Y-90689173D01*
X111961252Y-90695622D01*
X111950341Y-90701454D01*
X111938998Y-90706819D01*
X111927571Y-90711552D01*
X111915765Y-90715776D01*
X111903933Y-90719365D01*
X111891752Y-90722416D01*
X111879626Y-90724828D01*
X111867215Y-90726669D01*
X111854909Y-90727881D01*
X111839294Y-90728648D01*
X111833112Y-90728800D01*
X110616000Y-90728800D01*
X110547879Y-90708798D01*
X110501386Y-90655142D01*
X110490000Y-90602800D01*
X110490000Y-90492915D01*
X110485525Y-90477676D01*
X110484135Y-90476471D01*
X110476452Y-90474800D01*
X108152200Y-90474800D01*
X108084079Y-90454798D01*
X108037586Y-90401142D01*
X108026200Y-90348800D01*
X108026200Y-88721200D01*
X108046202Y-88653079D01*
X108099858Y-88606586D01*
X108152200Y-88595200D01*
X110471885Y-88595200D01*
X110487124Y-88590725D01*
X110488329Y-88589335D01*
X110490000Y-88581652D01*
X110490000Y-88467200D01*
X110510002Y-88399079D01*
X110563658Y-88352586D01*
X110616000Y-88341200D01*
X111833112Y-88341200D01*
X111839294Y-88341352D01*
G37*
G36*
X123551763Y-98755807D02*
G01*
X123716596Y-98772042D01*
X123740821Y-98776860D01*
X123893368Y-98823134D01*
X123916189Y-98832587D01*
X124056783Y-98907736D01*
X124077321Y-98921459D01*
X124200547Y-99022588D01*
X124218012Y-99040053D01*
X124319141Y-99163279D01*
X124332864Y-99183817D01*
X124408013Y-99324411D01*
X124417466Y-99347232D01*
X124463740Y-99499779D01*
X124468558Y-99524003D01*
X124484184Y-99682649D01*
X124484184Y-99707351D01*
X124468558Y-99865997D01*
X124463740Y-99890221D01*
X124417466Y-100042768D01*
X124408013Y-100065589D01*
X124332864Y-100206183D01*
X124319141Y-100226721D01*
X124218012Y-100349947D01*
X124200547Y-100367412D01*
X124077321Y-100468541D01*
X124056783Y-100482264D01*
X123916189Y-100557413D01*
X123893368Y-100566866D01*
X123740821Y-100613140D01*
X123716596Y-100617958D01*
X123551763Y-100634193D01*
X123539413Y-100634800D01*
X121258600Y-100634800D01*
X121190479Y-100614798D01*
X121143986Y-100561142D01*
X121132600Y-100508800D01*
X121132600Y-98881200D01*
X121152602Y-98813079D01*
X121206258Y-98766586D01*
X121258600Y-98755200D01*
X123539413Y-98755200D01*
X123551763Y-98755807D01*
G37*
G36*
X112522707Y-75767493D02*
G01*
X112523000Y-75768200D01*
X112523000Y-77647800D01*
X112522707Y-77648507D01*
X112522000Y-77648800D01*
X108458000Y-77648800D01*
X108457293Y-77648507D01*
X108457000Y-77647800D01*
X108457000Y-75768200D01*
X108457293Y-75767493D01*
X108458000Y-75767200D01*
X112522000Y-75767200D01*
X112522707Y-75767493D01*
G37*
G36*
X111839294Y-101041352D02*
G01*
X111854909Y-101042119D01*
X111867215Y-101043331D01*
X111879626Y-101045172D01*
X111891752Y-101047584D01*
X111903933Y-101050635D01*
X111915765Y-101054224D01*
X111927571Y-101058448D01*
X111938998Y-101063181D01*
X111950341Y-101068546D01*
X111961252Y-101074378D01*
X111972010Y-101080827D01*
X111982279Y-101087689D01*
X111992363Y-101095167D01*
X112001933Y-101103021D01*
X112011225Y-101111444D01*
X112019956Y-101120175D01*
X112028379Y-101129467D01*
X112036233Y-101139037D01*
X112043711Y-101149121D01*
X112050573Y-101159390D01*
X112057022Y-101170148D01*
X112062854Y-101181059D01*
X112068219Y-101192402D01*
X112072952Y-101203829D01*
X112077176Y-101215635D01*
X112080765Y-101227467D01*
X112083816Y-101239648D01*
X112086228Y-101251774D01*
X112088069Y-101264185D01*
X112089281Y-101276491D01*
X112090048Y-101292106D01*
X112090200Y-101298288D01*
X112090200Y-103171712D01*
X112090048Y-103177894D01*
X112089281Y-103193509D01*
X112088069Y-103205815D01*
X112086228Y-103218226D01*
X112083816Y-103230352D01*
X112080765Y-103242533D01*
X112077176Y-103254365D01*
X112072952Y-103266171D01*
X112068219Y-103277598D01*
X112062854Y-103288941D01*
X112057022Y-103299852D01*
X112050573Y-103310610D01*
X112043711Y-103320879D01*
X112036233Y-103330963D01*
X112028379Y-103340533D01*
X112019956Y-103349825D01*
X112011225Y-103358556D01*
X112001933Y-103366979D01*
X111992363Y-103374833D01*
X111982279Y-103382311D01*
X111972010Y-103389173D01*
X111961252Y-103395622D01*
X111950341Y-103401454D01*
X111938998Y-103406819D01*
X111927571Y-103411552D01*
X111915765Y-103415776D01*
X111903933Y-103419365D01*
X111891752Y-103422416D01*
X111879626Y-103424828D01*
X111867215Y-103426669D01*
X111854909Y-103427881D01*
X111839294Y-103428648D01*
X111833112Y-103428800D01*
X110616000Y-103428800D01*
X110547879Y-103408798D01*
X110501386Y-103355142D01*
X110490000Y-103302800D01*
X110490000Y-103192915D01*
X110485525Y-103177676D01*
X110484135Y-103176471D01*
X110476452Y-103174800D01*
X108152200Y-103174800D01*
X108084079Y-103154798D01*
X108037586Y-103101142D01*
X108026200Y-103048800D01*
X108026200Y-101421200D01*
X108046202Y-101353079D01*
X108099858Y-101306586D01*
X108152200Y-101295200D01*
X110471885Y-101295200D01*
X110487124Y-101290725D01*
X110488329Y-101289335D01*
X110490000Y-101281652D01*
X110490000Y-101167200D01*
X110510002Y-101099079D01*
X110563658Y-101052586D01*
X110616000Y-101041200D01*
X111833112Y-101041200D01*
X111839294Y-101041352D01*
G37*
G36*
X109949521Y-75788202D02*
G01*
X109996014Y-75841858D01*
X110007400Y-75894200D01*
X110007400Y-77521800D01*
X109987398Y-77589921D01*
X109933742Y-77636414D01*
X109881400Y-77647800D01*
X107600587Y-77647800D01*
X107588237Y-77647193D01*
X107423404Y-77630958D01*
X107399179Y-77626140D01*
X107246632Y-77579866D01*
X107223811Y-77570413D01*
X107083217Y-77495264D01*
X107062679Y-77481541D01*
X106939453Y-77380412D01*
X106921988Y-77362947D01*
X106820859Y-77239721D01*
X106807136Y-77219183D01*
X106731987Y-77078589D01*
X106722534Y-77055768D01*
X106676260Y-76903221D01*
X106671442Y-76878997D01*
X106655816Y-76720351D01*
X106655816Y-76695649D01*
X106671442Y-76537003D01*
X106676260Y-76512779D01*
X106722534Y-76360232D01*
X106731987Y-76337411D01*
X106807136Y-76196817D01*
X106820859Y-76176279D01*
X106921988Y-76053053D01*
X106939453Y-76035588D01*
X107062679Y-75934459D01*
X107083217Y-75920736D01*
X107223811Y-75845587D01*
X107246632Y-75836134D01*
X107399179Y-75789860D01*
X107423404Y-75785042D01*
X107588237Y-75768807D01*
X107600587Y-75768200D01*
X109881400Y-75768200D01*
X109949521Y-75788202D01*
G37*
G36*
X120650707Y-73227493D02*
G01*
X120651000Y-73228200D01*
X120651000Y-105232200D01*
X120650707Y-105232907D01*
X120650000Y-105233200D01*
X116840000Y-105233200D01*
X116839293Y-105232907D01*
X116839000Y-105232200D01*
X116839000Y-74228200D01*
X116839005Y-74228102D01*
X116858220Y-74033012D01*
X116858258Y-74032820D01*
X116915163Y-73845227D01*
X116915238Y-73845046D01*
X117007648Y-73672159D01*
X117007757Y-73671996D01*
X117132120Y-73520459D01*
X117132259Y-73520320D01*
X117283796Y-73395957D01*
X117283959Y-73395848D01*
X117456846Y-73303438D01*
X117457027Y-73303363D01*
X117644620Y-73246458D01*
X117644812Y-73246420D01*
X117839902Y-73227205D01*
X117840000Y-73227200D01*
X120650000Y-73227200D01*
X120650707Y-73227493D01*
G37*
G36*
X114300707Y-106349093D02*
G01*
X114301000Y-106349800D01*
X114301000Y-108983586D01*
X114300995Y-108983684D01*
X114281780Y-109178775D01*
X114281742Y-109178967D01*
X114224837Y-109366560D01*
X114224762Y-109366741D01*
X114132352Y-109539628D01*
X114132243Y-109539791D01*
X114007880Y-109691327D01*
X114007814Y-109691400D01*
X110326400Y-113372814D01*
X110326327Y-113372880D01*
X110174791Y-113497243D01*
X110174628Y-113497352D01*
X110001741Y-113589762D01*
X110001560Y-113589837D01*
X109813967Y-113646742D01*
X109813775Y-113646780D01*
X109618684Y-113665995D01*
X109618586Y-113666000D01*
X89052814Y-113666000D01*
X84964000Y-117754814D01*
X84964000Y-120793000D01*
X84963995Y-120793098D01*
X84944780Y-120988188D01*
X84944742Y-120988380D01*
X84887837Y-121175973D01*
X84887762Y-121176154D01*
X84795352Y-121349041D01*
X84795243Y-121349204D01*
X84670880Y-121500741D01*
X84670741Y-121500880D01*
X84519204Y-121625243D01*
X84519041Y-121625352D01*
X84346154Y-121717762D01*
X84345973Y-121717837D01*
X84158380Y-121774742D01*
X84158188Y-121774780D01*
X83963098Y-121793995D01*
X83963000Y-121794000D01*
X82153000Y-121794000D01*
X82152902Y-121793995D01*
X81957812Y-121774780D01*
X81957620Y-121774742D01*
X81770027Y-121717837D01*
X81769846Y-121717762D01*
X81596959Y-121625352D01*
X81596796Y-121625243D01*
X81445259Y-121500880D01*
X81445120Y-121500741D01*
X81320757Y-121349204D01*
X81320648Y-121349041D01*
X81228238Y-121176154D01*
X81228163Y-121175973D01*
X81171258Y-120988380D01*
X81171220Y-120988188D01*
X81152005Y-120793098D01*
X81152000Y-120793000D01*
X81152000Y-116568414D01*
X81152005Y-116568316D01*
X81171220Y-116373225D01*
X81171258Y-116373033D01*
X81228163Y-116185440D01*
X81228238Y-116185259D01*
X81320648Y-116012372D01*
X81320757Y-116012209D01*
X81445120Y-115860673D01*
X81445186Y-115860600D01*
X87158600Y-110147186D01*
X87158673Y-110147120D01*
X87310209Y-110022757D01*
X87310372Y-110022648D01*
X87483259Y-109930238D01*
X87483440Y-109930163D01*
X87671033Y-109873258D01*
X87671225Y-109873220D01*
X87866316Y-109854005D01*
X87866414Y-109854000D01*
X108432186Y-109854000D01*
X110489000Y-107797186D01*
X110489000Y-106349800D01*
X110489293Y-106349093D01*
X110490000Y-106348800D01*
X114300000Y-106348800D01*
X114300707Y-106349093D01*
G37*
G36*
X120650707Y-103301093D02*
G01*
X120651000Y-103301800D01*
X120651000Y-111879186D01*
X120650995Y-111879284D01*
X120631780Y-112074375D01*
X120631742Y-112074567D01*
X120574837Y-112262160D01*
X120574762Y-112262341D01*
X120482352Y-112435228D01*
X120482243Y-112435391D01*
X120357880Y-112586927D01*
X120357814Y-112587000D01*
X108861014Y-124083800D01*
X108860941Y-124083866D01*
X108709404Y-124208229D01*
X108709241Y-124208338D01*
X108536354Y-124300748D01*
X108536173Y-124300823D01*
X108348580Y-124357729D01*
X108348388Y-124357767D01*
X108153298Y-124376981D01*
X108153102Y-124376981D01*
X107958012Y-124357767D01*
X107957820Y-124357729D01*
X107770227Y-124300823D01*
X107770046Y-124300748D01*
X107597159Y-124208338D01*
X107596996Y-124208229D01*
X107445459Y-124083866D01*
X107445386Y-124083800D01*
X106167200Y-122805614D01*
X106167134Y-122805541D01*
X106042771Y-122654004D01*
X106042662Y-122653841D01*
X105950252Y-122480954D01*
X105950177Y-122480773D01*
X105893271Y-122293180D01*
X105893233Y-122292988D01*
X105874019Y-122097898D01*
X105874019Y-122097702D01*
X105893233Y-121902612D01*
X105893271Y-121902420D01*
X105950177Y-121714827D01*
X105950252Y-121714646D01*
X106042662Y-121541759D01*
X106042771Y-121541596D01*
X106167134Y-121390059D01*
X106167200Y-121389986D01*
X116839000Y-110718186D01*
X116839000Y-103301800D01*
X116839293Y-103301093D01*
X116840000Y-103300800D01*
X120650000Y-103300800D01*
X120650707Y-103301093D01*
G37*
G36*
X109949521Y-88615202D02*
G01*
X109996014Y-88668858D01*
X110007400Y-88721200D01*
X110007400Y-90348800D01*
X109987398Y-90416921D01*
X109933742Y-90463414D01*
X109881400Y-90474800D01*
X107600587Y-90474800D01*
X107588237Y-90474193D01*
X107423404Y-90457958D01*
X107399179Y-90453140D01*
X107246632Y-90406866D01*
X107223811Y-90397413D01*
X107083217Y-90322264D01*
X107062679Y-90308541D01*
X106939453Y-90207412D01*
X106921988Y-90189947D01*
X106820859Y-90066721D01*
X106807136Y-90046183D01*
X106731987Y-89905589D01*
X106722534Y-89882768D01*
X106676260Y-89730221D01*
X106671442Y-89705997D01*
X106655816Y-89547351D01*
X106655816Y-89522649D01*
X106671442Y-89364003D01*
X106676260Y-89339779D01*
X106722534Y-89187232D01*
X106731987Y-89164411D01*
X106807136Y-89023817D01*
X106820859Y-89003279D01*
X106921988Y-88880053D01*
X106939453Y-88862588D01*
X107062679Y-88761459D01*
X107083217Y-88747736D01*
X107223811Y-88672587D01*
X107246632Y-88663134D01*
X107399179Y-88616860D01*
X107423404Y-88612042D01*
X107588237Y-88595807D01*
X107600587Y-88595200D01*
X109881400Y-88595200D01*
X109949521Y-88615202D01*
G37*
G36*
X122573321Y-73248202D02*
G01*
X122619814Y-73301858D01*
X122631200Y-73354200D01*
X122631200Y-74981800D01*
X122611198Y-75049921D01*
X122557542Y-75096414D01*
X122505200Y-75107800D01*
X120668115Y-75107800D01*
X120652876Y-75112275D01*
X120651671Y-75113665D01*
X120650000Y-75121348D01*
X120650000Y-75235800D01*
X120629998Y-75303921D01*
X120576342Y-75350414D01*
X120524000Y-75361800D01*
X118722688Y-75361800D01*
X118716506Y-75361648D01*
X118700891Y-75360881D01*
X118688585Y-75359669D01*
X118676174Y-75357828D01*
X118664048Y-75355416D01*
X118651867Y-75352365D01*
X118640035Y-75348776D01*
X118628229Y-75344552D01*
X118616802Y-75339819D01*
X118605459Y-75334454D01*
X118594548Y-75328622D01*
X118583790Y-75322173D01*
X118573521Y-75315311D01*
X118563437Y-75307833D01*
X118553867Y-75299979D01*
X118544575Y-75291556D01*
X118535844Y-75282825D01*
X118527421Y-75273533D01*
X118519567Y-75263963D01*
X118512089Y-75253879D01*
X118505227Y-75243610D01*
X118498778Y-75232852D01*
X118492946Y-75221941D01*
X118487581Y-75210598D01*
X118482848Y-75199171D01*
X118478624Y-75187365D01*
X118475035Y-75175533D01*
X118471984Y-75163352D01*
X118469572Y-75151226D01*
X118467731Y-75138815D01*
X118466519Y-75126509D01*
X118465752Y-75110894D01*
X118465600Y-75104712D01*
X118465600Y-73354200D01*
X118485602Y-73286079D01*
X118539258Y-73239586D01*
X118591600Y-73228200D01*
X122505200Y-73228200D01*
X122573321Y-73248202D01*
G37*
M02*
