M48
; DRILL file {KiCad 6.0.11+dfsg-1} date Tue 07 Nov 2023 11:46:21 GMT
; FORMAT={-:-/ absolute / inch / decimal}
; #@! TF.CreationDate,2023-11-07T11:46:21+00:00
; #@! TF.GenerationSoftware,Kicad,Pcbnew,6.0.11+dfsg-1
; #@! TF.FileFunction,Plated,1,2,PTH
FMAT,2
INCH
; #@! TA.AperFunction,Plated,PTH,ViaDrill
T1C0.0157
; #@! TA.AperFunction,Plated,PTH,ComponentDrill
T2C0.0157
; #@! TA.AperFunction,Plated,PTH,ComponentDrill
T3C0.0197
; #@! TA.AperFunction,Plated,PTH,ComponentDrill
T4C0.0236
; #@! TA.AperFunction,Plated,PTH,ComponentDrill
T5C0.0433
; #@! TA.AperFunction,Plated,PTH,ComponentDrill
T6C0.0866
; #@! TA.AperFunction,Plated,PTH,ComponentDrill
T7C0.1260
; #@! TA.AperFunction,Plated,PTH,ComponentDrill
T8C0.1693
%
G90
G05
T1
X3.57Y-4.595
X3.84Y-2.49
X4.48Y-2.39
X5.7Y-2.35
X5.85Y-2.65
X5.89Y-2.35
X5.95Y-2.76
X5.96Y-3.35
X6.04Y-4.18
T2
X3.235Y-2.18
X3.2541Y-2.1341
X3.2541Y-2.2259
X3.3Y-2.115
X3.3Y-2.245
X3.3459Y-2.1341
X3.3459Y-2.2259
X3.365Y-2.18
X3.485Y-2.18
X3.5041Y-2.1341
X3.5041Y-2.2259
X3.55Y-2.115
X3.55Y-2.245
X3.5959Y-2.1341
X3.5959Y-2.2259
X3.615Y-2.18
X3.735Y-2.18
X3.7541Y-2.1341
X3.7541Y-2.2259
X3.8Y-2.115
X3.8Y-2.245
X3.8459Y-2.1341
X3.8459Y-2.2259
X3.865Y-2.18
X3.985Y-2.18
X4.0041Y-2.1341
X4.0041Y-2.2259
X4.05Y-2.115
X4.05Y-2.245
X4.0959Y-2.1341
X4.0959Y-2.2259
X4.115Y-2.18
X4.235Y-2.18
X4.2541Y-2.1341
X4.2541Y-2.2259
X4.3Y-2.115
X4.3Y-2.245
X4.3459Y-2.1341
X4.3459Y-2.2259
X4.365Y-2.18
X4.485Y-2.18
X4.5041Y-2.1341
X4.5041Y-2.2259
X4.55Y-2.115
X4.55Y-2.245
X4.5959Y-2.1341
X4.5959Y-2.2259
X4.615Y-2.18
X4.735Y-2.18
X4.7541Y-2.1341
X4.7541Y-2.2259
X4.8Y-2.115
X4.8Y-2.245
X4.8459Y-2.1341
X4.8459Y-2.2259
X4.865Y-2.18
X4.985Y-2.18
X5.0041Y-2.1341
X5.0041Y-2.2259
X5.05Y-2.115
X5.05Y-2.245
X5.0959Y-2.1341
X5.0959Y-2.2259
X5.115Y-2.18
X5.235Y-2.18
X5.2541Y-2.1341
X5.2541Y-2.2259
X5.3Y-2.115
X5.3Y-2.245
X5.3459Y-2.1341
X5.3459Y-2.2259
X5.365Y-2.18
X5.485Y-2.18
X5.5041Y-2.1341
X5.5041Y-2.2259
X5.55Y-2.115
X5.55Y-2.245
X5.5959Y-2.1341
X5.5959Y-2.2259
X5.615Y-2.18
X5.735Y-2.18
X5.7541Y-2.1341
X5.7541Y-2.2259
X5.8Y-2.115
X5.8Y-2.245
X5.8459Y-2.1341
X5.8459Y-2.2259
X5.865Y-2.18
T3
X3.1735Y-3.545
X3.2012Y-3.4782
X3.2012Y-3.6118
X3.268Y-3.4505
X3.268Y-3.6395
X3.3348Y-3.4782
X3.3348Y-3.6118
X3.3625Y-3.545
X5.7375Y-3.545
X5.7652Y-3.4782
X5.7652Y-3.6118
X5.832Y-3.4505
X5.832Y-3.6395
X5.8988Y-3.4782
X5.8988Y-3.6118
X5.9265Y-3.545
T4
X3.143Y-4.875
X3.1802Y-4.7852
X3.1802Y-4.9648
X3.27Y-4.748
X3.27Y-5.002
X3.3598Y-4.7852
X3.3598Y-4.9648
X3.397Y-4.875
X3.603Y-4.875
X3.6402Y-4.7852
X3.6402Y-4.9648
X3.73Y-4.748
X3.73Y-5.002
X3.8198Y-4.7852
X3.8198Y-4.9648
X3.857Y-4.875
X4.063Y-4.875
X4.1002Y-4.7852
X4.1002Y-4.9648
X4.19Y-4.748
X4.19Y-5.002
X4.2798Y-4.7852
X4.2798Y-4.9648
X4.317Y-4.875
X4.798Y-4.875
X4.8352Y-4.7852
X4.8352Y-4.9648
X4.925Y-4.748
X4.925Y-5.002
X5.0148Y-4.7852
X5.0148Y-4.9648
X5.052Y-4.875
X5.248Y-4.875
X5.2852Y-4.7852
X5.2852Y-4.9648
X5.375Y-4.748
X5.375Y-5.002
X5.4648Y-4.7852
X5.4648Y-4.9648
X5.502Y-4.875
X5.6972Y-4.875
X5.7344Y-4.7852
X5.7344Y-4.9648
X5.8242Y-4.748
X5.8242Y-5.002
X5.914Y-4.7852
X5.914Y-4.9648
X5.9512Y-4.875
T5
X4.2384Y-2.9203
X4.2384Y-3.0203
X4.2384Y-3.1203
X4.2384Y-3.425
X4.2384Y-3.525
X4.2384Y-3.625
X4.2384Y-3.925
X4.2384Y-4.025
X4.2384Y-4.125
X4.8616Y-2.9203
X4.8616Y-3.0203
X4.8616Y-3.1203
X4.8616Y-3.425
X4.8616Y-3.525
X4.8616Y-3.625
X4.8616Y-3.925
X4.8616Y-4.025
X4.8616Y-4.125
T6
X3.3Y-2.18
X3.55Y-2.18
X3.8Y-2.18
X4.05Y-2.18
X4.3Y-2.18
X4.55Y-2.18
X4.8Y-2.18
X5.05Y-2.18
X5.3Y-2.18
X5.55Y-2.18
X5.8Y-2.18
T7
X3.268Y-3.545
X5.832Y-3.545
T8
X3.27Y-4.875
X3.73Y-4.875
X4.19Y-4.875
X4.925Y-4.875
X5.375Y-4.875
X5.8242Y-4.875
T0
M30
